<svg id="Layer_1" data-name="Layer 1" xmlns="http://www.w3.org/2000/svg" xmlns:xlink="http://www.w3.org/1999/xlink" viewBox="0 0 774 694"><defs><style>.cls-1{fill:#f7f7f7;stroke-width:5px;}.cls-1,.cls-10,.cls-11,.cls-12,.cls-13,.cls-15,.cls-16,.cls-17,.cls-2,.cls-4,.cls-6,.cls-7,.cls-8,.cls-9{stroke:#000;}.cls-1,.cls-10,.cls-11,.cls-17,.cls-2,.cls-3,.cls-4,.cls-6,.cls-7,.cls-8,.cls-9{stroke-linecap:round;stroke-linejoin:round;}.cls-12,.cls-16,.cls-17,.cls-2,.cls-4,.cls-6{fill:#f47d30;}.cls-2{stroke-width:3px;}.cls-3{stroke:#f47d30;}.cls-3,.cls-4{stroke-width:8px;}.cls-10,.cls-15,.cls-5,.cls-8{fill:#fff;}.cls-13,.cls-6,.cls-9{stroke-width:2.43px;}.cls-11,.cls-7{fill:none;}.cls-7,.cls-8{stroke-width:2.19px;}.cls-10{stroke-width:3.24px;}.cls-11{stroke-width:4.05px;}.cls-12,.cls-13,.cls-15,.cls-16{stroke-miterlimit:10;}.cls-12{stroke-width:2.5px;}.cls-14{fill:url(#radial-gradient);}.cls-15{stroke-width:0.36px;}.cls-16{stroke-width:0.25px;}.cls-17{stroke-width:2px;}</style><radialGradient id="radial-gradient" cx="521.41" cy="208.99" r="21.95" gradientTransform="matrix(1, 0.1, -0.1, 1, -89.05, -85)" gradientUnits="userSpaceOnUse"><stop offset="0" stop-color="#f3de2c"/><stop offset="0.53" stop-color="#f4aa2e"/><stop offset="0.99" stop-color="#f47d30"/></radialGradient></defs><title>Frederick Keys Keyote Logo Redesign</title><path class="cls-1" d="M120.2,611.12l-21.73-5.56L118.82,600Z"/><path class="cls-1" d="M166.7,587l-47.88,13-8.66-69.36,44.6-18.43Z"/><path class="cls-1" d="M120.2,611.12l-21.73-5.56L118.82,600Z"/><path class="cls-1" d="M172.14,621.07l-2.64-16.51.87-.25Z"/><path class="cls-2" d="M110.77,535.56q-1.38-2-2.73-4l2.12-.88Z"/><path class="cls-1" d="M597.52,607.08l-1.63,10.23c.46-3.43.93-6.87,1.4-10.3Z"/><path class="cls-1" d="M166.7,587l-47.88,13-8.66-69.36,44.6-18.43Z"/><path class="cls-3" d="M702.6,609.76,724,680.11,594.23,627.69l1.66-10.38,1.63-10.23-.23-.07-1.53-.46a762.56,762.56,0,0,0-208.71-31.62c-2.64,0-5.26,0-7.87,0A760.37,760.37,0,0,0,175.72,602.8l-5.35,1.51-.87.25,2.64,16.51.58,3.64L43,677.14l21.39-70.35-43.93-39L108,531.54q-4.41-6.64-8.39-13.6C82,487.12,57.42,394.77,57.42,346.07a330.07,330.07,0,0,1,563.46-233.4,327.91,327.91,0,0,1,96.67,233.4c0,53.41-38.53,159.76-45.7,174a152.29,152.29,0,0,1-9.34,16l84,34.72Z"/><path class="cls-4" d="M697.55,346.07C697.55,394.83,661,497.17,654,511s-20.77,35-50,57a910.92,910.92,0,0,0-101-21c-70.3-10.51-124-10.13-135-10-48.78.57-119,6.24-202,30a223.4,223.4,0,0,1-49-59c-15.75-27.5-39.58-115.5-39.58-161.93C77.42,174.82,216.23,36,387.48,36S697.55,174.82,697.55,346.07Z"/><path class="cls-1" d="M161.59,618.43,58.61,660q8.58-28.23,17.17-56.46L39,570.88,146.88,526.3Q154.23,572.37,161.59,618.43Z"/><path class="cls-1" d="M161.59,618.43q-1.23-10.41-2.45-20.81l-29.42,8.92Z"/><path class="cls-1" d="M605.36,621.4l103,41.6-17.16-56.46L728,573.85,620.07,529.28Q612.7,575.33,605.36,621.4Z"/><path class="cls-1" d="M606.5,621.5q1.08-10.46,2.15-20.9l27.85,8.9Z"/><path class="cls-1" d="M654.39,511.45l-.45,2.55q-8.34,47.76-16.71,95.51c-12-4.22-24.84-8.45-38.62-12.55A766.09,766.09,0,0,0,173,593.17c-15.57,4.32-30,8.85-43.33,13.37q-6.14-49-12.25-98.06l.76-.28c63.93-23.44,157.43-48.43,271.38-47.28C500.6,462.06,591.62,487.59,654.39,511.45Z"/><path class="cls-5" d="M297,437c-18.46,0-43.35-3.15-57.11-18.13-2.28-2.49-9.11-10-10.34-21.46a34.83,34.83,0,0,1,0-7.57,60.12,60.12,0,0,1-17.73-12.17c-19-18.88-27.55-54.09-9.94-76.4a41.86,41.86,0,0,1,7.74-7.53A42.75,42.75,0,0,1,249.43,265h.31a42.8,42.8,0,0,1,38.19,24.11c16.19,5.45,34.35,10.65,37.81,11l1.34,0c1.85.06,3.77.12,5.84.12h.25a83.06,83.06,0,0,1,.68-45.3A165.87,165.87,0,0,1,315.51,256c-20.88,0-37.42-4.8-49.15-14.25-7.56-6.1-27.65-22.3-20.51-40.77,1.94-5.05,6.67-11.73,18.15-14.88l1.55-.42,1.58-.12c8.63-1.9,29.67-6.33,51.4-9.18,12.64-1.66,24.88-2.71,36.48-3.12a58.12,58.12,0,0,1,12.89-20c10.37-10.49,23.8-16.16,41-17.29a32.45,32.45,0,0,1,22.41-9c.92,0,1.85,0,2.77.12a32.51,32.51,0,0,1,24,14c9.14,3.15,23.29,9.73,33,22.26,9.43,12.17,13.57,28.09,11.83,44.7a75.93,75.93,0,0,1,16.78,4.62c2.25.84,4.37,1.64,6.87,2.34a55.83,55.83,0,0,0,15,2c2,0,4-.09,6-.28l39.14-3.5-27.36,28.18A373.61,373.61,0,0,0,532,273.11c-4.79,6.2-9.45,12.65-13.89,19.24a75.06,75.06,0,0,1,6,5.36c6.29,6.23,21,20.78,19.64,42a48,48,0,0,1-9.34,25.23l-26.63,36.51-.13-18.17L495.94,397l-1.7-15.5c-.42.69-9,14.5-9,14.5L474.4,373.66a17,17,0,0,0-8.65-8.27c-9.33,5.71-20.93,12.81-34.26,20.92-41.26,25.15-46,27.82-54.19,31.53-32.07,14.58-58.22,18.05-70.95,18.83C303.33,436.85,300.18,437,297,437Z"/><path d="M525.62,268.22c-6.51,8.43-12.71,17.21-18.5,26.18a65.44,65.44,0,0,1,11.35,9c6.06,6,18.38,18.2,17.29,35.79a40.06,40.06,0,0,1-7.83,21L515.6,377.1q-.06-8.3-.11-16.6c0,1.13-13.62,17.18-13.62,17.18s-1.73-15.82-3.4-18.35c-.06.26-12.35,20.13-12.35,20.13l-4.52-9.3a25.38,25.38,0,0,0-7-8.69,25,25,0,0,0-10-4.8c-9.81,6-22.51,13.77-37.35,22.81C386.49,404.37,381.83,407,374,410.56c-30.89,14-55.94,17.38-68.12,18.12-2.89.18-5.88.27-8.86.27-16.86,0-39.43-2.7-51.22-15.54-2-2.19-7.32-8-8.28-16.91a27.09,27.09,0,0,1,1.35-11.68A53.72,53.72,0,0,1,217.49,372c-16.23-16.12-24.05-47.09-9.3-65.77a34.21,34.21,0,0,1,8.28-7.51,34.87,34.87,0,0,1,33-25.7h.25A34.86,34.86,0,0,1,282,295.51c15.92,5.49,39.26,12.43,43.41,12.56l1.13,0c1.94.06,4.07.13,6.38.13a85.68,85.68,0,0,0,11.16-.67A75.26,75.26,0,0,1,346.34,245a179.24,179.24,0,0,1-30.83,3c-19,0-33.86-4.2-44.13-12.48-9.92-8-22.58-20-18.07-31.66,1.87-4.85,6.18-8.23,12.81-10.05l.78-.21.8-.06.58,0c7.7-1.71,29.08-6.27,51.29-9.19a371.07,371.07,0,0,1,41.22-3.21,51.37,51.37,0,0,1,12.79-22.17c9.53-9.64,22.25-14.57,38.9-15.08h0A24.71,24.71,0,0,1,431.3,135c.69,0,1.39,0,2.09.09a24.61,24.61,0,0,1,19.41,12.76c8.4,2.56,22.6,8.41,31.94,20.46,9.69,12.5,12.81,29.86,8.84,47a69.54,69.54,0,0,1,8.05.68,67.89,67.89,0,0,1,15.23,4.21c2.43.91,4.74,1.77,7.52,2.55a63.62,63.62,0,0,0,17.2,2.28c2.21,0,4.48-.1,6.76-.31L566,223.16l-12.35,12.72A381.14,381.14,0,0,0,525.62,268.22Z"/><path class="cls-6" d="M380.59,228.23c-18.83,5.88-77.46,22.5-104.12,1-4.07-3.28-18.5-14.92-15.6-22.43,1.11-2.88,4.49-4.36,7.39-5.16,29-2,46.53,3.51,57.43,9.36,0,0,28.47,15.27,47.48,16.88.29,0,.59,0,.89.06l.82,0,.38,0h.27l.28,0,.76,0c.15,0,.31,0,.47,0h.35c.49,0,.82,0,.9,0Z"/><path class="cls-7" d="M248.44,380.44c2.73,1.19,5.77,2.36,9.09,3.43A95.38,95.38,0,0,0,270.38,387h0a157.83,157.83,0,0,0,32.9,0c12.07-1.33,69-20.42,142.56-57"/><path d="M437.25,322.81a14.33,14.33,0,0,1,5.44,2.35,15,15,0,0,1,6.24,10,14.57,14.57,0,0,1-.27,5.92.64.64,0,0,1-1.25-.2h0a18.68,18.68,0,0,0-.43-5.34,15.85,15.85,0,0,0-2-4.84,17.09,17.09,0,0,0-8.08-6.65h0a.64.64,0,0,1,.37-1.21Z"/><path class="cls-7" d="M303.28,387l6.58,13.16,4.38-15.35"/><path d="M270,388.06a33.47,33.47,0,0,1-19.79-20.63.44.44,0,0,1,.83-.3,32.39,32.39,0,0,0,7.79,11.7A31.69,31.69,0,0,0,270.75,386a1.1,1.1,0,0,1-.7,2.08Z"/><path class="cls-8" d="M513.84,308.06a59.51,59.51,0,0,0-15.36-11,50.77,50.77,0,0,0-46.06,2.19c-.23-5-2.73-9.31-6.58-11-3.66-1.57-7.66-.34-8.77,0a15.17,15.17,0,0,0-4.39,2.2c1.37-3.9,7.17-21.7-2.19-37.29-2.08-3.46-6.72-11.19-15.35-13.16-9.21-2.1-17.54,3.58-21.94,6.58a42.17,42.17,0,0,0-11,11,24.28,24.28,0,0,0-6.58-13.16c-1.85-1.86-7.83-7.89-15.36-6.58a13.16,13.16,0,0,0-2.52.72,69.12,69.12,0,0,0-4.06,73.85c-11.86,2.89-21.51,2.4-28.51,2.19-6.24-.18-34.4-9.11-46.06-13.16a81.08,81.08,0,0,0-28.51-4.38c-10,.37-27.72,1-37.29,13.16-12,15.22-6.17,42.18,8.77,57,9.36,9.29,20.59,12.16,26.32,13.16-1.36,1.9-5.2,7.75-4.38,15.36.72,6.77,4.78,11.2,6.58,13.16,14,15.3,48.77,13.53,54.83,13.16,6.74-.41,32.46-2.4,65.8-17.55,7.51-3.41,12-6,52.64-30.71,15.93-9.71,29.41-17.95,39.48-24.12a31.67,31.67,0,0,1,24.13,17.54,22.63,22.63,0,0,0,4.38-19.74,19.76,19.76,0,0,1,8.78,4.39,20.46,20.46,0,0,1,6.58,13.16,21.15,21.15,0,0,0,6.58-8.77,21.76,21.76,0,0,0,0-15.36,17.17,17.17,0,0,1,8.77,15.36,33.51,33.51,0,0,0,6.58-17.55C530.1,324,519.1,313.28,513.84,308.06Z"/><path class="cls-9" d="M529.19,338a33.54,33.54,0,0,1-6.58,17.55,17.17,17.17,0,0,0-8.77-15.36,21.76,21.76,0,0,1,0,15.36,21.15,21.15,0,0,1-6.58,8.77,20.38,20.38,0,0,0-6.59-13.16,19.72,19.72,0,0,0-8.76-4.39,23,23,0,0,1,0,11,22.64,22.64,0,0,1-4.4,8.77,31.64,31.64,0,0,0-8.76-11,32,32,0,0,0-15.36-6.58,1.19,1.19,0,0,0-.15.09A85.84,85.84,0,0,0,462,321.59c-2-9.76-28.39-31.75-29.34-31.07,1.37-3.9,7.17-21.7-2.19-37.29-2.08-3.46-6.72-11.19-15.36-13.16-9.2-2.1-17.52,3.57-21.93,6.58a42.17,42.17,0,0,0-11,11,24.38,24.38,0,0,0-6.58-13.16c-1.85-1.86-7.83-7.89-15.36-6.58a12.5,12.5,0,0,0-2.52.73c.12-.25.22-.49.33-.73,1-2.14,24.21-49.07,68-48.25,33.81.63,54.48,29.25,57,32.89a61.72,61.72,0,0,1,17.54,0c9.34,1.37,13.78,4.3,21.94,6.58a72.22,72.22,0,0,0,26.32,2.2,385.72,385.72,0,0,0-50.71,64.86l.26.13a59.35,59.35,0,0,1,15.36,11C519.11,312.47,530.1,323.21,529.19,338Z"/><path class="cls-10" d="M471.33,316.32c-.72-4.08-2.85-16.06-13.77-23.49-8.38-5.71-23.93-3.81-24.88-3.12,1.37-3.9,7.17-21.7-2.19-37.29-2.08-3.46-6.72-11.19-15.35-13.16-9.21-2.1-17.54,3.58-21.94,6.58a42.17,42.17,0,0,0-11,11,24.28,24.28,0,0,0-6.58-13.16c-1.85-1.86-7.83-7.89-15.36-6.58a13.16,13.16,0,0,0-2.52.72,69.12,69.12,0,0,0-4.06,73.85c-11.86,2.89-21.51,2.4-28.51,2.19-6.24-.18-34.4-9.11-46.06-13.16a81.08,81.08,0,0,0-28.51-4.38c-10,.37-27.72,1-37.29,13.16-12,15.22-6.17,42.18,8.77,57,9.36,9.29,20.59,12.16,26.32,13.16-1.36,1.9-5.2,7.75-4.38,15.36.72,6.77,4.78,11.2,6.58,13.16,14,15.3,48.77,13.53,54.83,13.16,6.74-.41,32.46-2.4,65.8-17.55,7.51-3.41,12-6,52.64-30.71,15.86-9.66,29.28-17.87,39.33-24C465.29,346.2,474.33,333.16,471.33,316.32Z"/><path class="cls-11" d="M244.87,380.74,248,380a77,77,0,0,0,32.27,6.94c7.42.11,15.1-.1,23-.73,61.79-4.89,110.4-32.71,142.56-57"/><path d="M433.73,317.85a17.42,17.42,0,0,1,8.68,2.43,19,19,0,0,1,9.47,15.29,18.13,18.13,0,0,1-1.53,8.87.93.93,0,0,1-1.24.45,1,1,0,0,1-.55-.87v0a32.66,32.66,0,0,0-.67-7.85,22.11,22.11,0,0,0-2.79-6.92,23.76,23.76,0,0,0-2.22-3,28,28,0,0,0-2.74-2.58,31.33,31.33,0,0,0-6.77-4h0a.94.94,0,0,1,.38-1.8Z"/><path class="cls-11" d="M313.74,385.6l-1.62,26.74-9.72-25.93Z"/><path d="M266.72,387.45a35.51,35.51,0,0,1-13.51-11.57,39.88,39.88,0,0,1-6.51-16.22.82.82,0,0,1,1.6-.32,37.4,37.4,0,0,0,7.18,14.83,33.32,33.32,0,0,0,5.87,5.64,32.73,32.73,0,0,0,7,3.95,2,2,0,0,1-1.53,3.75l-.13-.06Z"/><path class="cls-5" d="M513.84,259.81a208.26,208.26,0,0,0-21.94,30.71,56,56,0,0,0-11-2.2,57,57,0,0,0-21.94,2.2,11.18,11.18,0,0,1,6.58-6.58,10.55,10.55,0,0,1,6.58,0,9.85,9.85,0,0,0-8.61-10.15c-.06-.16,8.2-4.76,13-9.59,1.82-1.84,3.89-5.05,4.39-11-.89.81-21.38,19.16-30.71,13.16A7.47,7.47,0,0,1,448,264.2a82.73,82.73,0,0,1,32.9-24.13c25.14-10,47.61-4.35,54.83-2.19A208.47,208.47,0,0,0,513.84,259.81Z"/><path d="M277,301.48a31.12,31.12,0,0,1-54.84,2.2,27.87,27.87,0,0,1,54.84-2.2Z"/><path d="M365.9,277.16l10.74,11c-2.26,9.57-6.95,16.13-12.39,16.13-7.63,0-13.82-12.9-13.82-28.85s6.19-28.84,13.82-28.84c6,0,11.17,8.12,13.05,19.43Z"/><path d="M417.62,287.49c-1.93,11.12-7,19-13,19-7.61,0-13.8-12.9-13.8-28.84s6.19-28.85,13.8-28.85c5.9,0,10.94,7.75,12.92,18.63l-10,9.69Z"/><circle cx="281.23" cy="360.9" r="3.12"/><circle cx="295.28" cy="371.84" r="3.12"/><circle cx="307.78" cy="362.46" r="3.12"/><path d="M311.66,310.27a41.43,41.43,0,0,0,8,12.58A42.42,42.42,0,0,0,331.89,332a.24.24,0,0,1-.19.44,43.75,43.75,0,0,1-13.59-7.93A44.69,44.69,0,0,1,308,312h0a2,2,0,0,1,3.56-1.95Z"/><path d="M332.21,313.6a45.23,45.23,0,0,0,12.92,13.9.34.34,0,0,1,.08.49.35.35,0,0,1-.44.12A47.85,47.85,0,0,1,328.92,316v0a2,2,0,1,1,3.1-2.64Z"/><path d="M347.74,311.71a10.87,10.87,0,0,0,6.07,7,.34.34,0,0,1,.18.46.34.34,0,0,1-.35.2,12.67,12.67,0,0,1-5.27-1.79,13.62,13.62,0,0,1-4.27-4.09l-.07-.1a2.06,2.06,0,0,1,3.43-2.3A2.21,2.21,0,0,1,347.74,311.71Z"/><path class="cls-12" d="M416.08,154c5.1-.07,10,.3,14.47.63a142.23,142.23,0,0,1,16.95,2c-1.85-7.25-7.82-12.64-14.8-13.39A16,16,0,0,0,416.08,154Z"/><path class="cls-13" d="M366.78,207.19c32.28,2.36,57,3.76,74.13,3.4,7.4-.16,24.73-2.44,37.31,8.1a32.24,32.24,0,0,1,4,4.05c7.29-17.33,6-36.56-3.93-49.47-10.89-14.1-30.53-18.55-33.7-19.14L444,154a147.68,147.68,0,0,0-16.84-1.68c-4.42-.24-9.32-.52-14.4-.37-11.38.35-23.68,2.86-33.39,12.68C363.7,180.44,366.3,203.47,366.78,207.19Z"/><path class="cls-6" d="M450.27,211a359.94,359.94,0,0,1-51.74,14.44q-8.08,1.62-15.84,2.8l-1.23,0-1.14,0-.92,0H379c-.17,0-.33,0-.49,0l-.78,0-.29,0h-.28l-.39,0-.84,0c-.31,0-.62,0-.92-.06C355.47,226.26,326.16,211,326.16,211a104.43,104.43,0,0,0-59-8.91h0s26-6.11,53.48-9.72c30.78-4.06,52.41-3.52,67.3-2.36l1.82.14A133.79,133.79,0,0,1,450.27,211Z"/><path class="cls-14" d="M421.94,191.73c-.18.15-4.52-4.69-13.55-15.16-1,8.68-1.62,12.41-1.85,12.39s-.13-3.8.4-12.52c-10.78,8.64-15.93,12.61-16.08,12.43s4.69-4.52,15.15-13.55c-16.05-1.78-23.71-2.75-23.68-3s7.72.26,23.82,1.54c-8.65-10.78-12.61-15.93-12.43-16.08s4.52,4.68,13.55,15.15c1-8.67,1.62-12.41,1.85-12.39s.13,3.81-.4,12.52c10.78-8.64,15.93-12.61,16.08-12.42s-4.69,4.52-15.15,13.54c17.54,1.76,26,2.73,26,3s-8.51-.25-26.11-1.52C418.16,186.43,422.12,191.58,421.94,191.73Z"/><path class="cls-15" d="M404.34,182a1.4,1.4,0,1,1,.28-2.79h.13l1.14-11.43h-.12a1.4,1.4,0,0,1-1.26-1.54A1.39,1.39,0,0,1,406,165l8.9.89a1.39,1.39,0,0,1,1.25,1.53l-.15,1.53a1.4,1.4,0,0,1-1.54,1.25h-.13a1.42,1.42,0,0,1-1.26-1.54v-.12l-3.28-.33-.42,4.19,1.77.18a1.41,1.41,0,0,1,2.79.4l-.26,2.55a1.41,1.41,0,0,1-2.81-.16l-1.77-.17-.45,4.44.25,0a1.41,1.41,0,0,1-.28,2.8Z"/><path class="cls-16" d="M408.75,181.53l-4.32-.43a.51.51,0,0,1-.45-.56h0a.5.5,0,0,1,.55-.45l.52,0a.5.5,0,0,0,.55-.45l1.22-12.21a.5.5,0,0,0-.45-.55l-.52-.05a.51.51,0,0,1-.45-.56h0a.51.51,0,0,1,.56-.45l8.89.89a.51.51,0,0,1,.45.55l-.15,1.53a.51.51,0,0,1-.56.45h-.13a.51.51,0,0,1-.45-.56l.05-.51a.52.52,0,0,0-.46-.56l-4.06-.4a.51.51,0,0,0-.56.45l-.49,5a.51.51,0,0,0,.45.56l2.54.25A.51.51,0,0,0,412,173l0-.27a.52.52,0,0,1,.56-.46h0a.49.49,0,0,1,.45.55l-.25,2.55a.52.52,0,0,1-.56.46h0a.51.51,0,0,1-.45-.56l0-.27a.5.5,0,0,0-.45-.55l-2.54-.26a.52.52,0,0,0-.56.46l-.52,5.21a.51.51,0,0,0,.46.56l.63.06a.51.51,0,0,1,.46.56h0A.51.51,0,0,1,408.75,181.53Z"/><path class="cls-17" d="M195,516.09a23.81,23.81,0,0,1-3.84,5.86,7,7,0,0,1-5.52,2.09,57.35,57.35,0,0,1-6.13-.77q-3.1-.39-6.23-.69a70.63,70.63,0,0,0-8.77-.64A12.55,12.55,0,0,1,165,526l.48,4.31q.06,5.22.13,10.46a11.45,11.45,0,0,0,2.93.4,9.44,9.44,0,0,0,2.35-.29c3.61-.92,4.32-3.44,8.11-4.88,2-.75,6-1.68,7.51,0,2,2.29-.49,9.39-5.31,11.8a12.05,12.05,0,0,1-5.72,1.26c-2.24-.07-4.08-1-6.16-1.59a6.07,6.07,0,0,0-2.88-.39c0,4.15.27,8.28.42,12.42.23,6.61.19,15.3-2.49,21.55-1.64,3.83-5.46,8.4-10,9.1-7.18,1.11-8.56-7.7-7.2-12.58s4.83-10.41,6.81-15.14c3.43-8.2,3.07-13.31,3-13.7-1,.77-3.86,2.86-4.45,3.12a2.87,2.87,0,0,1-3.68-.88,5,5,0,0,1-.6-5,7,7,0,0,1,4-3c.91-.33,3.15-.92,5.58-1.7q-.31-6.46-.62-12.93c-.07-1.63-.15-3.25-.24-4.88-.36.14-.69.28-1,.42a16.84,16.84,0,0,1-3,1.1,2.51,2.51,0,0,1-3.24-2c-.55-2.92,2.17-4.62,4.69-5.48,8.45-2.87,17-5.56,25.5-8.25,3.52-1.1,7-2.15,10.58-3.07a4.28,4.28,0,0,1,5.38,3.25A10.34,10.34,0,0,1,195,516.09Z"/><path class="cls-17" d="M371.44,491.43a5.75,5.75,0,0,0-4.21,1.82,6,6,0,0,0-1.67,4.77,5.29,5.29,0,0,0,5.42,4.73,6.18,6.18,0,0,0,5.93-6.53A5.07,5.07,0,0,0,371.44,491.43Z"/><path class="cls-17" d="M455.74,526.57a2.89,2.89,0,0,0-5.17-.67,19.89,19.89,0,0,1-5.49,6.31,8.1,8.1,0,0,1-4.55,1.29c-6.81-.23-6.76-8.88-6.44-13.64.58-.48,6.52-2.88,7-3a11.62,11.62,0,0,0,2.68-1.23,3.22,3.22,0,0,0,1.58-2.25,2.92,2.92,0,0,0-.91-2.39,18.74,18.74,0,0,0-3.55-3,4.64,4.64,0,0,0-5.63.24,13.42,13.42,0,0,0-1.71,1.46c-2.1,2.18-7,7.3-8.32,8.66.3-1.25,2.59-11.68,3.89-15.74l.33-1a6,6,0,0,1,5-4.42,19.28,19.28,0,0,0,3.09-.92l.19-.07a4.57,4.57,0,0,0,2.66-2.38,5.64,5.64,0,0,0,.06-4.72,5.82,5.82,0,0,0-3.41-3.15,9.8,9.8,0,0,0-8.68,1.22,14.52,14.52,0,0,0-5.53,6.78c-.46,1.19-4.16,14.66-7.36,26.42a2,2,0,0,0-.24.37,28.48,28.48,0,0,1-3.57,5.61,18.08,18.08,0,0,1-2.94,2.79,15.35,15.35,0,0,1-8.85,3.27,8,8,0,0,1-5.91-2.31,7.21,7.21,0,0,1-1.82-4.28,13.06,13.06,0,0,1,3.82-10.35,6.36,6.36,0,0,1,4.43-2.16s.08,2.72,1.17,4.1a5.71,5.71,0,0,0,4.84,2.1,4.23,4.23,0,0,0,3.43-1.9,5.08,5.08,0,0,0,.93-3c-.07-4.33-4-7.3-8.22-7.9a17.65,17.65,0,0,0-12.19,3.06,21.37,21.37,0,0,0-8.3,12.27,20.23,20.23,0,0,0-.64,5.27h0a15.73,15.73,0,0,1-3.73,4.27,6.49,6.49,0,0,1-4.45,1.39c-2.16-.25-2.8-2.1-2.79-3.89,0-1.18,2-10.87,3.34-18.61a2.41,2.41,0,0,0-2.53-2.75l-3.71.1a2.48,2.48,0,0,0-2.39,1.95c-1.18,6.11-2.46,12.92-3.12,15.79v0a19,19,0,0,1-4.61,6.4c-1.28,1.06-3.43,2.09-5.09,1.27-3.43-1.71-2.18-6.79-1.36-9.54.93-3.17,3.29-6.09,3.74-9.42.64-4.8-3.47-6.13-7.79-5.22-3,.63-6,1.59-8.93.06a6.55,6.55,0,0,0-8.68,2.8c-1.72,3.57,2.09,7.18.68,10.58-.26.64-.58,1.37-.92,2.11-7.19,14.38-20.57,12.89-22.36,8.71,4.13-.29,9-2.89,12.14-5.66,4.79-4.18,6.73-12.31.4-16.13-4.13-2.49-9.56-1.28-13.52,1a19.57,19.57,0,0,0-8.42,10.27,20.09,20.09,0,0,0-1.17,5.07,17.23,17.23,0,0,0,.07,3.86,17.13,17.13,0,0,1-3.76,5.52c-1.51,1.39-4.71,2.81-6.26.69a5,5,0,0,1-.8-2.55c-.26-3,1.35-21.05,2.3-27.58a5.88,5.88,0,0,1,4.16-5.35c4-1.23,7.6-4.43,5.14-8.62a5.86,5.86,0,0,0-.66-.91c-2.93-3.32-8.4-2.44-11.5.18a14.34,14.34,0,0,0-4.6,7.78c-.26.72-1.52,9.93-2.29,15.7,0,0,0,.09,0,.13,0,.36-.22,2.4-.26,2.77-1.12-3.54-5.77-5.13-9.17-4.1-7.74,2.34-12.4,10.35-13.56,18a25.19,25.19,0,0,1-2,4.28c-.69,1.15-4.15,6.57-10.07,8.24-4.56,1.29-8.42-.28-9.53-2.85a21.71,21.71,0,0,0,12.51-6.25c4.38-4.61,5.58-12.66-1.09-15.87-7.06-3.39-15.62,2-19.2,7.92-2.93,4.82-4.2,11-2.49,16.34a13.72,13.72,0,0,1-1.28,1.65c-1.12,1.22-3.11,2.53-4.87,1.94-3.63-1.22-2.89-6.46-2.46-9.3.5-3.26,2.05-6.4,2-9.76,0-4.84-4.46-5.56-8.61-4.08-3.33,1.2-4.27,2.38-7.7,1-3.27-1.27-7.47,2.41-7.13,5.57a7.07,7.07,0,0,0,1.2,2.6c.94,1.32-.56,4.91-.93,6.33-.47,1.78-1.2,4.19-1.81,5.93s-.32,3.13,1,3.77c1.09.53,3.46.22,3.79-.59a64.41,64.41,0,0,0,4.07-13.26c.27-1.75,1.22-3.92,3.65-4,5.22-.17,1.19,8.45.75,10.93-.86,4.88-.48,9.51,3.88,12.64,3,2.18,7.35,2,10.78.56a16.43,16.43,0,0,0,7.05-6.33,13.68,13.68,0,0,0,1.13,1c5.89,4.74,15.1,3.85,21-.63a34.28,34.28,0,0,0,7.36-7.61,11.4,11.4,0,0,0,7.67,6.6c5.77,1.3,10.65-2.66,13.68-7.06l.27-.4a7.65,7.65,0,0,0,7.12,5.26c6.19.08,10.75-4.26,13.94-9.21a13,13,0,0,0,2.07,2.5c6.56,6.13,17.16,4,23.83-.91a24.78,24.78,0,0,0,7.32-8.74,45.79,45.79,0,0,0,5.84-12.34c.5-1.69,1.36-3.68,3.76-3.43,5.2.55.23,8.53-.54,10.92-1.52,4.71-1.78,9.35,2.11,13,2.72,2.58,7,3,10.61,2a16.5,16.5,0,0,0,7.9-5.38,7.68,7.68,0,0,0,.9,1.52,9.74,9.74,0,0,0,6.9,3.53c5.81.67,10.38-2.78,13.83-7.08a11.2,11.2,0,0,0,.6,1c4.48,6.58,14.74,7.08,21.43,3.54a34.75,34.75,0,0,0,6.32-4.31c-.35,1.28-.6,2.25-.75,2.81a2.21,2.21,0,0,0,2.13,2.71l4.66.16a2.26,2.26,0,0,0,2.26-1.58l2.55-9.84c.46-.44,4.48-4.53,4.48-4.53-.15,4.2-.68,9.78,2.17,13.39,3.2,4,9.41,4.84,13.83,3.14,5.68-2.18,9.58-7.49,12.6-12.33A2.61,2.61,0,0,0,455.74,526.57Zm-224.8,10.31a7.25,7.25,0,0,1,.25-2,12.55,12.55,0,0,1,3.7-5.7c1.42-1.18,4-2.33,5.64-1.08a2,2,0,0,1,.8,1.51c.12,1.58-1.2,3.53-2.33,4.58A11.69,11.69,0,0,1,230.94,536.88Zm44.84-3.79a14.48,14.48,0,0,1-3.57,5.92c-1.23,1.12-2.93,2.12-4.67,1.66-5.4-1.42-3.36-9.91-1.77-13.3,1.08-2.31,3.28-5.39,6.36-5.19,2.68.18,3.93,2.78,4.22,5A13.54,13.54,0,0,1,275.78,533.09Zm29-6.71c.23-1.61,1-6.38,5.07-8.11a3.67,3.67,0,0,1,3.35-.12h0a2.81,2.81,0,0,1,.77,3.16C312.84,524.39,308,526.64,304.77,526.38Z"/><path class="cls-17" d="M539.39,511.27c-3.17,1.77-7.5,1.22-11,.94a29.59,29.59,0,0,0-9.42,1.14,23.5,23.5,0,0,0-5.15,1.95c2.25,2,2.47,5.29,3,8,.4,2,2.28,8.2,5.22,8.45a7,7,0,0,0,2.26-.32c4.33-1.06,8,2,8.72,6,1.53,8.34-7.66,14.07-15.46,11.65-11-3.41-9.76-16.16-8-24.53a9.38,9.38,0,0,0-.78-6.53c-12.24,2.81-14.15,13.62-16.37,18.85A50.27,50.27,0,0,1,490,542c-3.38,6.1-16,7.62-18.1-.48-1.54-5.91,2.32-8.94,6.22-12.61a69.33,69.33,0,0,0,11-13.45,81.84,81.84,0,0,0,8.17-15.55c1.21-3.35,2.55-7.92,7.13-7.87,2.7,0,5.12,2.13,4.6,4.85-.69,3.59-2.79,6.93-4.38,10.19-1.06,2.18-3.2,7.69-3.15,7.66,1.85-1.25,3.77-2.42,5.53-3.77,4.11-3.15,8.18-6.53,12.45-9.54,4-2.86,8.87-6.5,14.14-6.65,3.25-.1,5.43,2.18,6.63,4.87C541.73,503,543.52,509,539.39,511.27Z"/><path class="cls-17" d="M601.59,534.52l-3.51-1.21a2.48,2.48,0,0,0-2.92,1q-2.91,4.76-5.89,9.48c-1.09,1.73-2.14,3.49-3.33,5.16-1.46,2-3.52,5.17-6.37,5.45-1.39.14-3.25-.4-3.91-1.75-1.48-3,1.83-7,4-8.8,2.5-2,5.17-4.49,6.27-7.54a6.93,6.93,0,0,0-2-8.18,6.47,6.47,0,0,0-9.91,7.45c.66,1.45.53,2.31-.29,3.27a1.78,1.78,0,0,0-1.24.67,28.44,28.44,0,0,1-4.79,4.64c-1.08.8-6.35,4.48-12.46,3.74-4.71-.56-7.66-3.49-7.7-6.3a21.75,21.75,0,0,0,13.95-1c5.81-2.57,10-9.55,5.09-15.07-5.21-5.84-15.2-4.12-20.77-.07-6.08,4.43-10.36,12.29-7.94,19.71a13.68,13.68,0,0,0,1,2.33c3.62,6.64,12.46,9.36,19.64,7.5a34.32,34.32,0,0,0,5.88-2.1,7.64,7.64,0,0,0,1,2.9c1.54,2.64,5.53,4.43,8.57,4.48a10.71,10.71,0,0,0,6.49-1.73c-1.32,2.08-2.68,4.13-4.19,6.09a19.41,19.41,0,0,1-5.58,5.44,3.82,3.82,0,0,1-3.84.09c-2.07-1.15-3.36-3.29-5.52-4.38a3.45,3.45,0,0,0-3.3.18c-2.15,1.28-3.52,4.31-3.94,6.65-1,5.45,8.31,6.53,12,6.33,7.32-.38,13.52-4.49,17.66-10,.64-.87,1.25-1.77,1.83-2.69,5.83-9.24,11.63-18.51,17.14-27.94.08-.12.14-.24.2-.33a2.6,2.6,0,0,0,.19-.42A2.43,2.43,0,0,0,601.59,534.52Zm-52.81-1.32a12.56,12.56,0,0,1,5.61-3.84c1.77-.55,4.57-.63,5.62,1.17a2,2,0,0,1,.16,1.7c-.5,1.51-2.46,2.8-3.91,3.33a11.67,11.67,0,0,1-8.48-.62A7.42,7.42,0,0,1,548.78,533.2Z"/><path class="cls-17" d="M623.29,571c-2.79,4.82-8.69,8-18,2.6-7.68-4.44-7.48-11.12-4.73-12.32.78-.34,5.54-2.81,7.45,3.84.8,2.78,4.36,3,5.9.39,1.34-2.32-1.59-7.58-3.12-12.35a69.28,69.28,0,0,1-8.6,5.13c-.78.38-2.76-1-3.22-2.09q-.82-2,1.77-3.48c1.61-.89,3.76-2.2,5.3-3.21a47.84,47.84,0,0,0,4.9-3.89h0a3.86,3.86,0,0,1,.5-.49c3.56-2.89,6.83-4.92,10.7-2.69,7.23,4.19-2.2,8.11-2.29,8.27C617.92,554.05,628.06,562.69,623.29,571Z"/></svg>