<?xml version="1.0" encoding="UTF-8"?><svg id="a" xmlns="http://www.w3.org/2000/svg" xmlns:xlink="http://www.w3.org/1999/xlink" viewBox="0 0 202.06 118.84"><defs><style>.c{fill:url(#b);}.d{fill:#f47d30;stroke-width:.96px;}.d,.e{stroke:#000;stroke-miterlimit:10;}.e{fill:#fff;stroke-width:1.36px;}</style><radialGradient id="b" cx="101.03" cy="-89.42" fx="101.03" fy="-89.42" r="82.88" gradientTransform="translate(0 -30) scale(1 -1)" gradientUnits="userSpaceOnUse"><stop offset="0" stop-color="#f3de2c"/><stop offset=".53" stop-color="#f4aa2e"/><stop offset=".99" stop-color="#f47d30"/></radialGradient></defs><path class="c" d="M156.14,117.88c-.63,.64-18.75-15.92-56.6-51.85-.66,32.98-1.45,47.23-2.32,47.24s-1.92-14.23-3.17-47.2c-37.27,36.54-55.15,53.37-55.77,52.75s15.92-18.75,51.85-56.6C29.16,61.58,0,60.8,0,59.9s29.13-1.96,90.09-3.17C53.55,19.45,36.7,1.6,37.34,.96s18.75,15.92,56.6,51.85c.66-32.98,1.45-47.24,2.32-47.24s1.91,14.23,3.17,47.2C136.71,16.23,154.57-.61,155.2,.02c.63,.63-15.92,18.76-51.85,56.6,66.6,0,98.7,.47,98.71,1.37s-32.07,2.27-98.67,4.13c36.54,37.27,53.38,55.13,52.75,55.77Z"/><path class="e" d="M86.36,87.92c-2.93,0-5.31-2.38-5.31-5.31s2.38-5.31,5.31-5.31h.48V33.95h-.48c-2.93,0-5.31-2.38-5.31-5.31s2.38-5.31,5.31-5.31h33.74c2.93,0,5.31,2.38,5.31,5.31v5.78c0,2.93-2.38,5.31-5.31,5.31h-.51c-2.93,0-5.31-2.38-5.31-5.31v-.47h-12.47v15.92h6.71c.12-2.93,2.6-5.21,5.53-5.08,2.93,.12,5.21,2.6,5.08,5.53v9.69c.12,2.93-2.15,5.4-5.08,5.53s-5.4-2.15-5.53-5.08h-6.71v16.85h.94c2.93,0,5.31,2.38,5.31,5.31s-2.38,5.31-5.31,5.31l-16.4,.02Z"/><path class="d" d="M102.76,84.53h-16.4c-1.05,0-1.91-.85-1.91-1.91h0c0-1.06,.86-1.92,1.91-1.92h1.95c1.06,0,1.91-.86,1.91-1.91h0V32.47c0-1.06-.86-1.91-1.91-1.91h-1.95c-1.05,0-1.91-.86-1.91-1.91h0c0-1.06,.86-1.91,1.91-1.91h33.74c1.06,0,1.92,.84,1.93,1.9h0v5.79c0,1.06-.86,1.91-1.91,1.91h-.51c-1.06,0-1.91-.86-1.91-1.91v-1.95c0-1.05-.85-1.91-1.91-1.91h-15.45c-1.06,0-1.91,.86-1.91,1.91h0v18.86c0,1.05,.86,1.91,1.91,1.91h9.65c1.05,0,1.91-.85,1.91-1.91h0v-1.02c0-1.06,.86-1.91,1.91-1.91h.04c1.06,0,1.91,.86,1.91,1.91v9.68c0,1.06-.86,1.91-1.91,1.91h-.04c-1.06,0-1.91-.86-1.91-1.91v-1.01c0-1.06-.86-1.91-1.91-1.91h-9.64c-1.06,0-1.91,.86-1.91,1.91h0v19.8c0,1.06,.86,1.91,1.91,1.91h2.42c1.05,0,1.91,.85,1.91,1.91h0c0,1.06-.86,1.92-1.91,1.92h0Z"/></svg>