<?xml version="1.0" encoding="utf-8"?>
<!-- Generator: Adobe Illustrator 23.0.6, SVG Export Plug-In . SVG Version: 6.00 Build 0)  -->
<svg version="1.1" id="Layer_1" xmlns="http://www.w3.org/2000/svg" xmlns:xlink="http://www.w3.org/1999/xlink" x="0px" y="0px"
	 viewBox="0 0 750 1334" style="enable-background:new 0 0 750 1334;" xml:space="preserve">
<style type="text/css">
	.st0{fill:#FFE396;}
	.st1{fill:#F47D30;}
	.st2{fill:none;stroke:#F47D30;stroke-width:2;stroke-miterlimit:10;}
	.st3{fill:none;stroke:#F47D30;stroke-width:2;stroke-linecap:round;stroke-linejoin:round;stroke-miterlimit:10;}
	.st4{fill:#FFE396;stroke:#F47D30;stroke-width:2;stroke-linecap:round;stroke-linejoin:round;stroke-miterlimit:10;}
	.st5{fill:#FFE396;stroke:#F47D30;stroke-linecap:round;stroke-linejoin:round;stroke-miterlimit:10;}
	.st6{fill:none;stroke:#F47D30;stroke-width:0.4505;stroke-linecap:round;stroke-linejoin:round;stroke-miterlimit:10;}
	.st7{fill:none;stroke:#F47D30;stroke-width:1.5113;stroke-linecap:round;stroke-linejoin:round;stroke-miterlimit:10;}
	.st8{fill:none;stroke:#F47D30;stroke-width:0.7062;stroke-linecap:round;stroke-linejoin:round;stroke-miterlimit:10;}
	.st9{fill:#FFE396;stroke:#F47D30;stroke-width:1.1386;stroke-linecap:round;stroke-linejoin:round;stroke-miterlimit:10;}
	.st10{fill:none;stroke:#F47D30;stroke-width:0.532;stroke-linecap:round;stroke-linejoin:round;stroke-miterlimit:10;}
	.st11{fill:none;stroke:#F47D30;stroke-width:1.7905;stroke-linecap:round;stroke-linejoin:round;stroke-miterlimit:10;}
	.st12{fill:none;stroke:#F47D30;stroke-width:1.7905;stroke-miterlimit:10;}
	.st13{fill:none;stroke:#F47D30;stroke-width:0.8952;stroke-miterlimit:10;}
	.st14{fill:#FFE396;stroke:#F47D30;stroke-width:0.8952;stroke-miterlimit:10;}
	.st15{fill:none;stroke:#F47D30;stroke-width:2.4548;stroke-miterlimit:10;}
	.st16{fill:none;stroke:#F47D30;stroke-width:1.8163;stroke-miterlimit:10;}
	.st17{fill:none;stroke:#F47D30;stroke-width:0.75;stroke-linecap:round;stroke-linejoin:round;stroke-miterlimit:10;}
	.st18{fill:none;stroke:#F47D30;stroke-width:2.0522;stroke-miterlimit:10;}
	.st19{fill:none;stroke:#F47D30;stroke-width:2.025;stroke-miterlimit:10;}
	.st20{fill:none;stroke:#F47D30;stroke-width:2.0636;stroke-miterlimit:10;}
	.st21{fill:none;stroke:#F47D30;stroke-width:1.0125;stroke-miterlimit:10;}
	.st22{fill:#FFE396;stroke:#F47D30;stroke-width:2.4633;stroke-linecap:round;stroke-linejoin:round;stroke-miterlimit:10;}
</style>
<rect x="1" class="st0" width="749" height="1334"/>
<path class="st1" d="M197.44,140.98c-0.46,0.47-13.86-11.76-41.82-38.31c-0.49,24.37-1.07,34.9-1.72,34.91
	c-0.64,0.01-1.42-10.52-2.34-34.88c-27.54,27-40.74,39.44-41.21,38.98c-0.47-0.46,11.76-13.86,38.31-41.82
	c-45.06-0.47-66.6-1.05-66.6-1.72c0-0.67,21.53-1.44,66.57-2.34c-27-27.54-39.44-40.74-38.98-41.21
	c0.46-0.47,13.86,11.76,41.82,38.31c0.49-24.37,1.07-34.9,1.72-34.91c0.64-0.01,1.42,10.52,2.34,34.88
	c27.54-27,40.74-39.44,41.21-38.98s-11.76,13.86-38.31,41.82c49.21,0,72.93,0.34,72.94,1.01c0.01,0.67-23.7,1.68-72.91,3.05
	C185.47,127.32,197.91,140.51,197.44,140.98z"/>
<path class="st2" d="M210.26,917.23c-0.06-0.06-0.12-0.13-0.18-0.2c-6.19-6.76-11.22-12.78-15.03-17.55
	c-2.01-2.51-3.52-4.51-5.38-7.07l-4.14,3.25c0.01,0.01,0.01,0.01,0.01,0.01c5.29,5.34,12.76,13.48,20.76,24.5
	c0.05,0.07,0.11,0.15,0.16,0.22C207.72,919.34,208.99,918.29,210.26,917.23z"/>
<path class="st3" d="M134.83,820.26c-2.73-2.36-6.8-2.35-9.51,0c-2.73,2.38-3.29,6.47-1.27,9.51
	c19.67,22.35,40.02,44.19,61.08,65.51c0.06,0.06,0.33,0.33,0.39,0.39l4.14-3.25C187.31,889.19,136.89,822.5,134.83,820.26z"/>
<path class="st3" d="M213.86,920.12l-5.66,4.63c-0.33,0.27-0.82,0.22-1.1-0.11l-1.82-2.23c-0.27-0.33-0.22-0.82,0.11-1.1l5.66-4.63
	c0.33-0.27,0.82-0.22,1.1,0.11l1.82,2.23C214.24,919.36,214.19,919.85,213.86,920.12z"/>
<path class="st2" d="M426.26,517.23c-0.06-0.06-0.12-0.13-0.18-0.2c-6.19-6.76-11.22-12.78-15.03-17.55
	c-2.01-2.51-3.52-4.51-5.38-7.07l-4.14,3.25c0.01,0.01,0.01,0.01,0.01,0.01c5.29,5.34,12.76,13.48,20.76,24.5
	c0.05,0.07,0.11,0.15,0.16,0.22C423.72,519.34,424.99,518.29,426.26,517.23z"/>
<path class="st3" d="M350.83,420.26c-2.73-2.36-6.8-2.35-9.51,0c-2.73,2.38-3.29,6.47-1.27,9.51
	c19.67,22.35,40.02,44.19,61.08,65.51c0.06,0.06,0.33,0.33,0.39,0.39l4.14-3.25C403.31,489.19,352.89,422.5,350.83,420.26z"/>
<path class="st3" d="M429.86,520.12l-5.66,4.63c-0.33,0.27-0.82,0.22-1.1-0.11l-1.82-2.23c-0.27-0.33-0.22-0.82,0.11-1.1l5.66-4.63
	c0.33-0.27,0.82-0.22,1.1,0.11l1.82,2.23C430.24,519.36,430.19,519.85,429.86,520.12z"/>
<path class="st2" d="M111.73,317.23c0.06-0.06,0.12-0.13,0.18-0.2c6.19-6.76,11.22-12.78,15.03-17.55c2.01-2.51,3.52-4.51,5.38-7.07
	l4.14,3.25c-0.01,0.01-0.01,0.01-0.01,0.01c-5.29,5.34-12.76,13.48-20.76,24.5c-0.05,0.07-0.11,0.15-0.16,0.22
	C114.27,319.34,113,318.29,111.73,317.23z"/>
<path class="st3" d="M187.15,220.26c2.73-2.36,6.8-2.35,9.51,0c2.73,2.38,3.29,6.47,1.27,9.51c-19.67,22.35-40.02,44.19-61.08,65.51
	c-0.06,0.06-0.33,0.33-0.39,0.39l-4.14-3.25C134.68,289.19,185.1,222.5,187.15,220.26z"/>
<path class="st3" d="M108.13,320.12l5.66,4.63c0.33,0.27,0.82,0.22,1.1-0.11l1.82-2.23c0.27-0.33,0.22-0.82-0.11-1.1l-5.66-4.63
	c-0.33-0.27-0.82-0.22-1.1,0.11l-1.82,2.23C107.75,319.36,107.8,319.85,108.13,320.12z"/>
<path class="st2" d="M552.73,1097.23c0.06-0.06,0.12-0.13,0.18-0.2c6.19-6.76,11.22-12.78,15.03-17.55
	c2.01-2.51,3.52-4.51,5.38-7.07l4.14,3.25c-0.01,0.01-0.01,0.01-0.01,0.01c-5.29,5.34-12.76,13.48-20.76,24.5
	c-0.05,0.07-0.11,0.15-0.16,0.22C555.27,1099.34,554,1098.29,552.73,1097.23z"/>
<path class="st3" d="M628.16,1000.26c2.73-2.36,6.8-2.35,9.51,0c2.73,2.38,3.29,6.47,1.27,9.51
	c-19.67,22.35-40.02,44.19-61.08,65.51c-0.06,0.06-0.33,0.33-0.39,0.39l-4.14-3.25C575.68,1069.19,626.1,1002.5,628.16,1000.26z"/>
<path class="st3" d="M549.13,1100.12l5.66,4.63c0.33,0.27,0.82,0.22,1.1-0.11l1.82-2.23c0.27-0.33,0.22-0.82-0.11-1.1l-5.66-4.63
	c-0.33-0.27-0.82-0.22-1.1,0.11l-1.82,2.23C548.75,1099.36,548.8,1099.85,549.13,1100.12z"/>
<path class="st2" d="M199.26,713.23c-0.06-0.06-0.12-0.13-0.18-0.2c-6.19-6.76-11.22-12.78-15.03-17.55
	c-2.01-2.51-3.52-4.51-5.38-7.07l-4.14,3.25c0.01,0.01,0.01,0.01,0.01,0.01c5.29,5.34,12.76,13.48,20.76,24.5
	c0.05,0.07,0.11,0.15,0.16,0.22C196.72,715.34,197.99,714.29,199.26,713.23z"/>
<path class="st4" d="M123.83,616.26c-2.73-2.36-6.8-2.35-9.51,0c-2.73,2.38-3.29,6.47-1.27,9.51
	c19.67,22.35,40.02,44.19,61.08,65.51c0.06,0.06,0.33,0.33,0.39,0.39l4.14-3.25C176.31,685.19,125.89,618.5,123.83,616.26z"/>
<path class="st3" d="M202.86,716.12l-5.66,4.63c-0.33,0.27-0.82,0.22-1.1-0.11l-1.82-2.23c-0.27-0.33-0.22-0.82,0.11-1.1l5.66-4.63
	c0.33-0.27,0.82-0.22,1.1,0.11l1.82,2.23C203.24,715.36,203.19,715.85,202.86,716.12z"/>
<path class="st2" d="M117.73,711.23c0.06-0.06,0.12-0.13,0.18-0.2c6.19-6.76,11.22-12.78,15.03-17.55c2.01-2.51,3.52-4.51,5.38-7.07
	l4.14,3.25c-0.01,0.01-0.01,0.01-0.01,0.01c-5.29,5.34-12.76,13.48-20.76,24.5c-0.05,0.07-0.11,0.15-0.16,0.22
	C120.27,713.34,119,712.29,117.73,711.23z"/>
<path class="st4" d="M193.15,614.26c2.73-2.36,6.8-2.35,9.51,0c2.73,2.38,3.29,6.47,1.27,9.51c-19.67,22.35-40.02,44.19-61.08,65.51
	c-0.06,0.06-0.33,0.33-0.39,0.39l-4.14-3.25C140.68,683.19,191.1,616.5,193.15,614.26z"/>
<path class="st3" d="M114.13,714.12l5.66,4.63c0.33,0.27,0.82,0.22,1.1-0.11l1.82-2.23c0.27-0.33,0.22-0.82-0.11-1.1l-5.66-4.63
	c-0.33-0.27-0.82-0.22-1.1,0.11l-1.82,2.23C113.75,713.36,113.8,713.85,114.13,714.12z"/>
<path class="st5" d="M145.91,653.83c2.99-2.85,6.9-4.36,10.86-4.51c0.72-0.03,1.45-0.01,2.16,0.06c3.6,0.32,7.11,1.8,9.92,4.45
	c3.61,3.41,5.33,8.08,5.18,12.7c0.01,0.04,0,0.09-0.01,0.13c-0.14,3.63-1.45,7.22-3.9,10.1c-6.05,7.1-17.27,7.87-24.21,1.27
	C138.99,671.46,139.16,660.24,145.91,653.83z"/>
<path class="st6" d="M159.93,664.02c0.21-0.64,0.42-1.27,0.64-1.91c0.64-0.21,1.27-0.42,1.91-0.64"/>
<path class="st6" d="M158.42,662.48c0.3-0.6,0.61-1.2,0.91-1.8c0.66-0.12,1.32-0.23,1.98-0.35"/>
<path class="st6" d="M157.16,660.73c0.39-0.55,0.78-1.09,1.17-1.64c0.67-0.02,1.34-0.03,2.01-0.05"/>
<path class="st6" d="M156.18,658.81c0.47-0.48,0.93-0.96,1.4-1.45c0.67,0.08,1.33,0.17,2,0.25"/>
<path class="st6" d="M155.49,656.77c0.53-0.41,1.07-0.81,1.6-1.22c0.65,0.18,1.29,0.37,1.94,0.55"/>
<path class="st6" d="M155.12,654.65c0.59-0.32,1.18-0.65,1.77-0.97c0.61,0.28,1.22,0.55,1.84,0.83"/>
<path class="st6" d="M155.06,652.49c0.63-0.23,1.26-0.46,1.89-0.7c0.56,0.37,1.13,0.73,1.69,1.09"/>
<path class="st6" d="M155.32,650.36c0.66-0.14,1.32-0.27,1.97-0.41c0.5,0.44,1.01,0.89,1.51,1.33"/>
<path class="st6" d="M174.2,666.85c-0.45-0.5-0.9-1-1.35-1.5c0.13-0.66,0.26-1.32,0.39-1.98"/>
<path class="st6" d="M172.11,667.4c-0.37-0.56-0.74-1.12-1.11-1.68c0.23-0.63,0.45-1.26,0.68-1.9"/>
<path class="st6" d="M169.97,667.63c-0.28-0.61-0.57-1.22-0.85-1.83c0.32-0.59,0.63-1.18,0.95-1.78"/>
<path class="st6" d="M167.82,667.54c-0.19-0.64-0.38-1.29-0.57-1.93c0.4-0.54,0.8-1.08,1.21-1.61"/>
<path class="st6" d="M165.7,667.13c-0.09-0.67-0.18-1.33-0.27-2c0.48-0.47,0.96-0.94,1.43-1.42"/>
<path class="st6" d="M163.67,666.41c0.01-0.67,0.02-1.34,0.03-2.01c0.54-0.4,1.09-0.79,1.63-1.19"/>
<path class="st6" d="M161.76,665.4c0.11-0.66,0.22-1.33,0.33-1.99c0.6-0.31,1.19-0.62,1.79-0.93"/>
<path class="st6" d="M160.03,664.12c0.21-0.64,0.41-1.28,0.62-1.92c0.64-0.22,1.27-0.44,1.9-0.66"/>
<path class="st6" d="M155.44,668.51c-0.64,0.21-1.27,0.42-1.91,0.64c-0.21,0.64-0.42,1.27-0.64,1.91"/>
<path class="st6" d="M153.9,667.01c-0.6,0.3-1.2,0.61-1.8,0.91c-0.12,0.66-0.23,1.32-0.35,1.98"/>
<path class="st6" d="M152.15,665.75c-0.55,0.39-1.09,0.78-1.64,1.17c-0.02,0.67-0.03,1.34-0.05,2.01"/>
<path class="st6" d="M150.23,664.76c-0.48,0.47-0.96,0.93-1.45,1.4c0.08,0.67,0.17,1.33,0.25,2"/>
<path class="st6" d="M148.19,664.08c-0.41,0.53-0.81,1.07-1.22,1.6c0.18,0.65,0.37,1.29,0.55,1.94"/>
<path class="st6" d="M146.07,663.7c-0.32,0.59-0.65,1.18-0.97,1.77c0.28,0.61,0.55,1.22,0.83,1.84"/>
<path class="st6" d="M143.91,663.64c-0.23,0.63-0.46,1.26-0.7,1.89c0.37,0.56,0.73,1.13,1.09,1.69"/>
<path class="st6" d="M141.77,663.91c-0.14,0.66-0.27,1.32-0.41,1.97c0.44,0.5,0.89,1.01,1.33,1.51"/>
<path class="st6" d="M158.26,682.78c-0.5-0.45-1-0.9-1.5-1.35c-0.66,0.13-1.32,0.26-1.98,0.39"/>
<path class="st6" d="M158.81,680.7c-0.56-0.37-1.12-0.74-1.68-1.11c-0.63,0.23-1.26,0.45-1.9,0.68"/>
<path class="st6" d="M159.05,678.55c-0.61-0.28-1.22-0.57-1.83-0.85c-0.59,0.32-1.18,0.64-1.78,0.95"/>
<path class="st6" d="M158.96,676.4c-0.64-0.19-1.29-0.38-1.93-0.57c-0.54,0.4-1.08,0.8-1.61,1.21"/>
<path class="st6" d="M158.55,674.28c-0.67-0.09-1.33-0.18-2-0.27c-0.47,0.48-0.94,0.96-1.42,1.43"/>
<path class="st6" d="M157.83,672.25c-0.67,0.01-1.34,0.02-2.01,0.03c-0.4,0.54-0.79,1.08-1.19,1.63"/>
<path class="st6" d="M156.82,670.35c-0.66,0.11-1.33,0.22-1.99,0.33c-0.31,0.6-0.62,1.19-0.93,1.79"/>
<path class="st6" d="M155.53,668.62c-0.64,0.21-1.28,0.41-1.92,0.62c-0.22,0.64-0.44,1.27-0.66,1.9"/>
<path class="st6" d="M156.74,682.5c1.55-4.7,0.31-9.88-3.19-13.38c-3.37-3.37-8.31-4.64-12.86-3.34"/>
<path class="st6" d="M173.94,664.66c-4.59,1.87-9.85,0.86-13.38-2.55c-3.38-3.27-4.62-8.22-3.19-12.74"/>
<path class="st2" d="M640.26,509.23c-0.06-0.06-0.12-0.13-0.18-0.2c-6.19-6.76-11.22-12.78-15.03-17.55
	c-2.01-2.51-3.52-4.51-5.38-7.07l-4.14,3.25c0.01,0.01,0.01,0.01,0.01,0.01c5.29,5.34,12.76,13.48,20.76,24.5
	c0.05,0.07,0.11,0.15,0.16,0.22C637.72,511.34,638.99,510.29,640.26,509.23z"/>
<path class="st4" d="M564.83,412.26c-2.73-2.36-6.8-2.35-9.51,0c-2.73,2.38-3.29,6.47-1.27,9.51
	c19.67,22.35,40.02,44.19,61.08,65.51c0.06,0.06,0.33,0.33,0.39,0.39l4.14-3.25C617.31,481.19,566.89,414.5,564.83,412.26z"/>
<path class="st3" d="M643.86,512.12l-5.66,4.63c-0.33,0.27-0.82,0.22-1.1-0.11l-1.82-2.23c-0.27-0.33-0.22-0.82,0.11-1.1l5.66-4.63
	c0.33-0.27,0.82-0.22,1.1,0.11l1.82,2.23C644.24,511.36,644.19,511.85,643.86,512.12z"/>
<path class="st2" d="M558.73,507.23c0.06-0.06,0.12-0.13,0.18-0.2c6.19-6.76,11.22-12.78,15.03-17.55c2.01-2.51,3.52-4.51,5.38-7.07
	l4.14,3.25c-0.01,0.01-0.01,0.01-0.01,0.01c-5.29,5.34-12.76,13.48-20.76,24.5c-0.05,0.07-0.11,0.15-0.16,0.22
	C561.27,509.34,560,508.29,558.73,507.23z"/>
<path class="st4" d="M634.16,410.26c2.73-2.36,6.8-2.35,9.51,0c2.73,2.38,3.29,6.47,1.27,9.51c-19.67,22.35-40.02,44.19-61.08,65.51
	c-0.06,0.06-0.33,0.33-0.39,0.39l-4.14-3.25C581.68,479.19,632.1,412.5,634.16,410.26z"/>
<path class="st3" d="M555.13,510.12l5.66,4.63c0.33,0.27,0.82,0.22,1.1-0.11l1.82-2.23c0.27-0.33,0.22-0.82-0.11-1.1l-5.66-4.63
	c-0.33-0.27-0.82-0.22-1.1,0.11l-1.82,2.23C554.75,509.36,554.8,509.85,555.13,510.12z"/>
<path class="st5" d="M586.91,449.83c2.99-2.85,6.9-4.36,10.86-4.51c0.72-0.03,1.45-0.01,2.16,0.06c3.6,0.32,7.11,1.8,9.92,4.45
	c3.61,3.41,5.33,8.08,5.18,12.7c0.01,0.04,0,0.09-0.01,0.13c-0.14,3.63-1.45,7.22-3.9,10.1c-6.05,7.1-17.27,7.87-24.21,1.27
	C579.99,467.46,580.16,456.24,586.91,449.83z"/>
<path class="st6" d="M600.93,460.02c0.21-0.64,0.42-1.27,0.64-1.91c0.64-0.21,1.27-0.42,1.91-0.64"/>
<path class="st6" d="M599.42,458.48c0.3-0.6,0.61-1.2,0.91-1.8c0.66-0.12,1.32-0.23,1.98-0.35"/>
<path class="st6" d="M598.16,456.73c0.39-0.55,0.78-1.09,1.17-1.64c0.67-0.02,1.34-0.03,2.01-0.05"/>
<path class="st6" d="M597.18,454.81c0.47-0.48,0.93-0.96,1.4-1.45c0.67,0.08,1.33,0.17,2,0.25"/>
<path class="st6" d="M596.49,452.77c0.53-0.41,1.07-0.81,1.6-1.22c0.65,0.18,1.29,0.37,1.94,0.55"/>
<path class="st6" d="M596.12,450.65c0.59-0.32,1.18-0.65,1.77-0.97c0.61,0.28,1.22,0.55,1.84,0.83"/>
<path class="st6" d="M596.06,448.49c0.63-0.23,1.26-0.46,1.89-0.7c0.56,0.37,1.13,0.73,1.69,1.09"/>
<path class="st6" d="M596.32,446.36c0.66-0.14,1.32-0.27,1.97-0.41c0.5,0.44,1.01,0.89,1.51,1.33"/>
<path class="st6" d="M615.2,462.85c-0.45-0.5-0.9-1-1.35-1.5c0.13-0.66,0.26-1.32,0.39-1.98"/>
<path class="st6" d="M613.11,463.4c-0.37-0.56-0.74-1.12-1.11-1.68c0.23-0.63,0.45-1.26,0.68-1.9"/>
<path class="st6" d="M610.97,463.63c-0.28-0.61-0.57-1.22-0.85-1.83c0.32-0.59,0.64-1.18,0.95-1.78"/>
<path class="st6" d="M608.82,463.54c-0.19-0.64-0.38-1.29-0.57-1.93c0.4-0.54,0.8-1.08,1.21-1.61"/>
<path class="st6" d="M606.7,463.13c-0.09-0.67-0.18-1.33-0.27-2c0.48-0.47,0.96-0.94,1.43-1.42"/>
<path class="st6" d="M604.67,462.41c0.01-0.67,0.02-1.34,0.03-2.01c0.54-0.4,1.09-0.79,1.63-1.19"/>
<path class="st6" d="M602.76,461.4c0.11-0.66,0.22-1.33,0.33-1.99c0.6-0.31,1.19-0.62,1.79-0.93"/>
<path class="st6" d="M601.03,460.12c0.21-0.64,0.41-1.28,0.62-1.92c0.64-0.22,1.27-0.44,1.9-0.66"/>
<path class="st6" d="M596.44,464.51c-0.64,0.21-1.27,0.42-1.91,0.64c-0.21,0.64-0.42,1.27-0.64,1.91"/>
<path class="st6" d="M594.9,463.01c-0.6,0.3-1.2,0.61-1.8,0.91c-0.12,0.66-0.23,1.32-0.35,1.98"/>
<path class="st6" d="M593.15,461.75c-0.55,0.39-1.09,0.78-1.64,1.17c-0.02,0.67-0.03,1.34-0.05,2.01"/>
<path class="st6" d="M591.23,460.76c-0.48,0.47-0.96,0.93-1.45,1.4c0.08,0.67,0.17,1.33,0.25,2"/>
<path class="st6" d="M589.19,460.08c-0.41,0.53-0.81,1.07-1.22,1.6c0.18,0.65,0.37,1.29,0.55,1.94"/>
<path class="st6" d="M587.07,459.7c-0.32,0.59-0.65,1.18-0.97,1.77c0.28,0.61,0.55,1.22,0.83,1.84"/>
<path class="st6" d="M584.91,459.64c-0.23,0.63-0.46,1.26-0.7,1.89c0.37,0.56,0.73,1.13,1.09,1.69"/>
<path class="st6" d="M582.77,459.91c-0.14,0.66-0.27,1.32-0.41,1.97c0.44,0.5,0.89,1.01,1.33,1.51"/>
<path class="st6" d="M599.26,478.78c-0.5-0.45-1-0.9-1.5-1.35c-0.66,0.13-1.32,0.26-1.98,0.39"/>
<path class="st6" d="M599.81,476.7c-0.56-0.37-1.12-0.74-1.68-1.11c-0.63,0.23-1.26,0.45-1.9,0.68"/>
<path class="st6" d="M600.05,474.55c-0.61-0.28-1.22-0.57-1.83-0.85c-0.59,0.32-1.18,0.63-1.78,0.95"/>
<path class="st6" d="M599.96,472.4c-0.64-0.19-1.29-0.38-1.93-0.57c-0.54,0.4-1.08,0.8-1.61,1.21"/>
<path class="st6" d="M599.55,470.28c-0.67-0.09-1.33-0.18-2-0.27c-0.47,0.48-0.94,0.96-1.42,1.43"/>
<path class="st6" d="M598.83,468.25c-0.67,0.01-1.34,0.02-2.01,0.03c-0.4,0.54-0.79,1.09-1.19,1.63"/>
<path class="st6" d="M597.82,466.35c-0.66,0.11-1.33,0.22-1.99,0.33c-0.31,0.6-0.62,1.19-0.93,1.79"/>
<path class="st6" d="M596.53,464.62c-0.64,0.21-1.28,0.41-1.92,0.62c-0.22,0.64-0.44,1.27-0.66,1.9"/>
<path class="st6" d="M597.74,478.5c1.55-4.7,0.31-9.88-3.19-13.38c-3.37-3.37-8.31-4.64-12.86-3.34"/>
<path class="st6" d="M614.94,460.66c-4.59,1.87-9.85,0.86-13.38-2.55c-3.38-3.27-4.62-8.22-3.19-12.74"/>
<path class="st2" d="M429.26,1280.23c-0.06-0.06-0.12-0.13-0.18-0.2c-6.19-6.76-11.22-12.78-15.03-17.55
	c-2.01-2.51-3.52-4.51-5.38-7.07l-4.14,3.25c0.01,0.01,0.01,0.01,0.01,0.01c5.29,5.34,12.76,13.48,20.76,24.5
	c0.05,0.07,0.11,0.15,0.16,0.22C426.72,1282.34,427.99,1281.29,429.26,1280.23z"/>
<path class="st4" d="M353.83,1183.26c-2.73-2.35-6.8-2.35-9.51,0c-2.73,2.38-3.29,6.47-1.27,9.51
	c19.67,22.35,40.02,44.19,61.08,65.51c0.06,0.06,0.33,0.33,0.39,0.39l4.14-3.25C406.31,1252.19,355.89,1185.5,353.83,1183.26z"/>
<path class="st3" d="M432.86,1283.12l-5.66,4.63c-0.33,0.27-0.82,0.22-1.1-0.11l-1.82-2.23c-0.27-0.33-0.22-0.82,0.11-1.1l5.66-4.63
	c0.33-0.27,0.82-0.22,1.1,0.11l1.82,2.23C433.24,1282.36,433.19,1282.85,432.86,1283.12z"/>
<path class="st2" d="M347.73,1278.23c0.06-0.06,0.12-0.13,0.18-0.2c6.19-6.76,11.22-12.78,15.03-17.55
	c2.01-2.51,3.52-4.51,5.38-7.07l4.14,3.25c-0.01,0.01-0.01,0.01-0.01,0.01c-5.29,5.34-12.76,13.48-20.76,24.5
	c-0.05,0.07-0.11,0.15-0.16,0.22C350.27,1280.34,349,1279.29,347.73,1278.23z"/>
<path class="st4" d="M423.15,1181.26c2.73-2.35,6.8-2.35,9.51,0c2.73,2.38,3.29,6.47,1.27,9.51
	c-19.67,22.35-40.02,44.19-61.08,65.51c-0.06,0.06-0.33,0.33-0.39,0.39l-4.14-3.25C370.68,1250.19,421.1,1183.5,423.15,1181.26z"/>
<path class="st3" d="M344.13,1281.12l5.66,4.63c0.33,0.27,0.82,0.22,1.1-0.11l1.82-2.23c0.27-0.33,0.22-0.82-0.11-1.1l-5.66-4.63
	c-0.33-0.27-0.82-0.22-1.1,0.11l-1.82,2.23C343.75,1280.36,343.8,1280.85,344.13,1281.12z"/>
<path class="st5" d="M375.91,1220.83c2.99-2.85,6.9-4.36,10.86-4.51c0.72-0.03,1.45-0.01,2.16,0.06c3.6,0.32,7.11,1.8,9.92,4.45
	c3.61,3.41,5.33,8.08,5.18,12.7c0.01,0.04,0,0.09-0.01,0.13c-0.14,3.63-1.45,7.22-3.9,10.1c-6.05,7.1-17.27,7.87-24.21,1.27
	C368.99,1238.46,369.16,1227.24,375.91,1220.83z"/>
<path class="st6" d="M389.93,1231.02c0.21-0.64,0.42-1.27,0.64-1.91c0.64-0.21,1.27-0.42,1.91-0.64"/>
<path class="st6" d="M388.42,1229.48c0.3-0.6,0.61-1.2,0.91-1.8c0.66-0.11,1.32-0.23,1.98-0.35"/>
<path class="st6" d="M387.16,1227.73c0.39-0.55,0.78-1.09,1.17-1.64c0.67-0.02,1.34-0.03,2.01-0.05"/>
<path class="st6" d="M386.18,1225.81c0.47-0.48,0.93-0.96,1.4-1.45c0.67,0.08,1.33,0.17,2,0.25"/>
<path class="st6" d="M385.49,1223.77c0.53-0.41,1.07-0.81,1.6-1.22c0.65,0.18,1.29,0.37,1.94,0.55"/>
<path class="st6" d="M385.12,1221.65c0.59-0.32,1.18-0.65,1.77-0.97c0.61,0.28,1.22,0.55,1.84,0.83"/>
<path class="st6" d="M385.06,1219.49c0.63-0.23,1.26-0.46,1.89-0.7c0.56,0.36,1.13,0.73,1.69,1.09"/>
<path class="st6" d="M385.32,1217.36c0.66-0.14,1.32-0.27,1.97-0.41c0.5,0.44,1.01,0.89,1.51,1.33"/>
<path class="st6" d="M404.2,1233.85c-0.45-0.5-0.9-1-1.35-1.5c0.13-0.66,0.26-1.32,0.39-1.98"/>
<path class="st6" d="M402.11,1234.4c-0.37-0.56-0.74-1.12-1.11-1.68c0.23-0.63,0.45-1.26,0.68-1.9"/>
<path class="st6" d="M399.97,1234.63c-0.28-0.61-0.57-1.22-0.85-1.83c0.32-0.59,0.63-1.18,0.95-1.78"/>
<path class="st6" d="M397.82,1234.54c-0.19-0.64-0.38-1.29-0.57-1.93c0.4-0.54,0.8-1.08,1.21-1.61"/>
<path class="st6" d="M395.7,1234.13c-0.09-0.67-0.18-1.33-0.27-2c0.48-0.47,0.96-0.94,1.43-1.42"/>
<path class="st6" d="M393.67,1233.41c0.01-0.67,0.02-1.34,0.03-2.01c0.54-0.4,1.09-0.79,1.63-1.19"/>
<path class="st6" d="M391.76,1232.4c0.11-0.66,0.22-1.33,0.33-1.99c0.6-0.31,1.19-0.62,1.79-0.93"/>
<path class="st6" d="M390.03,1231.12c0.21-0.64,0.41-1.28,0.62-1.92c0.64-0.22,1.27-0.44,1.9-0.66"/>
<path class="st6" d="M385.44,1235.51c-0.64,0.21-1.27,0.42-1.91,0.64c-0.21,0.64-0.42,1.27-0.64,1.91"/>
<path class="st6" d="M383.9,1234.01c-0.6,0.3-1.2,0.61-1.8,0.91c-0.12,0.66-0.23,1.32-0.35,1.98"/>
<path class="st6" d="M382.15,1232.75c-0.55,0.39-1.09,0.78-1.64,1.17c-0.02,0.67-0.03,1.34-0.05,2.01"/>
<path class="st6" d="M380.23,1231.76c-0.48,0.47-0.96,0.93-1.45,1.4c0.08,0.67,0.17,1.33,0.25,2"/>
<path class="st6" d="M378.19,1231.08c-0.41,0.53-0.81,1.07-1.22,1.6c0.18,0.65,0.37,1.29,0.55,1.94"/>
<path class="st6" d="M376.07,1230.7c-0.32,0.59-0.65,1.18-0.97,1.77c0.28,0.61,0.55,1.22,0.83,1.84"/>
<path class="st6" d="M373.91,1230.64c-0.23,0.63-0.46,1.26-0.7,1.89c0.37,0.56,0.73,1.13,1.09,1.69"/>
<path class="st6" d="M371.77,1230.91c-0.14,0.66-0.27,1.32-0.41,1.97c0.44,0.5,0.89,1.01,1.33,1.51"/>
<path class="st6" d="M388.26,1249.78c-0.5-0.45-1-0.9-1.5-1.35c-0.66,0.13-1.32,0.26-1.98,0.39"/>
<path class="st6" d="M388.81,1247.7c-0.56-0.37-1.12-0.74-1.68-1.11c-0.63,0.23-1.26,0.45-1.9,0.68"/>
<path class="st6" d="M389.05,1245.55c-0.61-0.28-1.22-0.57-1.83-0.85c-0.59,0.32-1.18,0.63-1.78,0.95"/>
<path class="st6" d="M388.96,1243.4c-0.64-0.19-1.29-0.38-1.93-0.57c-0.54,0.4-1.08,0.8-1.61,1.21"/>
<path class="st6" d="M388.55,1241.28c-0.67-0.09-1.33-0.18-2-0.27c-0.47,0.48-0.94,0.96-1.42,1.43"/>
<path class="st6" d="M387.83,1239.25c-0.67,0.01-1.34,0.02-2.01,0.03c-0.4,0.54-0.79,1.08-1.19,1.63"/>
<path class="st6" d="M386.82,1237.35c-0.66,0.11-1.33,0.22-1.99,0.33c-0.31,0.6-0.62,1.19-0.93,1.79"/>
<path class="st6" d="M385.53,1235.62c-0.64,0.21-1.28,0.41-1.92,0.62c-0.22,0.64-0.44,1.27-0.66,1.91"/>
<path class="st6" d="M386.74,1249.5c1.55-4.7,0.31-9.88-3.19-13.38c-3.37-3.37-8.31-4.64-12.86-3.34"/>
<path class="st6" d="M403.94,1231.66c-4.59,1.87-9.85,0.86-13.38-2.55c-3.38-3.27-4.62-8.22-3.19-12.74"/>
<path class="st7" d="M127.88,998.4c4.69-4.47,10.82-6.84,17.02-7.07c1.13-0.05,2.27-0.01,3.39,0.09c5.64,0.51,11.15,2.82,15.55,6.98
	c5.66,5.34,8.36,12.67,8.12,19.9c0.01,0.07,0,0.14-0.01,0.21c-0.22,5.69-2.27,11.32-6.11,15.84c-9.48,11.14-27.07,12.33-37.95,2
	C117.02,1026.03,117.29,1008.45,127.88,998.4z"/>
<path class="st8" d="M149.85,1014.38c0.33-1,0.67-2,1-3c1-0.33,2-0.67,3-1"/>
<path class="st8" d="M147.49,1011.96c0.48-0.94,0.96-1.88,1.43-2.81c1.04-0.18,2.07-0.36,3.11-0.54"/>
<path class="st8" d="M145.51,1009.22c0.61-0.86,1.22-1.71,1.84-2.57c1.05-0.02,2.1-0.05,3.16-0.07"/>
<path class="st8" d="M143.97,1006.21c0.73-0.76,1.47-1.51,2.2-2.27c1.04,0.13,2.09,0.27,3.13,0.4"/>
<path class="st8" d="M142.89,1003.01c0.84-0.64,1.67-1.28,2.51-1.92c1.01,0.29,2.03,0.57,3.04,0.86"/>
<path class="st8" d="M142.3,999.68c0.92-0.51,1.85-1.01,2.77-1.52c0.96,0.43,1.92,0.87,2.88,1.3"/>
<path class="st8" d="M142.21,996.3c0.99-0.36,1.98-0.73,2.96-1.09c0.88,0.57,1.77,1.14,2.65,1.72"/>
<path class="st8" d="M142.63,992.95c1.03-0.21,2.06-0.43,3.09-0.64c0.79,0.7,1.58,1.39,2.37,2.09"/>
<path class="st8" d="M172.21,1018.8c-0.7-0.78-1.41-1.56-2.11-2.35c0.2-1.03,0.41-2.07,0.61-3.1"/>
<path class="st8" d="M168.94,1019.66c-0.58-0.88-1.16-1.76-1.74-2.63c0.35-0.99,0.71-1.98,1.06-2.97"/>
<path class="st8" d="M165.59,1020.03c-0.44-0.95-0.89-1.91-1.33-2.86c0.5-0.93,1-1.86,1.49-2.78"/>
<path class="st8" d="M162.21,1019.89c-0.3-1.01-0.59-2.02-0.89-3.03c0.63-0.84,1.26-1.69,1.89-2.53"/>
<path class="st8" d="M158.89,1019.25c-0.14-1.04-0.29-2.09-0.43-3.13c0.75-0.74,1.5-1.48,2.25-2.22"/>
<path class="st8" d="M155.71,1018.12c0.01-1.05,0.03-2.11,0.04-3.16c0.85-0.62,1.7-1.24,2.55-1.86"/>
<path class="st8" d="M152.72,1016.54c0.17-1.04,0.34-2.08,0.51-3.12c0.93-0.49,1.87-0.97,2.8-1.46"/>
<path class="st8" d="M150.01,1014.52c0.32-1,0.65-2,0.97-3.01c1-0.34,1.99-0.69,2.99-1.03"/>
<path class="st8" d="M142.81,1021.42c-1,0.33-2,0.67-3,1c-0.33,1-0.67,2-1,3"/>
<path class="st8" d="M140.39,1019.06c-0.94,0.48-1.88,0.96-2.81,1.43c-0.18,1.04-0.36,2.07-0.54,3.11"/>
<path class="st8" d="M137.65,1017.08c-0.86,0.61-1.71,1.22-2.57,1.84c-0.02,1.05-0.05,2.1-0.07,3.16"/>
<path class="st8" d="M134.64,1015.54c-0.76,0.73-1.51,1.47-2.27,2.2c0.13,1.04,0.27,2.09,0.4,3.13"/>
<path class="st8" d="M131.44,1014.46c-0.64,0.84-1.28,1.67-1.92,2.51c0.29,1.01,0.57,2.03,0.86,3.04"/>
<path class="st8" d="M128.11,1013.87c-0.51,0.92-1.01,1.85-1.52,2.77c0.43,0.96,0.87,1.92,1.3,2.88"/>
<path class="st8" d="M124.74,1013.78c-0.36,0.99-0.73,1.98-1.09,2.96c0.57,0.88,1.14,1.77,1.72,2.65"/>
<path class="st8" d="M121.38,1014.19c-0.21,1.03-0.43,2.06-0.64,3.09c0.7,0.79,1.39,1.58,2.09,2.37"/>
<path class="st8" d="M147.24,1043.78c-0.78-0.7-1.56-1.41-2.35-2.11c-1.03,0.2-2.07,0.41-3.1,0.61"/>
<path class="st8" d="M148.1,1040.51c-0.88-0.58-1.76-1.16-2.63-1.74c-0.99,0.35-1.98,0.71-2.97,1.06"/>
<path class="st8" d="M148.46,1037.15c-0.95-0.44-1.91-0.89-2.86-1.33c-0.93,0.5-1.86,1-2.78,1.49"/>
<path class="st8" d="M148.32,1033.78c-1.01-0.3-2.02-0.59-3.03-0.89c-0.84,0.63-1.69,1.26-2.53,1.89"/>
<path class="st8" d="M147.68,1030.46c-1.04-0.14-2.09-0.29-3.13-0.43c-0.74,0.75-1.48,1.5-2.22,2.25"/>
<path class="st8" d="M146.56,1027.27c-1.05,0.01-2.11,0.03-3.16,0.04c-0.62,0.85-1.24,1.7-1.86,2.55"/>
<path class="st8" d="M144.97,1024.29c-1.04,0.17-2.08,0.34-3.12,0.51c-0.49,0.93-0.97,1.87-1.46,2.8"/>
<path class="st8" d="M142.95,1021.58c-1,0.32-2,0.65-3.01,0.97c-0.34,1-0.69,1.99-1.03,2.99"/>
<path class="st8" d="M144.85,1043.34c2.42-7.36,0.49-15.49-4.99-20.97c-5.28-5.28-13.02-7.27-20.17-5.24"/>
<path class="st8" d="M171.82,1015.38c-7.19,2.92-15.44,1.35-20.97-3.99c-5.3-5.12-7.24-12.88-4.99-19.97"/>
<path class="st9" d="M140.86,83.59c3.54-3.37,8.15-5.15,12.82-5.33c0.85-0.04,1.71-0.01,2.55,0.07c4.25,0.38,8.4,2.12,11.71,5.26
	c4.27,4.03,6.3,9.55,6.12,15c0.01,0.05,0,0.11-0.01,0.16c-0.17,4.29-1.71,8.52-4.6,11.93c-7.14,8.39-20.4,9.29-28.59,1.5
	C132.68,104.41,132.88,91.16,140.86,83.59z"/>
<path class="st10" d="M157.41,95.63c0.25-0.75,0.5-1.5,0.75-2.26c0.75-0.25,1.5-0.5,2.26-0.75"/>
<path class="st10" d="M155.63,93.81c0.36-0.71,0.72-1.41,1.08-2.12c0.78-0.14,1.56-0.27,2.34-0.41"/>
<path class="st10" d="M154.15,91.74c0.46-0.65,0.92-1.29,1.38-1.94c0.79-0.02,1.59-0.04,2.38-0.05"/>
<path class="st10" d="M152.98,89.48c0.55-0.57,1.1-1.14,1.66-1.71c0.79,0.1,1.57,0.2,2.36,0.3"/>
<path class="st10" d="M152.17,87.06c0.63-0.48,1.26-0.96,1.89-1.44c0.76,0.22,1.53,0.43,2.29,0.65"/>
<path class="st10" d="M151.73,84.56c0.7-0.38,1.39-0.76,2.09-1.15c0.72,0.33,1.44,0.65,2.17,0.98"/>
<path class="st10" d="M151.66,82.01c0.74-0.27,1.49-0.55,2.23-0.82c0.67,0.43,1.33,0.86,2,1.29"/>
<path class="st10" d="M151.97,79.49c0.78-0.16,1.55-0.32,2.33-0.48c0.59,0.53,1.19,1.05,1.78,1.58"/>
<path class="st10" d="M174.26,98.96c-0.53-0.59-1.06-1.18-1.59-1.77c0.15-0.78,0.31-1.56,0.46-2.33"/>
<path class="st10" d="M171.8,99.61c-0.44-0.66-0.87-1.32-1.31-1.98c0.27-0.75,0.53-1.49,0.8-2.24"/>
<path class="st10" d="M169.27,99.89c-0.33-0.72-0.67-1.44-1-2.16c0.38-0.7,0.75-1.4,1.13-2.1"/>
<path class="st10" d="M166.72,99.78c-0.22-0.76-0.45-1.52-0.67-2.28c0.48-0.64,0.95-1.27,1.42-1.91"/>
<path class="st10" d="M164.22,99.3c-0.11-0.79-0.21-1.57-0.32-2.36c0.56-0.56,1.13-1.11,1.69-1.67"/>
<path class="st10" d="M161.82,98.45c0.01-0.79,0.02-1.59,0.03-2.38c0.64-0.47,1.28-0.93,1.92-1.4"/>
<path class="st10" d="M159.58,97.25c0.13-0.78,0.26-1.57,0.39-2.35c0.7-0.37,1.41-0.73,2.11-1.1"/>
<path class="st10" d="M157.53,95.74c0.24-0.75,0.49-1.51,0.73-2.26c0.75-0.26,1.5-0.52,2.25-0.77"/>
<path class="st10" d="M152.11,100.93c-0.75,0.25-1.5,0.5-2.26,0.75c-0.25,0.75-0.5,1.5-0.75,2.26"/>
<path class="st10" d="M150.29,99.15c-0.71,0.36-1.41,0.72-2.12,1.08c-0.14,0.78-0.27,1.56-0.41,2.34"/>
<path class="st10" d="M148.22,97.67c-0.65,0.46-1.29,0.92-1.94,1.38c-0.02,0.79-0.04,1.59-0.05,2.38"/>
<path class="st10" d="M145.96,96.5c-0.57,0.55-1.14,1.1-1.71,1.66c0.1,0.79,0.2,1.57,0.3,2.36"/>
<path class="st10" d="M143.54,95.69c-0.48,0.63-0.96,1.26-1.44,1.89c0.22,0.76,0.43,1.53,0.65,2.29"/>
<path class="st10" d="M141.04,95.25c-0.38,0.7-0.76,1.39-1.15,2.09c0.33,0.72,0.65,1.44,0.98,2.17"/>
<path class="st10" d="M138.49,95.18c-0.27,0.74-0.55,1.49-0.82,2.23c0.43,0.67,0.86,1.33,1.29,2"/>
<path class="st10" d="M135.97,95.49c-0.16,0.78-0.32,1.55-0.48,2.33c0.53,0.59,1.05,1.19,1.58,1.78"/>
<path class="st10" d="M155.44,117.78c-0.59-0.53-1.18-1.06-1.77-1.59c-0.78,0.15-1.56,0.31-2.33,0.46"/>
<path class="st10" d="M156.09,115.32c-0.66-0.44-1.32-0.87-1.98-1.31c-0.75,0.27-1.49,0.53-2.24,0.8"/>
<path class="st10" d="M156.37,112.79c-0.72-0.33-1.44-0.67-2.16-1c-0.7,0.38-1.4,0.75-2.1,1.13"/>
<path class="st10" d="M156.26,110.24c-0.76-0.22-1.52-0.45-2.28-0.67c-0.64,0.48-1.27,0.95-1.91,1.42"/>
<path class="st10" d="M155.78,107.74c-0.79-0.11-1.57-0.21-2.36-0.32c-0.56,0.56-1.11,1.13-1.67,1.69"/>
<path class="st10" d="M154.93,105.35c-0.79,0.01-1.59,0.02-2.38,0.03c-0.47,0.64-0.93,1.28-1.4,1.92"/>
<path class="st10" d="M153.73,103.1c-0.78,0.13-1.57,0.26-2.35,0.39c-0.37,0.7-0.73,1.41-1.1,2.11"/>
<path class="st10" d="M152.22,101.05c-0.75,0.24-1.51,0.49-2.26,0.73c-0.26,0.75-0.52,1.5-0.77,2.25"/>
<path class="st10" d="M153.65,117.45c1.83-5.55,0.37-11.67-3.76-15.8c-3.98-3.98-9.81-5.48-15.19-3.95"/>
<path class="st10" d="M173.96,96.38c-5.42,2.2-11.64,1.02-15.8-3.01c-3.99-3.86-5.45-9.71-3.76-15.05"/>
<path class="st1" d="M637.44,1276.98c-0.46,0.47-13.86-11.76-41.82-38.31c-0.49,24.37-1.07,34.9-1.72,34.91
	c-0.64,0.01-1.42-10.52-2.34-34.88c-27.54,27-40.74,39.44-41.21,38.98s11.76-13.86,38.31-41.82c-45.06-0.47-66.6-1.05-66.6-1.72
	c0-0.67,21.53-1.44,66.57-2.34c-27-27.54-39.44-40.74-38.98-41.21c0.46-0.47,13.86,11.76,41.82,38.31
	c0.49-24.37,1.07-34.9,1.72-34.91s1.42,10.52,2.34,34.88c27.54-27,40.74-39.44,41.21-38.98c0.47,0.46-11.76,13.86-38.31,41.82
	c49.21,0,72.93,0.34,72.94,1.01s-23.7,1.68-72.91,3.05C625.47,1263.32,637.91,1276.51,637.44,1276.98z"/>
<path class="st9" d="M580.86,1219.59c3.54-3.37,8.15-5.15,12.82-5.33c0.85-0.04,1.71-0.01,2.55,0.07c4.25,0.38,8.4,2.12,11.71,5.26
	c4.27,4.03,6.3,9.55,6.12,15c0.01,0.05,0,0.11-0.01,0.16c-0.17,4.29-1.71,8.52-4.6,11.93c-7.14,8.39-20.4,9.29-28.59,1.5
	C572.68,1240.41,572.88,1227.16,580.86,1219.59z"/>
<path class="st10" d="M597.41,1231.63c0.25-0.75,0.5-1.5,0.75-2.26c0.75-0.25,1.5-0.5,2.26-0.75"/>
<path class="st10" d="M595.63,1229.81c0.36-0.71,0.72-1.41,1.08-2.12c0.78-0.14,1.56-0.27,2.34-0.41"/>
<path class="st10" d="M594.15,1227.74c0.46-0.65,0.92-1.29,1.38-1.94c0.79-0.02,1.59-0.04,2.38-0.05"/>
<path class="st10" d="M592.98,1225.48c0.55-0.57,1.1-1.14,1.66-1.71c0.79,0.1,1.57,0.2,2.36,0.3"/>
<path class="st10" d="M592.17,1223.06c0.63-0.48,1.26-0.96,1.89-1.44c0.76,0.22,1.53,0.43,2.29,0.65"/>
<path class="st10" d="M591.73,1220.56c0.7-0.38,1.39-0.76,2.09-1.15c0.72,0.33,1.45,0.65,2.17,0.98"/>
<path class="st10" d="M591.66,1218.01c0.74-0.27,1.49-0.55,2.23-0.82c0.67,0.43,1.33,0.86,2,1.29"/>
<path class="st10" d="M591.97,1215.49c0.78-0.16,1.55-0.32,2.33-0.48c0.59,0.53,1.19,1.05,1.78,1.58"/>
<path class="st10" d="M614.26,1234.96c-0.53-0.59-1.06-1.18-1.59-1.77c0.15-0.78,0.31-1.56,0.46-2.33"/>
<path class="st10" d="M611.8,1235.61c-0.44-0.66-0.87-1.32-1.31-1.98c0.27-0.75,0.53-1.49,0.8-2.24"/>
<path class="st10" d="M609.27,1235.89c-0.33-0.72-0.67-1.44-1-2.16c0.38-0.7,0.75-1.4,1.13-2.1"/>
<path class="st10" d="M606.72,1235.78c-0.22-0.76-0.45-1.52-0.67-2.28c0.48-0.64,0.95-1.27,1.42-1.91"/>
<path class="st10" d="M604.22,1235.3c-0.11-0.79-0.21-1.57-0.32-2.36c0.56-0.56,1.13-1.11,1.69-1.67"/>
<path class="st10" d="M601.82,1234.45c0.01-0.79,0.02-1.59,0.03-2.38c0.64-0.47,1.28-0.93,1.92-1.4"/>
<path class="st10" d="M599.58,1233.25c0.13-0.78,0.26-1.57,0.39-2.35c0.7-0.37,1.41-0.73,2.11-1.1"/>
<path class="st10" d="M597.53,1231.74c0.24-0.75,0.49-1.51,0.73-2.26c0.75-0.26,1.5-0.52,2.25-0.77"/>
<path class="st10" d="M592.11,1236.93c-0.75,0.25-1.5,0.5-2.26,0.75c-0.25,0.75-0.5,1.5-0.75,2.26"/>
<path class="st10" d="M590.29,1235.15c-0.71,0.36-1.41,0.72-2.12,1.08c-0.14,0.78-0.27,1.56-0.41,2.34"/>
<path class="st10" d="M588.22,1233.67c-0.65,0.46-1.29,0.92-1.94,1.38c-0.02,0.79-0.04,1.59-0.05,2.38"/>
<path class="st10" d="M585.96,1232.5c-0.57,0.55-1.14,1.1-1.71,1.66c0.1,0.79,0.2,1.57,0.3,2.36"/>
<path class="st10" d="M583.54,1231.69c-0.48,0.63-0.96,1.26-1.44,1.89c0.22,0.76,0.43,1.53,0.65,2.29"/>
<path class="st10" d="M581.04,1231.25c-0.38,0.7-0.76,1.39-1.15,2.09c0.33,0.72,0.65,1.44,0.98,2.17"/>
<path class="st10" d="M578.49,1231.18c-0.27,0.74-0.55,1.49-0.82,2.23c0.43,0.67,0.86,1.33,1.29,2"/>
<path class="st10" d="M575.97,1231.49c-0.16,0.78-0.32,1.55-0.48,2.33c0.53,0.59,1.05,1.19,1.58,1.78"/>
<path class="st10" d="M595.44,1253.78c-0.59-0.53-1.18-1.06-1.77-1.59c-0.78,0.15-1.56,0.31-2.33,0.46"/>
<path class="st10" d="M596.09,1251.32c-0.66-0.44-1.32-0.87-1.98-1.31c-0.75,0.27-1.49,0.53-2.24,0.8"/>
<path class="st10" d="M596.37,1248.79c-0.72-0.33-1.44-0.67-2.16-1c-0.7,0.38-1.4,0.75-2.1,1.13"/>
<path class="st10" d="M596.26,1246.24c-0.76-0.22-1.52-0.45-2.28-0.67c-0.64,0.48-1.27,0.95-1.91,1.42"/>
<path class="st10" d="M595.78,1243.74c-0.79-0.11-1.57-0.21-2.36-0.32c-0.56,0.56-1.11,1.13-1.67,1.69"/>
<path class="st10" d="M594.93,1241.34c-0.79,0.01-1.59,0.02-2.38,0.03c-0.47,0.64-0.93,1.28-1.4,1.92"/>
<path class="st10" d="M593.73,1239.1c-0.78,0.13-1.57,0.26-2.35,0.39c-0.37,0.7-0.73,1.41-1.1,2.11"/>
<path class="st10" d="M592.22,1237.05c-0.75,0.24-1.51,0.49-2.26,0.73c-0.26,0.75-0.52,1.5-0.77,2.25"/>
<path class="st10" d="M593.65,1253.45c1.83-5.55,0.37-11.67-3.76-15.8c-3.98-3.98-9.81-5.48-15.19-3.95"/>
<path class="st10" d="M613.96,1232.38c-5.42,2.2-11.64,1.02-15.8-3.01c-3.99-3.86-5.45-9.71-3.76-15.05"/>
<path class="st11" d="M429.92,836.05c-0.46-0.94-1.52-3.05-3.58-3.58c-3.36-0.88-6.78,3.12-7.16,3.58c1.19-4.39-1.77-8.52-5.37-8.95
	c-2.98-0.36-6.22,1.83-7.16,5.37c0.49-3.44-1.93-6.67-5.37-7.16c-3.44-0.49-6.67,1.93-7.16,5.37c-1.51-3.41-4.37-5.52-7.16-5.37
	c-2.96,0.16-4.82,2.79-5.37,3.58c-0.55,0.78-0.93,1.56-1.21,2.37l0,0c-1,2.8-0.66,5.91-0.58,10.17c0.25,12.23-2.02,19.47-3.58,23.28
	c-1.08,2.63-2.53,5.31-5.37,7.16c-0.79,0.51-3.83,2.49-7.16,1.79c-0.9-0.19-3.67-0.97-7.16-7.16c-4.21-7.48-6.27-17.19-7.16-21.49
	c-0.56-2.7-1.12-5.87-3.58-7.16l0,0c-1.61-0.85-3.79-0.86-5.37,0c-4.26,2.32-3.78,10.79-3.58,14.32
	c0.93,16.16,2.89,50.5,29.54,61.77c14.85,6.28,35.11,4.44,45.66-6.27c3.7-3.75,5.64-8.02,9.28-16.04c4.9-10.8,7.33-20.35,8.62-26.93
	C429.92,864.7,435.18,846.82,429.92,836.05z"/>
<path class="st12" d="M365.46,841.42c6.01-0.81,11.04-0.16,14.33,0.54c0-0.18,0-0.36,0-0.54c-0.09-4.26-0.42-7.36,0.58-10.17
	l-0.58-0.58c-3.6-0.77-10.09-1.67-17.9,0c-7.67,1.64-13.14,5.02-16.11,7.16c2.46,1.29,3.02,4.47,3.58,7.16
	c0.11,0.54,0.24,1.17,0.39,1.87v0C352.87,845.03,358.26,842.39,365.46,841.42z"/>
<path class="st12" d="M368.65,841.12"/>
<path class="st12" d="M365.46,841.42c-2.32,0.31-4.44,0.81-6.37,1.39c0.71,2.85,1.43,5.7,2.14,8.55c1.34-0.36,2.75-0.7,4.23-0.99
	c1.23-0.24,2.42-0.43,3.58-0.59c0-2.89,0-5.78,0-8.68C367.89,841.16,366.71,841.25,365.46,841.42z"/>
<path class="st12" d="M349.74,846.87L349.74,846.87c0.46,2.11,1.12,4.89,2.01,7.87c2.57-1.15,5.76-2.37,9.48-3.38
	c-0.71-2.85-1.43-5.7-2.14-8.55C355.04,844.02,351.86,845.63,349.74,846.87z"/>
<path class="st12" d="M369.04,841.11c0,2.89,0,5.78,0,8.68c4.02-0.56,7.6-0.68,10.53-0.6c0.16-2.19,0.25-4.58,0.21-7.22
	C377.18,841.41,373.47,840.9,369.04,841.11z"/>
<path class="st12" d="M365.46,850.37c-5.59,1.11-10.21,2.8-13.71,4.37c0.88,2.97,2,6.14,3.41,9.13c2.69-1.05,6.16-2.12,10.3-2.75
	c4.79-0.73,8.95-0.64,12.11-0.33c0.84-2.86,1.64-6.67,2.01-11.6C375.79,849.08,370.95,849.29,365.46,850.37z"/>
<path class="st12" d="M355.16,863.87c0.42,0.89,0.87,1.77,1.35,2.62c3.49,6.2,6.26,6.97,7.16,7.16c0-4.07,0-8.13,0-12.2
	C360.33,862.09,357.45,862.98,355.16,863.87z"/>
<path class="st12" d="M365.46,861.12c-0.62,0.1-1.2,0.22-1.79,0.33c0,4.07,0,8.14,0,12.2c2.06,0.43,4-0.15,5.37-0.79
	c0-4.05,0-8.1,0-12.15C367.9,860.8,366.7,860.93,365.46,861.12z"/>
<path class="st12" d="M369.04,860.71c0,4.05,0,8.1,0,12.15c0.85-0.39,1.49-0.8,1.79-1c2.85-1.85,4.29-4.54,5.37-7.16
	c0.43-1.03,0.9-2.33,1.37-3.91C375.23,860.56,372.33,860.45,369.04,860.71z"/>
<path class="st11" d="M394.11,830.68c-0.18,4.14-0.68,8.99-1.79,14.32c-0.99,4.77-2.27,8.96-3.58,12.53"/>
<path class="st11" d="M406.64,832.47c-0.28,4.3-0.82,9.12-1.79,14.32c-0.99,5.34-2.26,10.13-3.58,14.32"/>
<path class="st11" d="M419.18,836.05c-0.28,4.3-0.82,9.12-1.79,14.32c-0.99,5.34-2.26,10.13-3.58,14.32"/>
<line class="st11" x1="352.93" y1="877.23" x2="358.3" y2="884.39"/>
<line class="st11" x1="361.88" y1="887.97" x2="367.25" y2="893.35"/>
<line class="st11" x1="372.63" y1="896.93" x2="381.58" y2="904.09"/>
<path class="st11" d="M389.48,835.51c2.49,3.94,4.98,7.88,7.47,11.82"/>
<path class="st11" d="M398.36,836.68c-3.43,3.16-6.86,6.32-10.28,9.48"/>
<path class="st11" d="M402.02,837.3c2.49,3.94,4.98,7.88,7.47,11.82"/>
<path class="st11" d="M410.89,838.47c-3.43,3.16-6.86,6.32-10.28,9.48"/>
<path class="st11" d="M414.55,839.09c2.49,3.94,4.98,7.88,7.47,11.82"/>
<path class="st11" d="M423.42,840.26c-3.43,3.16-6.86,6.32-10.28,9.48"/>
<path class="st13" d="M372.63,914.83"/>
<line class="st11" x1="412.02" y1="868.28" x2="408.43" y2="877.23"/>
<path class="st11" d="M406.64,882.6c-1.19,2.98-2.39,5.97-3.58,8.95"/>
<line class="st11" x1="399.48" y1="898.72" x2="397.69" y2="902.3"/>
<ellipse transform="matrix(0.9853 -0.171 0.171 0.9853 -150.1884 75.439)" class="st14" cx="362.78" cy="909.46" rx="1.79" ry="4.48"/>
<ellipse transform="matrix(0.9853 -0.171 0.171 0.9853 -150.669 77.0228)" class="st14" cx="371.73" cy="913.04" rx="1.79" ry="4.48"/>
<ellipse transform="matrix(0.9853 -0.171 0.171 0.9853 -150.8433 78.5801)" class="st14" cx="380.68" cy="914.83" rx="1.79" ry="4.48"/>
<ellipse transform="matrix(0.9853 -0.171 0.171 0.9853 -150.7114 80.1112)" class="st14" cx="389.63" cy="914.83" rx="1.79" ry="4.48"/>
<ellipse transform="matrix(0.9853 -0.171 0.171 0.9853 -150.2733 81.6158)" class="st14" cx="398.59" cy="913.04" rx="1.79" ry="4.48"/>
<path class="st11" d="M425.92,249.05c-0.46-0.94-1.52-3.05-3.58-3.58c-3.36-0.88-6.78,3.12-7.16,3.58c1.19-4.39-1.77-8.52-5.37-8.95
	c-2.98-0.36-6.22,1.83-7.16,5.37c0.49-3.44-1.93-6.67-5.37-7.16c-3.44-0.49-6.67,1.93-7.16,5.37c-1.51-3.41-4.37-5.52-7.16-5.37
	c-2.96,0.16-4.82,2.79-5.37,3.58c-0.55,0.78-0.93,1.56-1.21,2.37l0,0c-1,2.8-0.66,5.91-0.58,10.17c0.25,12.23-2.02,19.47-3.58,23.28
	c-1.08,2.63-2.53,5.31-5.37,7.16c-0.79,0.51-3.83,2.49-7.16,1.79c-0.9-0.19-3.67-0.97-7.16-7.16c-4.21-7.48-6.27-17.19-7.16-21.49
	c-0.56-2.7-1.12-5.87-3.58-7.16l0,0c-1.61-0.85-3.79-0.86-5.37,0c-4.26,2.32-3.78,10.79-3.58,14.32
	c0.93,16.16,2.89,50.5,29.54,61.77c14.85,6.28,35.11,4.44,45.66-6.27c3.7-3.75,5.64-8.02,9.28-16.04c4.9-10.8,7.33-20.35,8.62-26.93
	C425.92,277.7,431.18,259.82,425.92,249.05z"/>
<path class="st12" d="M361.46,254.42c6.01-0.81,11.04-0.16,14.33,0.54c0-0.18,0-0.36,0-0.54c-0.09-4.26-0.42-7.36,0.58-10.17
	l-0.58-0.58c-3.6-0.77-10.09-1.67-17.9,0c-7.67,1.64-13.14,5.02-16.11,7.16c2.46,1.29,3.02,4.47,3.58,7.16
	c0.11,0.54,0.24,1.17,0.39,1.87v0C348.87,258.03,354.26,255.39,361.46,254.42z"/>
<path class="st12" d="M364.65,254.12"/>
<path class="st12" d="M361.46,254.42c-2.32,0.31-4.44,0.81-6.37,1.39c0.71,2.85,1.43,5.7,2.14,8.55c1.34-0.36,2.75-0.7,4.23-0.99
	c1.23-0.24,2.42-0.43,3.58-0.59c0-2.89,0-5.78,0-8.68C363.89,254.16,362.71,254.25,361.46,254.42z"/>
<path class="st12" d="M345.74,259.87L345.74,259.87c0.46,2.11,1.12,4.89,2.01,7.87c2.57-1.15,5.76-2.37,9.48-3.38
	c-0.71-2.85-1.43-5.7-2.14-8.55C351.04,257.02,347.86,258.63,345.74,259.87z"/>
<path class="st12" d="M365.04,254.11c0,2.89,0,5.78,0,8.68c4.02-0.56,7.6-0.68,10.53-0.6c0.16-2.19,0.25-4.58,0.21-7.22
	C373.18,254.41,369.47,253.9,365.04,254.11z"/>
<path class="st12" d="M361.46,263.37c-5.59,1.11-10.21,2.8-13.71,4.37c0.88,2.97,2,6.14,3.41,9.13c2.69-1.05,6.16-2.12,10.3-2.75
	c4.79-0.73,8.95-0.64,12.11-0.33c0.84-2.86,1.64-6.67,2.01-11.6C371.79,262.08,366.95,262.29,361.46,263.37z"/>
<path class="st12" d="M351.16,276.87c0.42,0.89,0.87,1.77,1.35,2.62c3.49,6.2,6.26,6.97,7.16,7.16c0-4.07,0-8.14,0-12.2
	C356.33,275.09,353.45,275.98,351.16,276.87z"/>
<path class="st12" d="M361.46,274.12c-0.62,0.1-1.2,0.22-1.79,0.33c0,4.07,0,8.14,0,12.2c2.06,0.43,4-0.15,5.37-0.79
	c0-4.05,0-8.1,0-12.15C363.9,273.8,362.7,273.93,361.46,274.12z"/>
<path class="st12" d="M365.04,273.71c0,4.05,0,8.1,0,12.15c0.85-0.39,1.49-0.8,1.79-1c2.85-1.85,4.29-4.54,5.37-7.16
	c0.43-1.03,0.9-2.33,1.37-3.91C371.23,273.56,368.33,273.45,365.04,273.71z"/>
<path class="st11" d="M390.11,243.68c-0.18,4.14-0.68,8.99-1.79,14.32c-0.99,4.77-2.27,8.96-3.58,12.53"/>
<path class="st11" d="M402.64,245.47c-0.28,4.3-0.82,9.12-1.79,14.32c-0.99,5.34-2.26,10.13-3.58,14.32"/>
<path class="st11" d="M415.18,249.05c-0.28,4.3-0.82,9.12-1.79,14.32c-0.99,5.34-2.26,10.13-3.58,14.32"/>
<line class="st11" x1="348.93" y1="290.23" x2="354.3" y2="297.39"/>
<line class="st11" x1="357.88" y1="300.98" x2="363.25" y2="306.35"/>
<line class="st11" x1="368.63" y1="309.93" x2="377.58" y2="317.09"/>
<path class="st11" d="M385.48,248.51c2.49,3.94,4.98,7.88,7.47,11.82"/>
<path class="st11" d="M394.36,249.68c-3.43,3.16-6.86,6.32-10.28,9.48"/>
<path class="st11" d="M398.02,250.3c2.49,3.94,4.98,7.88,7.47,11.82"/>
<path class="st11" d="M406.89,251.47c-3.43,3.16-6.86,6.32-10.28,9.48"/>
<path class="st11" d="M410.55,252.09c2.49,3.94,4.98,7.88,7.47,11.82"/>
<path class="st11" d="M419.42,253.26c-3.43,3.16-6.86,6.32-10.28,9.48"/>
<path class="st13" d="M368.63,327.83"/>
<line class="st11" x1="408.02" y1="281.28" x2="404.43" y2="290.23"/>
<path class="st11" d="M402.64,295.6c-1.19,2.98-2.39,5.97-3.58,8.95"/>
<line class="st11" x1="395.48" y1="311.72" x2="393.69" y2="315.3"/>
<ellipse transform="matrix(0.9853 -0.171 0.171 0.9853 -49.8607 66.1073)" class="st14" cx="358.78" cy="322.46" rx="1.79" ry="4.48"/>
<ellipse transform="matrix(0.9853 -0.171 0.171 0.9853 -50.3412 67.6911)" class="st14" cx="367.73" cy="326.04" rx="1.79" ry="4.48"/>
<ellipse transform="matrix(0.9853 -0.171 0.171 0.9853 -50.5155 69.2485)" class="st14" cx="376.68" cy="327.83" rx="1.79" ry="4.48"/>
<ellipse transform="matrix(0.9853 -0.171 0.171 0.9853 -50.3836 70.7795)" class="st14" cx="385.63" cy="327.83" rx="1.79" ry="4.48"/>
<ellipse transform="matrix(0.9853 -0.171 0.171 0.9853 -49.9455 72.2841)" class="st14" cx="394.59" cy="326.04" rx="1.79" ry="4.48"/>
<path class="st11" d="M643.92,69.05c-0.46-0.94-1.52-3.05-3.58-3.58c-3.36-0.88-6.78,3.12-7.16,3.58c1.19-4.39-1.77-8.52-5.37-8.95
	c-2.98-0.36-6.22,1.83-7.16,5.37c0.49-3.44-1.93-6.67-5.37-7.16c-3.44-0.49-6.67,1.93-7.16,5.37c-1.51-3.41-4.37-5.52-7.16-5.37
	c-2.96,0.16-4.82,2.79-5.37,3.58c-0.55,0.78-0.93,1.56-1.21,2.37l0,0c-1,2.8-0.66,5.91-0.58,10.17c0.25,12.23-2.02,19.47-3.58,23.28
	c-1.08,2.63-2.53,5.31-5.37,7.16c-0.79,0.51-3.83,2.49-7.16,1.79c-0.9-0.19-3.67-0.97-7.16-7.16c-4.21-7.48-6.27-17.19-7.16-21.49
	c-0.56-2.7-1.12-5.87-3.58-7.16l0,0c-1.61-0.85-3.79-0.86-5.37,0c-4.26,2.32-3.78,10.79-3.58,14.32
	c0.93,16.16,2.89,50.5,29.54,61.77c14.85,6.28,35.11,4.44,45.66-6.27c3.7-3.75,5.64-8.02,9.28-16.04c4.9-10.8,7.33-20.35,8.62-26.93
	C643.92,97.7,649.18,79.82,643.92,69.05z"/>
<path class="st12" d="M579.46,74.42c6.01-0.81,11.04-0.16,14.33,0.54c0-0.18,0-0.36,0-0.54c-0.09-4.26-0.42-7.36,0.58-10.17
	l-0.58-0.58c-3.6-0.77-10.09-1.67-17.9,0c-7.67,1.64-13.14,5.02-16.11,7.16c2.46,1.29,3.02,4.47,3.58,7.16
	c0.11,0.54,0.24,1.17,0.39,1.87v0C566.87,78.03,572.26,75.39,579.46,74.42z"/>
<path class="st12" d="M582.65,74.12"/>
<path class="st12" d="M579.46,74.42c-2.32,0.31-4.44,0.81-6.37,1.39c0.71,2.85,1.43,5.7,2.14,8.55c1.34-0.36,2.75-0.7,4.23-0.99
	c1.23-0.24,2.42-0.43,3.58-0.59c0-2.89,0-5.78,0-8.68C581.89,74.16,580.71,74.25,579.46,74.42z"/>
<path class="st12" d="M563.74,79.87L563.74,79.87c0.46,2.11,1.12,4.89,2.01,7.87c2.57-1.15,5.76-2.37,9.48-3.38
	c-0.71-2.85-1.43-5.7-2.14-8.55C569.04,77.02,565.86,78.63,563.74,79.87z"/>
<path class="st12" d="M583.04,74.11c0,2.89,0,5.78,0,8.68c4.02-0.56,7.6-0.68,10.53-0.6c0.16-2.19,0.25-4.58,0.21-7.22
	C591.18,74.41,587.47,73.9,583.04,74.11z"/>
<path class="st12" d="M579.46,83.37c-5.59,1.11-10.21,2.8-13.71,4.37c0.88,2.97,2,6.14,3.41,9.13c2.69-1.05,6.16-2.12,10.3-2.75
	c4.79-0.73,8.95-0.64,12.11-0.33c0.84-2.86,1.64-6.67,2.01-11.6C589.79,82.08,584.95,82.29,579.46,83.37z"/>
<path class="st12" d="M569.16,96.87c0.42,0.89,0.87,1.77,1.35,2.62c3.49,6.2,6.26,6.97,7.16,7.16c0-4.07,0-8.14,0-12.2
	C574.33,95.09,571.45,95.98,569.16,96.87z"/>
<path class="st12" d="M579.46,94.12c-0.62,0.1-1.2,0.22-1.79,0.33c0,4.07,0,8.14,0,12.2c2.06,0.43,4-0.15,5.37-0.79
	c0-4.05,0-8.1,0-12.15C581.9,93.8,580.7,93.93,579.46,94.12z"/>
<path class="st12" d="M583.04,93.71c0,4.05,0,8.1,0,12.15c0.85-0.39,1.49-0.8,1.79-1c2.85-1.85,4.29-4.54,5.37-7.16
	c0.43-1.03,0.9-2.33,1.37-3.91C589.23,93.56,586.33,93.45,583.04,93.71z"/>
<path class="st11" d="M608.11,63.68c-0.18,4.14-0.68,8.99-1.79,14.32c-0.99,4.77-2.27,8.96-3.58,12.53"/>
<path class="st11" d="M620.64,65.47c-0.28,4.3-0.82,9.12-1.79,14.32c-0.99,5.34-2.26,10.13-3.58,14.32"/>
<path class="st11" d="M633.18,69.05c-0.28,4.3-0.82,9.12-1.79,14.32c-0.99,5.34-2.26,10.13-3.58,14.32"/>
<line class="st11" x1="566.93" y1="110.23" x2="572.3" y2="117.39"/>
<line class="st11" x1="575.88" y1="120.97" x2="581.25" y2="126.35"/>
<line class="st11" x1="586.63" y1="129.93" x2="595.58" y2="137.09"/>
<path class="st11" d="M603.48,68.51c2.49,3.94,4.98,7.88,7.47,11.82"/>
<path class="st11" d="M612.36,69.68c-3.43,3.16-6.86,6.32-10.28,9.48"/>
<path class="st11" d="M616.02,70.3c2.49,3.94,4.98,7.88,7.47,11.82"/>
<path class="st11" d="M624.89,71.47c-3.43,3.16-6.86,6.32-10.28,9.48"/>
<path class="st11" d="M628.55,72.09c2.49,3.94,4.98,7.88,7.47,11.82"/>
<path class="st11" d="M637.42,73.26c-3.43,3.16-6.86,6.32-10.28,9.48"/>
<path class="st13" d="M586.63,147.83"/>
<line class="st11" x1="626.02" y1="101.28" x2="622.43" y2="110.23"/>
<path class="st11" d="M620.64,115.6c-1.19,2.98-2.39,5.97-3.58,8.95"/>
<line class="st11" x1="613.48" y1="131.72" x2="611.69" y2="135.3"/>
<ellipse transform="matrix(0.9853 -0.171 0.171 0.9853 -15.8662 100.7372)" class="st14" cx="576.78" cy="142.46" rx="1.79" ry="4.48"/>
<ellipse transform="matrix(0.9853 -0.171 0.171 0.9853 -16.3467 102.321)" class="st14" cx="585.73" cy="146.04" rx="1.79" ry="4.48"/>
<ellipse transform="matrix(0.9853 -0.171 0.171 0.9853 -16.521 103.8784)" class="st14" cx="594.68" cy="147.83" rx="1.79" ry="4.48"/>
<ellipse transform="matrix(0.9853 -0.171 0.171 0.9853 -16.3891 105.4094)" class="st14" cx="603.63" cy="147.83" rx="1.79" ry="4.48"/>
<ellipse transform="matrix(0.9853 -0.171 0.171 0.9853 -15.951 106.914)" class="st14" cx="612.59" cy="146.04" rx="1.79" ry="4.48"/>
<path class="st11" d="M202.92,430.05c-0.46-0.94-1.52-3.05-3.58-3.58c-3.36-0.88-6.78,3.12-7.16,3.58c1.19-4.39-1.77-8.52-5.37-8.95
	c-2.98-0.36-6.22,1.83-7.16,5.37c0.49-3.44-1.93-6.67-5.37-7.16c-3.44-0.49-6.67,1.93-7.16,5.37c-1.51-3.41-4.37-5.52-7.16-5.37
	c-2.96,0.16-4.82,2.79-5.37,3.58c-0.55,0.78-0.93,1.56-1.21,2.37l0,0c-1,2.8-0.66,5.91-0.58,10.17c0.25,12.23-2.02,19.47-3.58,23.28
	c-1.08,2.63-2.53,5.31-5.37,7.16c-0.79,0.51-3.83,2.49-7.16,1.79c-0.9-0.19-3.67-0.97-7.16-7.16c-4.21-7.48-6.27-17.19-7.16-21.49
	c-0.56-2.7-1.12-5.87-3.58-7.16l0,0c-1.61-0.85-3.79-0.86-5.37,0c-4.26,2.32-3.78,10.79-3.58,14.32
	c0.93,16.16,2.89,50.5,29.54,61.77c14.85,6.28,35.11,4.44,45.66-6.27c3.7-3.75,5.64-8.02,9.28-16.04c4.9-10.8,7.33-20.35,8.62-26.93
	C202.92,458.7,208.18,440.82,202.92,430.05z"/>
<path class="st12" d="M138.46,435.42c6.01-0.81,11.04-0.16,14.33,0.54c0-0.18,0-0.36,0-0.54c-0.09-4.26-0.42-7.36,0.58-10.17
	l-0.58-0.58c-3.6-0.77-10.09-1.67-17.9,0c-7.67,1.64-13.14,5.02-16.11,7.16c2.46,1.29,3.02,4.47,3.58,7.16
	c0.11,0.54,0.24,1.17,0.39,1.87v0C125.87,439.03,131.26,436.39,138.46,435.42z"/>
<path class="st12" d="M141.65,435.12"/>
<path class="st12" d="M138.46,435.42c-2.32,0.31-4.44,0.81-6.37,1.39c0.71,2.85,1.43,5.7,2.14,8.55c1.34-0.36,2.75-0.7,4.23-0.99
	c1.23-0.24,2.42-0.43,3.58-0.59c0-2.89,0-5.78,0-8.68C140.89,435.16,139.71,435.25,138.46,435.42z"/>
<path class="st12" d="M122.74,440.87L122.74,440.87c0.46,2.11,1.12,4.89,2.01,7.87c2.57-1.15,5.76-2.37,9.48-3.38
	c-0.71-2.85-1.43-5.7-2.14-8.55C128.04,438.02,124.86,439.63,122.74,440.87z"/>
<path class="st12" d="M142.04,435.11c0,2.89,0,5.78,0,8.68c4.02-0.56,7.6-0.68,10.53-0.6c0.16-2.19,0.25-4.58,0.21-7.22
	C150.18,435.41,146.47,434.9,142.04,435.11z"/>
<path class="st12" d="M138.46,444.37c-5.59,1.11-10.21,2.8-13.71,4.37c0.88,2.97,2,6.14,3.41,9.13c2.69-1.05,6.16-2.12,10.3-2.75
	c4.79-0.73,8.95-0.64,12.11-0.33c0.84-2.86,1.64-6.67,2.01-11.6C148.79,443.08,143.95,443.29,138.46,444.37z"/>
<path class="st12" d="M128.16,457.87c0.42,0.89,0.87,1.77,1.35,2.62c3.49,6.2,6.26,6.97,7.16,7.16c0-4.07,0-8.14,0-12.2
	C133.33,456.09,130.45,456.98,128.16,457.87z"/>
<path class="st12" d="M138.46,455.12c-0.62,0.1-1.2,0.22-1.79,0.33c0,4.07,0,8.14,0,12.2c2.06,0.43,4-0.15,5.37-0.79
	c0-4.05,0-8.1,0-12.15C140.9,454.8,139.7,454.93,138.46,455.12z"/>
<path class="st12" d="M142.04,454.71c0,4.05,0,8.1,0,12.15c0.85-0.39,1.49-0.8,1.79-1c2.85-1.85,4.29-4.54,5.37-7.16
	c0.43-1.03,0.9-2.33,1.37-3.91C148.23,454.56,145.33,454.45,142.04,454.71z"/>
<path class="st11" d="M167.11,424.68c-0.18,4.14-0.68,8.99-1.79,14.32c-0.99,4.77-2.27,8.96-3.58,12.53"/>
<path class="st11" d="M179.64,426.47c-0.28,4.3-0.82,9.12-1.79,14.32c-0.99,5.34-2.26,10.13-3.58,14.32"/>
<path class="st11" d="M192.18,430.05c-0.28,4.3-0.82,9.12-1.79,14.32c-0.99,5.34-2.26,10.13-3.58,14.32"/>
<line class="st11" x1="125.93" y1="471.23" x2="131.3" y2="478.39"/>
<line class="st11" x1="134.88" y1="481.98" x2="140.25" y2="487.35"/>
<line class="st11" x1="145.63" y1="490.93" x2="154.58" y2="498.09"/>
<path class="st11" d="M162.48,429.51c2.49,3.94,4.98,7.88,7.47,11.82"/>
<path class="st11" d="M171.36,430.68c-3.43,3.16-6.86,6.32-10.28,9.48"/>
<path class="st11" d="M175.02,431.3c2.49,3.94,4.98,7.88,7.47,11.82"/>
<path class="st11" d="M183.89,432.47c-3.43,3.16-6.86,6.32-10.28,9.48"/>
<path class="st11" d="M187.55,433.09c2.49,3.94,4.98,7.88,7.47,11.82"/>
<path class="st11" d="M196.42,434.26c-3.43,3.16-6.86,6.32-10.28,9.48"/>
<path class="st13" d="M145.63,508.83"/>
<line class="st11" x1="185.02" y1="462.28" x2="181.44" y2="471.23"/>
<path class="st11" d="M179.64,476.6c-1.19,2.98-2.39,5.97-3.58,8.95"/>
<line class="st11" x1="172.48" y1="492.72" x2="170.69" y2="496.3"/>
<ellipse transform="matrix(0.9853 -0.171 0.171 0.9853 -84.0999 30.6371)" class="st14" cx="135.78" cy="503.46" rx="1.79" ry="4.48"/>
<ellipse transform="matrix(0.9853 -0.171 0.171 0.9853 -84.5804 32.2209)" class="st14" cx="144.73" cy="507.04" rx="1.79" ry="4.48"/>
<ellipse transform="matrix(0.9853 -0.171 0.171 0.9853 -84.7547 33.7783)" class="st14" cx="153.68" cy="508.83" rx="1.79" ry="4.48"/>
<ellipse transform="matrix(0.9853 -0.171 0.171 0.9853 -84.6228 35.3093)" class="st14" cx="162.63" cy="508.83" rx="1.79" ry="4.48"/>
<ellipse transform="matrix(0.9853 -0.171 0.171 0.9853 -84.1847 36.8139)" class="st14" cx="171.59" cy="507.04" rx="1.79" ry="4.48"/>
<path class="st15" d="M198.88,1235.25c-1.79,3.86,4.26,7.2,5.45,14.53c1.44,8.86-4.95,18.99-12.71,23.61
	c-11.16,6.66-27.71,3.46-38.14-9.08c-7.87,0-15.74,0-23.61,0c-1.81-2.67-12.24-18.57-7.27-38.14c5.08-19.98,23.26-32.15,39.96-34.51
	c3.16-0.45,24.12-3.41,36.33,10.9c4.97,5.82,6.63,12.34,7.27,16.35c1.45-0.44,9.29-2.66,16.35,1.82c2.7,1.72,4.42,3.86,5.45,5.45
	c-2.88,0.75-8.02,2.06-14.53,3.63C202.84,1232.35,199.98,1232.87,198.88,1235.25z"/>
<circle class="st16" cx="180.72" cy="1253.41" r="7.27"/>
<path class="st17" d="M162.26,1043.78c5.33,5.41,12.04,13.32,18,24c5.98,10.71,9.2,20.61,11,28"/>
<path class="st17" d="M183.26,1022.78c6.68,3.62,18.04,10.91,28,24c10.5,13.8,14.41,27.46,16,35"/>
<path class="st17" d="M174.76,1034.28c6.72,4.65,17.47,13.34,26.5,27.5c9.44,14.79,12.71,28.82,14,37"/>
<path class="st7" d="M331.88,66.4c4.69-4.47,10.82-6.84,17.02-7.07c1.13-0.05,2.27-0.01,3.39,0.09c5.64,0.51,11.15,2.82,15.55,6.98
	c5.66,5.34,8.36,12.67,8.12,19.9c0.01,0.07,0,0.14-0.01,0.21c-0.22,5.69-2.27,11.32-6.11,15.84c-9.48,11.14-27.07,12.33-37.95,2
	C321.02,94.03,321.29,76.45,331.88,66.4z"/>
<path class="st8" d="M353.85,82.38c0.33-1,0.67-2,1-3c1-0.33,2-0.67,3-1"/>
<path class="st8" d="M351.49,79.96c0.48-0.94,0.96-1.88,1.43-2.81c1.04-0.18,2.07-0.36,3.11-0.54"/>
<path class="st8" d="M349.51,77.22c0.61-0.86,1.22-1.71,1.84-2.57c1.05-0.02,2.1-0.05,3.16-0.07"/>
<path class="st8" d="M347.97,74.21c0.73-0.76,1.47-1.51,2.2-2.27c1.04,0.13,2.09,0.27,3.13,0.4"/>
<path class="st8" d="M346.89,71.01c0.84-0.64,1.67-1.28,2.51-1.92c1.01,0.29,2.03,0.57,3.04,0.86"/>
<path class="st8" d="M346.3,67.68c0.92-0.51,1.85-1.01,2.77-1.52c0.96,0.43,1.92,0.87,2.88,1.3"/>
<path class="st8" d="M346.21,64.3c0.99-0.36,1.98-0.73,2.96-1.09c0.88,0.57,1.77,1.14,2.65,1.72"/>
<path class="st8" d="M346.63,60.95c1.03-0.21,2.06-0.43,3.09-0.64c0.79,0.7,1.58,1.39,2.37,2.09"/>
<path class="st8" d="M376.21,86.8c-0.7-0.78-1.41-1.56-2.11-2.35c0.2-1.03,0.41-2.07,0.61-3.1"/>
<path class="st8" d="M372.94,87.66c-0.58-0.88-1.16-1.76-1.74-2.63c0.35-0.99,0.71-1.98,1.06-2.97"/>
<path class="st8" d="M369.59,88.03c-0.44-0.95-0.89-1.91-1.33-2.86c0.5-0.93,1-1.86,1.49-2.78"/>
<path class="st8" d="M366.21,87.89c-0.3-1.01-0.59-2.02-0.89-3.03c0.63-0.84,1.26-1.69,1.89-2.53"/>
<path class="st8" d="M362.89,87.25c-0.14-1.04-0.29-2.09-0.43-3.13c0.75-0.74,1.5-1.48,2.25-2.22"/>
<path class="st8" d="M359.71,86.12c0.01-1.05,0.03-2.11,0.04-3.16c0.85-0.62,1.7-1.24,2.55-1.86"/>
<path class="st8" d="M356.72,84.54c0.17-1.04,0.34-2.08,0.51-3.12c0.93-0.49,1.87-0.97,2.8-1.46"/>
<path class="st8" d="M354.01,82.52c0.32-1,0.65-2,0.97-3.01c1-0.34,1.99-0.69,2.99-1.03"/>
<path class="st8" d="M346.81,89.42c-1,0.33-2,0.67-3,1c-0.33,1-0.67,2-1,3"/>
<path class="st8" d="M344.39,87.06c-0.94,0.48-1.88,0.96-2.81,1.43c-0.18,1.04-0.36,2.07-0.54,3.11"/>
<path class="st8" d="M341.65,85.08c-0.86,0.61-1.71,1.22-2.57,1.84c-0.02,1.05-0.05,2.1-0.07,3.16"/>
<path class="st8" d="M338.64,83.54c-0.76,0.73-1.51,1.47-2.27,2.2c0.13,1.04,0.27,2.09,0.4,3.13"/>
<path class="st8" d="M335.44,82.46c-0.64,0.84-1.28,1.67-1.92,2.51c0.29,1.01,0.57,2.03,0.86,3.04"/>
<path class="st8" d="M332.11,81.87c-0.51,0.92-1.01,1.85-1.52,2.77c0.43,0.96,0.87,1.92,1.3,2.88"/>
<path class="st8" d="M328.74,81.78c-0.36,0.99-0.73,1.98-1.09,2.96c0.57,0.88,1.14,1.77,1.72,2.65"/>
<path class="st8" d="M325.38,82.19c-0.21,1.03-0.43,2.06-0.64,3.09c0.7,0.79,1.39,1.58,2.09,2.37"/>
<path class="st8" d="M351.24,111.78c-0.78-0.7-1.56-1.41-2.35-2.11c-1.03,0.2-2.07,0.41-3.1,0.61"/>
<path class="st8" d="M352.1,108.51c-0.88-0.58-1.76-1.16-2.63-1.74c-0.99,0.35-1.98,0.71-2.97,1.06"/>
<path class="st8" d="M352.46,105.15c-0.95-0.44-1.91-0.89-2.86-1.33c-0.93,0.5-1.86,1-2.78,1.49"/>
<path class="st8" d="M352.32,101.78c-1.01-0.3-2.02-0.59-3.03-0.89c-0.84,0.63-1.69,1.26-2.53,1.89"/>
<path class="st8" d="M351.68,98.46c-1.04-0.14-2.09-0.29-3.13-0.43c-0.74,0.75-1.48,1.5-2.22,2.25"/>
<path class="st8" d="M350.56,95.27c-1.05,0.01-2.11,0.03-3.16,0.04c-0.62,0.85-1.24,1.7-1.86,2.55"/>
<path class="st8" d="M348.97,92.29c-1.04,0.17-2.08,0.34-3.12,0.51c-0.49,0.93-0.97,1.87-1.46,2.8"/>
<path class="st8" d="M346.95,89.58c-1,0.32-2,0.65-3.01,0.97c-0.34,1-0.69,1.99-1.03,2.99"/>
<path class="st8" d="M348.85,111.34c2.42-7.36,0.49-15.49-4.99-20.97c-5.28-5.28-13.02-7.27-20.17-5.24"/>
<path class="st8" d="M375.82,83.38c-7.19,2.92-15.44,1.35-20.97-3.99c-5.3-5.12-7.24-12.88-4.99-19.97"/>
<path class="st17" d="M366.26,111.78c5.33,5.41,12.04,13.32,18,24c5.98,10.71,9.2,20.61,11,28"/>
<path class="st17" d="M387.26,90.78c6.68,3.62,18.04,10.91,28,24c10.5,13.8,14.41,27.46,16,35"/>
<path class="st17" d="M378.76,102.28c6.72,4.65,17.47,13.34,26.5,27.5c9.44,14.79,12.71,28.82,14,37"/>
<path class="st18" d="M394.62,714.25c0.01,0.06,0.01,0.12,0.01,0.18c0,6.16-4.53,11.14-10.12,11.14s-10.13-4.98-10.13-11.14
	c0-0.06,0-0.12,0.02-0.18c-0.14-0.94-0.14-1.93-0.02-2.93c-16.86-17.33-33.75-34.67-50.62-52c10.98-23.45,33.68-38.74,58.72-39.51
	c26.45-0.81,51.16,14.7,62.78,39.51c-16.87,17.33-33.76,34.67-50.63,52C394.76,712.32,394.76,713.31,394.62,714.25z"/>
<circle class="st19" cx="384.51" cy="632.42" r="4.05"/>
<circle class="st19" cx="425.01" cy="670.89" r="4.05"/>
<circle class="st19" cx="346.04" cy="670.89" r="4.05"/>
<path class="st19" d="M391.6,670.89c0,2.81-1.66,5.26-4.05,6.38c-0.91,0.47-1.94,0.71-3.04,0.71c-1.09,0-2.13-0.24-3.04-0.71
	c-2.39-1.11-4.05-3.56-4.05-6.38c0-3.91,3.18-7.09,7.09-7.09C388.42,663.81,391.6,666.99,391.6,670.89z"/>
<path class="st20" d="M387.55,677.27v26.53c-0.95-0.32-1.98-0.51-3.04-0.51s-2.09,0.18-3.04,0.51v-26.53
	c0.91,0.47,1.94,0.71,3.04,0.71C385.6,677.98,386.64,677.74,387.55,677.27z"/>
<path class="st19" d="M416.91,676.97c-9.21,9.21-18.43,18.43-27.64,27.64c-0.55-0.32-1.11-0.61-1.72-0.81
	c-0.95-0.32-1.98-0.51-3.04-0.51s-2.09,0.18-3.04,0.51c-0.61,0.2-1.17,0.49-1.72,0.81c-9.21-9.21-18.43-18.43-27.64-27.64
	c2.45-1.01,4.05-3.42,4.05-6.08c0-2.65-1.6-5.06-4.05-6.08c9.46-8.77,18.89-17.56,28.35-26.33c0,2.23,1.82,4.05,4.05,4.05
	c2.23,0,4.05-1.82,4.05-4.05c9.46,8.77,18.89,17.56,28.35,26.33c-2.45,1.01-4.05,3.42-4.05,6.08
	C412.86,673.55,414.46,675.96,416.91,676.97z"/>
<path class="st19" d="M387.55,714.43c-1.01,1.01-2.02,2.03-3.04,3.04c-1.01-1.01-2.03-2.03-3.04-3.04c0-1.35,0-2.7,0-4.05h6.08
	V714.43z"/>
<rect x="381.47" y="669.88" class="st21" width="6.07" height="2.03"/>
<path class="st18" d="M607.62,319.25c0.01,0.06,0.01,0.12,0.01,0.18c0,6.16-4.53,11.14-10.12,11.14s-10.13-4.98-10.13-11.14
	c0-0.06,0-0.12,0.02-0.18c-0.14-0.94-0.14-1.93-0.02-2.93c-16.86-17.33-33.75-34.67-50.62-52c10.98-23.45,33.68-38.74,58.72-39.51
	c26.45-0.81,51.16,14.7,62.78,39.51c-16.87,17.33-33.76,34.67-50.63,52C607.76,317.32,607.76,318.31,607.62,319.25z"/>
<circle class="st19" cx="597.51" cy="237.42" r="4.05"/>
<circle class="st19" cx="638.01" cy="275.89" r="4.05"/>
<circle class="st19" cx="559.03" cy="275.89" r="4.05"/>
<path class="st19" d="M604.6,275.89c0,2.81-1.66,5.26-4.05,6.38c-0.91,0.47-1.94,0.71-3.04,0.71s-2.13-0.24-3.04-0.71
	c-2.39-1.11-4.05-3.56-4.05-6.38c0-3.91,3.18-7.09,7.09-7.09C601.42,268.81,604.6,271.99,604.6,275.89z"/>
<path class="st20" d="M600.55,282.27v26.53c-0.95-0.32-1.98-0.51-3.04-0.51s-2.09,0.18-3.04,0.51v-26.53
	c0.91,0.47,1.94,0.71,3.04,0.71S599.64,282.74,600.55,282.27z"/>
<path class="st19" d="M629.91,281.97c-9.21,9.21-18.43,18.43-27.64,27.64c-0.55-0.32-1.11-0.61-1.72-0.81
	c-0.95-0.32-1.98-0.51-3.04-0.51s-2.09,0.18-3.04,0.51c-0.61,0.2-1.17,0.49-1.72,0.81c-9.21-9.21-18.43-18.43-27.64-27.64
	c2.45-1.01,4.05-3.42,4.05-6.07s-1.6-5.06-4.05-6.08c9.46-8.77,18.89-17.56,28.35-26.32c0,2.23,1.82,4.05,4.05,4.05
	c2.23,0,4.05-1.82,4.05-4.05c9.46,8.77,18.89,17.56,28.35,26.32c-2.45,1.01-4.05,3.42-4.05,6.08S627.46,280.96,629.91,281.97z"/>
<path class="st19" d="M600.55,319.43c-1.01,1.01-2.02,2.02-3.04,3.04c-1.01-1.01-2.03-2.02-3.04-3.04c0-1.35,0-2.7,0-4.05h6.08
	V319.43z"/>
<rect x="594.47" y="274.88" class="st21" width="6.07" height="2.03"/>
<path class="st18" d="M607.62,912.25c0.01,0.06,0.01,0.12,0.01,0.18c0,6.16-4.53,11.14-10.12,11.14s-10.13-4.98-10.13-11.14
	c0-0.06,0-0.12,0.02-0.18c-0.14-0.94-0.14-1.93-0.02-2.93c-16.86-17.33-33.75-34.67-50.62-52c10.98-23.45,33.68-38.74,58.72-39.51
	c26.45-0.81,51.16,14.7,62.78,39.51c-16.87,17.33-33.76,34.67-50.63,52C607.76,910.32,607.76,911.31,607.62,912.25z"/>
<circle class="st19" cx="597.51" cy="830.42" r="4.05"/>
<circle class="st19" cx="638.01" cy="868.89" r="4.05"/>
<circle class="st19" cx="559.03" cy="868.89" r="4.05"/>
<path class="st19" d="M604.6,868.89c0,2.81-1.66,5.26-4.05,6.38c-0.91,0.47-1.94,0.71-3.04,0.71s-2.13-0.24-3.04-0.71
	c-2.39-1.11-4.05-3.56-4.05-6.38c0-3.91,3.18-7.09,7.09-7.09C601.42,861.81,604.6,864.99,604.6,868.89z"/>
<path class="st20" d="M600.55,875.27v26.53c-0.95-0.32-1.98-0.51-3.04-0.51s-2.09,0.18-3.04,0.51v-26.53
	c0.91,0.47,1.94,0.71,3.04,0.71S599.64,875.74,600.55,875.27z"/>
<path class="st19" d="M629.91,874.97c-9.21,9.21-18.43,18.43-27.64,27.64c-0.55-0.32-1.11-0.61-1.72-0.81
	c-0.95-0.32-1.98-0.51-3.04-0.51s-2.09,0.18-3.04,0.51c-0.61,0.2-1.17,0.49-1.72,0.81c-9.21-9.21-18.43-18.43-27.64-27.64
	c2.45-1.01,4.05-3.42,4.05-6.08c0-2.65-1.6-5.06-4.05-6.08c9.46-8.77,18.89-17.56,28.35-26.33c0,2.23,1.82,4.05,4.05,4.05
	c2.23,0,4.05-1.82,4.05-4.05c9.46,8.77,18.89,17.56,28.35,26.33c-2.45,1.01-4.05,3.42-4.05,6.08
	C625.86,871.55,627.46,873.96,629.91,874.97z"/>
<path class="st19" d="M600.55,912.43c-1.01,1.01-2.02,2.03-3.04,3.04c-1.01-1.01-2.03-2.03-3.04-3.04c0-1.35,0-2.7,0-4.05h6.08
	V912.43z"/>
<rect x="594.47" y="867.88" class="st21" width="6.07" height="2.03"/>
<path class="st4" d="M647.07,638.27c-9.91,14.5-23.18,31.15-40.7,47.71c-9.89,9.33-19.61,17.22-28.73,23.85
	c-6.94,2.65-14.7,0.67-19.15-4.77c-0.98-1.17-1.75-2.48-2.32-3.86c-1.68-3.98-1.75-8.61-0.07-12.83
	c11.35-9.37,23.51-20.44,35.91-33.4c11.04-11.55,20.57-22.83,28.73-33.4c4.81-3.22,10.85-3.77,16.02-1.69c1.1,0.45,2.13,1,3.14,1.69
	C645.27,625.25,648.08,631.76,647.07,638.27z"/>
<path class="st4" d="M661.85,650.33c-10.09,15.05-23.61,32.34-41.51,49.57c-10.1,9.71-20.04,17.93-29.38,24.85
	c-7.12,2.79-15.12,0.8-19.74-4.78c-1.02-1.2-1.82-2.55-2.42-3.97c-1.75-4.1-1.86-8.88-0.17-13.25c11.61-9.77,24.03-21.29,36.7-34.76
	c11.27-12.01,20.99-23.73,29.31-34.7c4.93-3.36,11.13-3.97,16.47-1.87c1.14,0.46,2.2,1.02,3.24,1.73
	C659.9,636.89,662.84,643.6,661.85,650.33z"/>
<path class="st4" d="M659.59,621.12c-2.61,3.47-5.32,7-8.15,10.57c-5.32-2.14-11.53-1.58-16.48,1.75
	c-8.4,10.91-18.2,22.56-29.56,34.49c-12.76,13.38-25.27,24.81-36.95,34.49c-1.72,4.36-1.65,9.14,0.07,13.25
	c-1.7,1.35-3.35,2.68-5,3.99c-6.28,3.99-13.99,2.36-17.24-2.46c-2.32-3.42-2.24-8.23,0-12.32c16.63-13.87,34.02-29.44,51.73-46.8
	c16.31-15.99,31.04-31.68,44.34-46.8c3.74-5.03,10.64-5.81,14.78-2.46C660.48,611.51,661.63,616.63,659.59,621.12z"/>
<path class="st22" d="M561.06,699.94c5.53-2.91,8.97-6.19,11.09-8.62c3.62-4.16,3.46-5.99,7.39-9.85c4.3-4.23,5.69-3.22,9.85-7.39
	c4.1-4.1,3.23-5.54,7.39-9.85c4.13-4.28,5.26-3.13,9.85-7.39c5.25-4.86,4.51-7.04,9.85-12.32c4.21-4.16,5.81-3.94,9.85-7.39
	c3.33-2.85,7.7-7.67,11.09-16.01"/>
<path class="st4" d="M435.07,1021.27c-9.91,14.5-23.18,31.15-40.7,47.71c-9.89,9.33-19.61,17.22-28.73,23.85
	c-6.94,2.65-14.7,0.67-19.15-4.77c-0.98-1.17-1.75-2.48-2.32-3.86c-1.68-3.98-1.75-8.61-0.07-12.83
	c11.35-9.37,23.51-20.44,35.91-33.4c11.04-11.55,20.57-22.83,28.73-33.4c4.81-3.22,10.85-3.77,16.02-1.69c1.1,0.45,2.13,1,3.14,1.69
	C433.27,1008.25,436.08,1014.76,435.07,1021.27z"/>
<path class="st4" d="M450.05,1033.68c-10.2,14.98-23.85,32.17-41.88,49.27c-10.17,9.63-20.17,17.79-29.56,24.63
	c-7.14,2.73-15.13,0.69-19.71-4.93c-1.01-1.21-1.8-2.56-2.39-3.99c-1.72-4.11-1.8-8.89-0.07-13.25
	c11.68-9.68,24.19-21.11,36.95-34.49c11.36-11.92,21.16-23.57,29.56-34.49c4.95-3.33,11.16-3.89,16.48-1.75
	c1.13,0.47,2.19,1.03,3.23,1.75C448.2,1020.23,451.09,1026.95,450.05,1033.68z"/>
<path class="st4" d="M447.59,1004.12c-2.61,3.47-5.32,7-8.15,10.57c-5.32-2.14-11.53-1.58-16.48,1.75
	c-8.4,10.91-18.2,22.56-29.56,34.49c-12.76,13.38-25.27,24.81-36.95,34.49c-1.72,4.36-1.65,9.14,0.07,13.25
	c-1.7,1.35-3.35,2.68-5,3.99c-6.28,3.99-13.99,2.36-17.24-2.46c-2.32-3.42-2.24-8.23,0-12.32c16.63-13.87,34.02-29.44,51.73-46.8
	c16.31-15.99,31.04-31.68,44.34-46.8c3.74-5.03,10.64-5.81,14.78-2.46C448.48,994.51,449.63,999.63,447.59,1004.12z"/>
<path class="st22" d="M349.06,1082.94c5.53-2.91,8.97-6.19,11.09-8.62c3.62-4.16,3.46-5.99,7.39-9.85c4.3-4.23,5.69-3.22,9.85-7.39
	c4.1-4.1,3.23-5.54,7.39-9.85c4.13-4.28,5.26-3.13,9.85-7.39c5.25-4.86,4.51-7.04,9.85-12.32c4.21-4.16,5.81-3.94,9.85-7.39
	c3.33-2.85,7.7-7.67,11.08-16.01"/>
</svg>
