<svg id="Layer_1" data-name="Layer 1" xmlns="http://www.w3.org/2000/svg" xmlns:xlink="http://www.w3.org/1999/xlink" viewBox="0 0 486 299"><defs><style>.cls-1{fill:url(#radial-gradient);}.cls-2{fill:#fff;stroke-width:3.07px;}.cls-2,.cls-3{stroke:#000;stroke-miterlimit:10;}.cls-3{fill:#f47d30;stroke-width:2.16px;}</style><radialGradient id="radial-gradient" cx="244.5" cy="149.46" r="187.44" gradientUnits="userSpaceOnUse"><stop offset="0" stop-color="#f3de2c"/><stop offset="0.53" stop-color="#f4aa2e"/><stop offset="0.99" stop-color="#f47d30"/></radialGradient></defs><title>Frederick Keys Logo Redesign</title><path class="cls-1" d="M369.14,281.67c-1.42,1.45-42.41-36-128-117.26-1.5,74.59-3.28,106.82-5.25,106.84s-4.34-32.18-7.17-106.74C144.42,247.14,104,285.22,102.58,283.8s36-42.41,117.27-128C81.94,154.34,16,152.58,16,150.54s65.89-4.43,203.75-7.18C137.12,59.07,99,18.69,100.46,17.24s42.41,36,128,117.27c1.5-74.59,3.28-106.83,5.25-106.85s4.33,32.19,7.17,106.75C325.18,51.77,365.57,13.69,367,15.11s-36,42.42-117.26,128c150.62,0,223.22,1.06,223.25,3.1s-72.54,5.13-223.15,9.33C332.48,239.84,370.57,280.23,369.14,281.67Z"/><path class="cls-2" d="M211.31,213.91a12,12,0,1,1,0-24h1.08V91.85h-1.08a12,12,0,0,1,0-24h76.31a12,12,0,0,1,12,12V92.92a12,12,0,0,1-12,12h-1.15a12,12,0,0,1-12-12V91.85H246.27v36h15.18a12,12,0,0,1,24,1v21.91a12,12,0,0,1-24,1H246.27v38.1h2.13a12,12,0,1,1,0,24Z"/><path class="cls-3" d="M248.4,206.24H211.31a4.32,4.32,0,0,1-4.33-4.32h0a4.33,4.33,0,0,1,4.33-4.33h4.41a4.33,4.33,0,0,0,4.33-4.33V88.51a4.33,4.33,0,0,0-4.33-4.33h-4.41A4.33,4.33,0,0,1,207,79.85h0a4.33,4.33,0,0,1,4.33-4.33h76.31A4.33,4.33,0,0,1,292,79.85V92.92a4.33,4.33,0,0,1-4.33,4.33h-1.15a4.33,4.33,0,0,1-4.33-4.33V88.51a4.32,4.32,0,0,0-4.32-4.33H242.93a4.33,4.33,0,0,0-4.33,4.33v42.66a4.32,4.32,0,0,0,4.33,4.32h21.81a4.32,4.32,0,0,0,4.33-4.32v-2.3a4.33,4.33,0,0,1,4.33-4.33h.09a4.33,4.33,0,0,1,4.33,4.33v21.9a4.33,4.33,0,0,1-4.33,4.33h-.09a4.33,4.33,0,0,1-4.33-4.33v-2.29a4.33,4.33,0,0,0-4.33-4.33H242.93a4.33,4.33,0,0,0-4.33,4.33v44.78a4.33,4.33,0,0,0,4.33,4.33h5.47a4.32,4.32,0,0,1,4.33,4.33h0A4.32,4.32,0,0,1,248.4,206.24Z"/></svg>