<?xml version="1.0" encoding="utf-8"?>
<!-- Generator: Adobe Illustrator 23.0.6, SVG Export Plug-In . SVG Version: 6.00 Build 0)  -->
<svg version="1.1" xmlns="http://www.w3.org/2000/svg" xmlns:xlink="http://www.w3.org/1999/xlink" x="0px" y="0px"
	 viewBox="0 0 1366 768" style="enable-background:new 0 0 1366 768;" xml:space="preserve">
<style type="text/css">
	.st0{fill:#FFE396;}
	.st1{stroke:#000000;stroke-miterlimit:10;}
	.st2{stroke:#000000;stroke-width:3;stroke-linecap:round;stroke-linejoin:round;stroke-miterlimit:10;}
	.st3{fill:#F47D30;stroke:#000000;stroke-width:3;stroke-linecap:round;stroke-linejoin:round;stroke-miterlimit:10;}
	.st4{stroke:#000000;stroke-width:2.707;stroke-linecap:round;stroke-linejoin:round;stroke-miterlimit:10;}
	.st5{stroke:#000000;stroke-width:2.707;stroke-miterlimit:10;}
	.st6{fill:none;stroke:#FFFFFF;stroke-linecap:round;stroke-linejoin:round;stroke-miterlimit:10;}
	.st7{fill:none;stroke:#000000;stroke-width:2.707;stroke-linecap:round;stroke-linejoin:round;stroke-miterlimit:10;}
	.st8{fill:#FFFFFF;stroke:#000000;stroke-width:2.707;stroke-linecap:round;stroke-linejoin:round;stroke-miterlimit:10;}
	.st9{fill:none;stroke:#FFFFFF;stroke-miterlimit:10;}
	.st10{fill:#FFFFFF;stroke:#000000;stroke-width:4;stroke-linecap:round;stroke-linejoin:round;stroke-miterlimit:10;}
	.st11{fill:none;stroke:#000000;stroke-width:2.707;stroke-miterlimit:10;}
	.st12{fill:none;stroke:#000000;stroke-width:5;stroke-linecap:round;stroke-linejoin:round;stroke-miterlimit:10;}
	.st13{fill:#FFFFFF;}
	.st14{fill:none;stroke:#000000;stroke-linecap:round;stroke-linejoin:round;stroke-miterlimit:10;}
	.st15{fill:#FFFFFF;stroke:#000000;stroke-width:3;stroke-miterlimit:10;}
	.st16{fill:#FFFFFF;stroke:#000000;stroke-width:3;stroke-linecap:round;stroke-linejoin:round;stroke-miterlimit:10;}
	.st17{fill:#FFFFFF;stroke:#000000;stroke-width:5.5344;stroke-linecap:round;stroke-linejoin:round;stroke-miterlimit:10;}
	.st18{fill:#F47D30;stroke:#000000;stroke-width:3.0891;stroke-miterlimit:10;}
	.st19{stroke:#000000;stroke-width:3;stroke-miterlimit:10;}
	.st20{fill:url(#SVGID_1_);}
	.st21{fill:#FFFFFF;stroke:#000000;stroke-width:1.4057;stroke-miterlimit:10;}
	.st22{fill:#F47D30;stroke:#000000;stroke-width:1.4057;stroke-miterlimit:10;}
	.st23{fill:url(#SVGID_2_);}
	.st24{fill:#F47D30;}
	.st25{fill:#FFFFFF;stroke:#000000;stroke-width:2;stroke-miterlimit:10;}
	.st26{fill:url(#SVGID_3_);}
	.st27{fill:#FFFFFF;stroke:#000000;stroke-width:0.4432;stroke-miterlimit:10;}
	.st28{fill:#F47D30;stroke:#000000;stroke-width:0.3115;stroke-miterlimit:10;}
	.st29{fill:#F7F7F7;stroke:#000000;stroke-width:5;stroke-linecap:round;stroke-linejoin:round;stroke-miterlimit:10;}
	.st30{fill:url(#SVGID_4_);}
	.st31{fill:#FFFFFF;stroke:#000000;stroke-width:3.0671;stroke-miterlimit:10;}
	.st32{fill:#F47D30;stroke:#000000;stroke-width:2.1557;stroke-miterlimit:10;}
	.st33{fill:url(#SVGID_5_);}
	.st34{fill:url(#SVGID_6_);}
	.st35{fill:#FFFFFF;stroke:#000000;stroke-width:6.6846;stroke-miterlimit:10;}
	.st36{fill:#F47D30;stroke:#000000;stroke-width:4.6981;stroke-miterlimit:10;}
	.st37{stroke:#F47D30;stroke-width:8;stroke-linecap:round;stroke-linejoin:round;stroke-miterlimit:10;}
	.st38{fill:#F47D30;stroke:#000000;stroke-width:8;stroke-linecap:round;stroke-linejoin:round;stroke-miterlimit:10;}
	.st39{fill:#F47D30;stroke:#000000;stroke-width:2.4308;stroke-linecap:round;stroke-linejoin:round;stroke-miterlimit:10;}
	.st40{fill:none;stroke:#000000;stroke-width:2.1933;stroke-linecap:round;stroke-linejoin:round;stroke-miterlimit:10;}
	.st41{fill:#FFFFFF;stroke:#000000;stroke-width:2.1933;stroke-linecap:round;stroke-linejoin:round;stroke-miterlimit:10;}
	.st42{stroke:#000000;stroke-width:2.4308;stroke-linecap:round;stroke-linejoin:round;stroke-miterlimit:10;}
	.st43{fill:#FFFFFF;stroke:#000000;stroke-width:3.241;stroke-linecap:round;stroke-linejoin:round;stroke-miterlimit:10;}
	.st44{fill:none;stroke:#000000;stroke-width:2.1933;stroke-miterlimit:10;}
	.st45{fill:none;stroke:#000000;stroke-width:4.0512;stroke-linecap:round;stroke-linejoin:round;stroke-miterlimit:10;}
	.st46{fill:#F47D30;stroke:#000000;stroke-width:2.5029;stroke-miterlimit:10;}
	.st47{stroke:#000000;stroke-width:2.4308;stroke-miterlimit:10;}
	.st48{fill:url(#SVGID_7_);}
	.st49{fill:#FFFFFF;stroke:#000000;stroke-width:0.3591;stroke-miterlimit:10;}
	.st50{fill:#F47D30;stroke:#000000;stroke-width:0.2524;stroke-miterlimit:10;}
	.st51{fill:#F47D30;stroke:#000000;stroke-width:2;stroke-linecap:round;stroke-linejoin:round;stroke-miterlimit:10;}
	.st52{stroke:#000000;stroke-width:1.283;stroke-miterlimit:10;}
	.st53{stroke:#000000;stroke-width:1.2858;stroke-miterlimit:10;}
	.st54{fill:#F7F7F7;stroke:#000000;stroke-width:6.1436;stroke-linecap:round;stroke-linejoin:round;stroke-miterlimit:10;}
	.st55{fill:#F47D30;stroke:#000000;stroke-width:3.6861;stroke-linecap:round;stroke-linejoin:round;stroke-miterlimit:10;}
	.st56{fill:#FFFFFF;stroke:#F47D30;stroke-width:9.8297;stroke-linecap:round;stroke-linejoin:round;stroke-miterlimit:10;}
	.st57{fill:#F47D30;stroke:#000000;stroke-width:9.8297;stroke-linecap:round;stroke-linejoin:round;stroke-miterlimit:10;}
	.st58{fill:#F47D30;stroke:#000000;stroke-width:2.9867;stroke-linecap:round;stroke-linejoin:round;stroke-miterlimit:10;}
	.st59{fill:none;stroke:#000000;stroke-width:2.695;stroke-linecap:round;stroke-linejoin:round;stroke-miterlimit:10;}
	.st60{fill:#FFFFFF;stroke:#000000;stroke-width:2.695;stroke-linecap:round;stroke-linejoin:round;stroke-miterlimit:10;}
	.st61{stroke:#000000;stroke-width:2.9867;stroke-linecap:round;stroke-linejoin:round;stroke-miterlimit:10;}
	.st62{fill:#FFFFFF;stroke:#000000;stroke-width:3.9823;stroke-linecap:round;stroke-linejoin:round;stroke-miterlimit:10;}
	.st63{fill:none;stroke:#000000;stroke-width:2.695;stroke-miterlimit:10;}
	.st64{fill:none;stroke:#000000;stroke-width:4.9778;stroke-linecap:round;stroke-linejoin:round;stroke-miterlimit:10;}
	.st65{fill:#F47D30;stroke:#000000;stroke-width:3.0754;stroke-miterlimit:10;}
	.st66{stroke:#000000;stroke-width:2.9867;stroke-miterlimit:10;}
	.st67{fill:url(#SVGID_8_);}
	.st68{fill:#FFFFFF;stroke:#000000;stroke-width:0.4413;stroke-miterlimit:10;}
	.st69{fill:#F47D30;stroke:#000000;stroke-width:0.3101;stroke-miterlimit:10;}
	.st70{fill:#F7F7F7;stroke:#000000;stroke-width:7.3447;stroke-linecap:round;stroke-linejoin:round;stroke-miterlimit:10;}
	.st71{fill:#F47D30;stroke:#000000;stroke-width:4.4068;stroke-linecap:round;stroke-linejoin:round;stroke-miterlimit:10;}
	.st72{fill:#FFFFFF;stroke:#F47D30;stroke-width:11.7515;stroke-linecap:round;stroke-linejoin:round;stroke-miterlimit:10;}
	.st73{fill:#F47D30;stroke:#000000;stroke-width:11.7515;stroke-linecap:round;stroke-linejoin:round;stroke-miterlimit:10;}
	.st74{fill:#F47D30;stroke:#000000;stroke-width:3.5706;stroke-linecap:round;stroke-linejoin:round;stroke-miterlimit:10;}
	.st75{fill:none;stroke:#000000;stroke-width:3.2218;stroke-linecap:round;stroke-linejoin:round;stroke-miterlimit:10;}
	.st76{fill:#FFFFFF;stroke:#000000;stroke-width:3.2218;stroke-linecap:round;stroke-linejoin:round;stroke-miterlimit:10;}
	.st77{stroke:#000000;stroke-width:3.5706;stroke-linecap:round;stroke-linejoin:round;stroke-miterlimit:10;}
	.st78{fill:#FFFFFF;stroke:#000000;stroke-width:4.7608;stroke-linecap:round;stroke-linejoin:round;stroke-miterlimit:10;}
	.st79{fill:none;stroke:#000000;stroke-width:3.2218;stroke-miterlimit:10;}
	.st80{fill:none;stroke:#000000;stroke-width:5.951;stroke-linecap:round;stroke-linejoin:round;stroke-miterlimit:10;}
	.st81{fill:#F47D30;stroke:#000000;stroke-width:3.6767;stroke-miterlimit:10;}
	.st82{stroke:#000000;stroke-width:3.5706;stroke-miterlimit:10;}
	.st83{fill:url(#SVGID_9_);}
	.st84{fill:#FFFFFF;stroke:#000000;stroke-width:0.5275;stroke-miterlimit:10;}
	.st85{fill:#F47D30;stroke:#000000;stroke-width:0.3708;stroke-miterlimit:10;}
	.st86{fill:#F47D30;stroke:#000000;stroke-width:3.5865;stroke-linecap:round;stroke-linejoin:round;stroke-miterlimit:10;}
	.st87{fill:none;stroke:#000000;stroke-miterlimit:10;}
	.st88{fill:none;stroke:#000000;stroke-width:1.0412;stroke-linecap:round;stroke-linejoin:round;stroke-miterlimit:10;}
	.st89{fill:none;stroke:#000000;stroke-width:1.0701;stroke-linecap:round;stroke-linejoin:round;stroke-miterlimit:10;}
	.st90{fill:none;stroke:#000000;stroke-width:0.5;stroke-linecap:round;stroke-linejoin:round;stroke-miterlimit:10;}
	.st91{fill:#FFFFFF;stroke:#000000;stroke-linecap:round;stroke-linejoin:round;stroke-miterlimit:10;}
	.st92{fill:none;stroke:#FCFCFC;stroke-width:0.5;stroke-miterlimit:10;}
	.st93{fill:#FFFFFF;stroke:#000000;stroke-width:0.5;stroke-miterlimit:10;}
	.st94{fill:none;stroke:#F47D30;stroke-width:2;stroke-miterlimit:10;}
	.st95{fill:none;stroke:#F47D30;stroke-width:2;stroke-linecap:round;stroke-linejoin:round;stroke-miterlimit:10;}
	.st96{fill:#FFE396;stroke:#F47D30;stroke-width:2;stroke-linecap:round;stroke-linejoin:round;stroke-miterlimit:10;}
	.st97{fill:#FFE396;stroke:#F47D30;stroke-linecap:round;stroke-linejoin:round;stroke-miterlimit:10;}
	.st98{fill:none;stroke:#F47D30;stroke-width:0.4505;stroke-linecap:round;stroke-linejoin:round;stroke-miterlimit:10;}
	.st99{fill:none;stroke:#F47D30;stroke-width:1.5113;stroke-linecap:round;stroke-linejoin:round;stroke-miterlimit:10;}
	.st100{fill:none;stroke:#F47D30;stroke-width:0.7062;stroke-linecap:round;stroke-linejoin:round;stroke-miterlimit:10;}
	.st101{fill:#FFE396;stroke:#F47D30;stroke-width:1.1386;stroke-linecap:round;stroke-linejoin:round;stroke-miterlimit:10;}
	.st102{fill:none;stroke:#F47D30;stroke-width:0.532;stroke-linecap:round;stroke-linejoin:round;stroke-miterlimit:10;}
	.st103{fill:none;stroke:#F47D30;stroke-width:1.7905;stroke-linecap:round;stroke-linejoin:round;stroke-miterlimit:10;}
	.st104{fill:none;stroke:#F47D30;stroke-width:1.7905;stroke-miterlimit:10;}
	.st105{fill:none;stroke:#F47D30;stroke-width:0.8952;stroke-miterlimit:10;}
	.st106{fill:#FFE396;stroke:#F47D30;stroke-width:0.8952;stroke-miterlimit:10;}
	.st107{fill:none;stroke:#F47D30;stroke-width:2.4548;stroke-miterlimit:10;}
	.st108{fill:none;stroke:#F47D30;stroke-width:1.8163;stroke-miterlimit:10;}
	.st109{fill:url(#SVGID_10_);}
	.st110{fill:#FFFFFF;stroke:#000000;stroke-width:7.7517;stroke-miterlimit:10;}
	.st111{fill:#F47D30;stroke:#000000;stroke-width:5.4481;stroke-miterlimit:10;}
	.st112{fill:none;stroke:#F47D30;stroke-width:0.75;stroke-linecap:round;stroke-linejoin:round;stroke-miterlimit:10;}
	.st113{fill:none;stroke:#000000;stroke-width:1.236;stroke-miterlimit:10;}
	.st114{fill:none;stroke:#000000;stroke-width:1.019;stroke-miterlimit:10;}
	.st115{fill:none;stroke:#000000;stroke-width:0.5;stroke-miterlimit:10;}
	.st116{fill:none;stroke:#F47D30;stroke-width:2.0522;stroke-miterlimit:10;}
	.st117{fill:none;stroke:#F47D30;stroke-width:2.025;stroke-miterlimit:10;}
	.st118{fill:none;stroke:#F47D30;stroke-width:2.0636;stroke-miterlimit:10;}
	.st119{fill:none;stroke:#F47D30;stroke-width:1.0125;stroke-miterlimit:10;}
	.st120{fill:#FFFFFF;stroke:#000000;stroke-width:0.3791;stroke-linecap:round;stroke-linejoin:round;stroke-miterlimit:10;}
	.st121{fill:#FFFFFF;stroke:#000000;stroke-width:0.3908;stroke-linecap:round;stroke-linejoin:round;stroke-miterlimit:10;}
	.st122{fill:#FF0000;stroke:#000000;stroke-width:0.3908;stroke-linecap:round;stroke-linejoin:round;stroke-miterlimit:10;}
	.st123{fill:#FFE396;stroke:#F47D30;stroke-width:2.4633;stroke-linecap:round;stroke-linejoin:round;stroke-miterlimit:10;}
	.st124{fill:url(#SVGID_11_);}
</style>
<g id="Layer_1">
	<rect x="0" y="-0.5" class="st0" width="1366" height="768"/>
	<path class="st24" d="M382.68,137.2c-0.46,0.47-13.86-11.76-41.82-38.31c-0.49,24.37-1.07,34.9-1.72,34.91
		c-0.64,0.01-1.42-10.52-2.34-34.88c-27.54,27-40.74,39.44-41.21,38.98c-0.47-0.46,11.76-13.86,38.31-41.82
		c-45.06-0.47-66.6-1.05-66.6-1.72c0-0.67,21.53-1.44,66.57-2.34c-27-27.54-39.44-40.74-38.98-41.21s13.86,11.76,41.82,38.31
		c0.49-24.37,1.07-34.9,1.72-34.91c0.64-0.01,1.42,10.52,2.34,34.88c27.54-27,40.74-39.44,41.21-38.98s-11.76,13.86-38.31,41.82
		c49.21,0,72.93,0.34,72.94,1.01c0.01,0.67-23.7,1.68-72.91,3.05C370.71,123.54,383.15,136.73,382.68,137.2z"/>
	<path class="st94" d="M167.5,144.45c-0.06-0.06-0.12-0.13-0.18-0.2c-6.19-6.76-11.22-12.78-15.03-17.55
		c-2.01-2.51-3.52-4.51-5.38-7.07l-4.14,3.25c0.01,0.01,0.01,0.01,0.01,0.01c5.29,5.34,12.76,13.48,20.76,24.5
		c0.05,0.07,0.11,0.15,0.16,0.22C164.96,146.56,166.23,145.51,167.5,144.45z"/>
	<path class="st95" d="M92.07,47.48c-2.73-2.36-6.8-2.35-9.51,0c-2.73,2.38-3.29,6.47-1.27,9.51
		c19.67,22.35,40.02,44.19,61.08,65.51c0.06,0.06,0.33,0.33,0.39,0.39l4.14-3.25C144.55,116.41,94.13,49.72,92.07,47.48z"/>
	<path class="st95" d="M171.1,147.34l-5.66,4.63c-0.33,0.27-0.82,0.22-1.1-0.11l-1.82-2.23c-0.27-0.33-0.22-0.82,0.11-1.1l5.66-4.63
		c0.33-0.27,0.82-0.22,1.1,0.11l1.82,2.23C171.48,146.58,171.43,147.07,171.1,147.34z"/>
	<path class="st94" d="M611.5,513.45c-0.06-0.06-0.12-0.13-0.18-0.2c-6.19-6.76-11.22-12.78-15.03-17.55
		c-2.01-2.51-3.52-4.51-5.38-7.07l-4.14,3.25c0.01,0.01,0.01,0.01,0.01,0.01c5.29,5.34,12.76,13.48,20.76,24.5
		c0.05,0.07,0.11,0.15,0.16,0.22C608.96,515.56,610.23,514.51,611.5,513.45z"/>
	<path class="st95" d="M536.07,416.48c-2.73-2.36-6.8-2.35-9.51,0c-2.73,2.38-3.29,6.47-1.27,9.51
		c19.67,22.35,40.02,44.19,61.08,65.51c0.06,0.06,0.33,0.33,0.39,0.39l4.14-3.25C588.55,485.41,538.13,418.72,536.07,416.48z"/>
	<path class="st95" d="M615.1,516.34l-5.66,4.63c-0.33,0.27-0.82,0.22-1.1-0.11l-1.82-2.23c-0.27-0.33-0.22-0.82,0.11-1.1l5.66-4.63
		c0.33-0.27,0.82-0.22,1.1,0.11l1.82,2.23C615.48,515.58,615.43,516.07,615.1,516.34z"/>
	<path class="st94" d="M296.97,313.45c0.06-0.06,0.12-0.13,0.18-0.2c6.19-6.76,11.22-12.78,15.03-17.55
		c2.01-2.51,3.52-4.51,5.38-7.07l4.14,3.25c-0.01,0.01-0.01,0.01-0.01,0.01c-5.29,5.34-12.76,13.48-20.76,24.5
		c-0.05,0.07-0.11,0.15-0.16,0.22C299.51,315.56,298.24,314.51,296.97,313.45z"/>
	<path class="st95" d="M372.39,216.48c2.73-2.36,6.8-2.35,9.51,0c2.73,2.38,3.29,6.47,1.27,9.51
		c-19.67,22.35-40.02,44.19-61.08,65.51c-0.06,0.06-0.33,0.33-0.39,0.39l-4.14-3.25C319.92,285.41,370.34,218.72,372.39,216.48z"/>
	<path class="st95" d="M293.37,316.34l5.66,4.63c0.33,0.27,0.82,0.22,1.1-0.11l1.82-2.23c0.27-0.33,0.22-0.82-0.11-1.1l-5.66-4.63
		c-0.33-0.27-0.82-0.22-1.1,0.11l-1.82,2.23C292.99,315.58,293.04,316.07,293.37,316.34z"/>
	<path class="st94" d="M959.97,321.45c0.06-0.06,0.12-0.13,0.18-0.2c6.19-6.76,11.22-12.78,15.03-17.55
		c2.01-2.51,3.52-4.51,5.38-7.07l4.14,3.25c-0.01,0.01-0.01,0.01-0.01,0.01c-5.29,5.34-12.76,13.48-20.76,24.5
		c-0.05,0.07-0.11,0.15-0.16,0.22C962.51,323.56,961.24,322.51,959.97,321.45z"/>
	<path class="st95" d="M1035.4,224.48c2.73-2.36,6.8-2.35,9.51,0c2.73,2.38,3.29,6.47,1.27,9.51
		c-19.67,22.35-40.02,44.19-61.08,65.51c-0.06,0.06-0.33,0.33-0.39,0.39l-4.14-3.25C982.92,293.41,1033.34,226.72,1035.4,224.48z"/>
	<path class="st95" d="M956.37,324.34l5.66,4.63c0.33,0.27,0.82,0.22,1.1-0.11l1.82-2.23c0.27-0.33,0.22-0.82-0.11-1.1l-5.66-4.63
		c-0.33-0.27-0.82-0.22-1.1,0.11l-1.82,2.23C955.99,323.58,956.04,324.07,956.37,324.34z"/>
	<path class="st94" d="M384.5,709.45c-0.06-0.06-0.12-0.13-0.18-0.2c-6.19-6.76-11.22-12.78-15.03-17.55
		c-2.01-2.51-3.52-4.51-5.38-7.07l-4.14,3.25c0.01,0.01,0.01,0.01,0.01,0.01c5.29,5.34,12.76,13.48,20.76,24.5
		c0.05,0.07,0.11,0.15,0.16,0.22C381.96,711.56,383.23,710.51,384.5,709.45z"/>
	<path class="st96" d="M309.07,612.48c-2.73-2.35-6.8-2.35-9.51,0c-2.73,2.38-3.29,6.47-1.27,9.51
		c19.67,22.35,40.02,44.19,61.08,65.51c0.06,0.06,0.33,0.33,0.39,0.39l4.14-3.25C361.55,681.41,311.13,614.72,309.07,612.48z"/>
	<path class="st95" d="M388.1,712.34l-5.66,4.63c-0.33,0.27-0.82,0.22-1.1-0.11l-1.82-2.23c-0.27-0.33-0.22-0.82,0.11-1.1l5.66-4.63
		c0.33-0.27,0.82-0.22,1.1,0.11l1.82,2.23C388.48,711.58,388.43,712.07,388.1,712.34z"/>
	<path class="st94" d="M302.97,707.45c0.06-0.06,0.12-0.13,0.18-0.2c6.19-6.76,11.22-12.78,15.03-17.55
		c2.01-2.51,3.52-4.51,5.38-7.07l4.14,3.25c-0.01,0.01-0.01,0.01-0.01,0.01c-5.29,5.34-12.76,13.48-20.76,24.5
		c-0.05,0.07-0.11,0.15-0.16,0.22C305.51,709.56,304.24,708.51,302.97,707.45z"/>
	<path class="st96" d="M378.39,610.48c2.73-2.35,6.8-2.35,9.51,0c2.73,2.38,3.29,6.47,1.27,9.51
		c-19.67,22.35-40.02,44.19-61.08,65.51c-0.06,0.06-0.33,0.33-0.39,0.39l-4.14-3.25C325.92,679.41,376.34,612.72,378.39,610.48z"/>
	<path class="st95" d="M299.37,710.34l5.66,4.63c0.33,0.27,0.82,0.22,1.1-0.11l1.82-2.23c0.27-0.33,0.22-0.82-0.11-1.1l-5.66-4.63
		c-0.33-0.27-0.82-0.22-1.1,0.11l-1.82,2.23C298.99,709.58,299.04,710.07,299.37,710.34z"/>
	<path class="st97" d="M331.15,650.05c2.99-2.85,6.9-4.36,10.86-4.51c0.72-0.03,1.45-0.01,2.16,0.06c3.6,0.32,7.11,1.8,9.92,4.45
		c3.61,3.41,5.33,8.08,5.18,12.7c0.01,0.04,0,0.09-0.01,0.13c-0.14,3.63-1.45,7.22-3.9,10.1c-6.05,7.1-17.27,7.87-24.21,1.27
		C324.23,667.68,324.4,656.46,331.15,650.05z"/>
	<path class="st98" d="M345.17,660.24c0.21-0.64,0.42-1.27,0.64-1.91c0.64-0.21,1.27-0.42,1.91-0.64"/>
	<path class="st98" d="M343.66,658.7c0.3-0.6,0.61-1.2,0.91-1.8c0.66-0.12,1.32-0.23,1.98-0.35"/>
	<path class="st98" d="M342.4,656.95c0.39-0.55,0.78-1.09,1.17-1.64c0.67-0.02,1.34-0.03,2.01-0.05"/>
	<path class="st98" d="M341.42,655.03c0.47-0.48,0.93-0.96,1.4-1.45c0.67,0.08,1.33,0.17,2,0.25"/>
	<path class="st98" d="M340.73,652.99c0.53-0.41,1.07-0.81,1.6-1.22c0.65,0.18,1.29,0.37,1.94,0.55"/>
	<path class="st98" d="M340.36,650.87c0.59-0.32,1.18-0.65,1.77-0.97c0.61,0.28,1.22,0.55,1.84,0.83"/>
	<path class="st98" d="M340.3,648.71c0.63-0.23,1.26-0.46,1.89-0.7c0.56,0.37,1.13,0.73,1.69,1.09"/>
	<path class="st98" d="M340.56,646.58c0.66-0.14,1.32-0.27,1.97-0.41c0.5,0.44,1.01,0.89,1.51,1.33"/>
	<path class="st98" d="M359.44,663.07c-0.45-0.5-0.9-1-1.35-1.5c0.13-0.66,0.26-1.32,0.39-1.98"/>
	<path class="st98" d="M357.35,663.62c-0.37-0.56-0.74-1.12-1.11-1.68c0.23-0.63,0.45-1.26,0.68-1.9"/>
	<path class="st98" d="M355.21,663.85c-0.28-0.61-0.57-1.22-0.85-1.83c0.32-0.59,0.63-1.18,0.95-1.78"/>
	<path class="st98" d="M353.06,663.76c-0.19-0.64-0.38-1.29-0.57-1.93c0.4-0.54,0.8-1.08,1.21-1.61"/>
	<path class="st98" d="M350.94,663.35c-0.09-0.67-0.18-1.33-0.27-2c0.48-0.47,0.96-0.94,1.43-1.42"/>
	<path class="st98" d="M348.91,662.63c0.01-0.67,0.02-1.34,0.03-2.01c0.54-0.4,1.09-0.79,1.63-1.19"/>
	<path class="st98" d="M347,661.62c0.11-0.66,0.22-1.33,0.33-1.99c0.6-0.31,1.19-0.62,1.79-0.93"/>
	<path class="st98" d="M345.27,660.34c0.21-0.64,0.41-1.28,0.62-1.92c0.64-0.22,1.27-0.44,1.9-0.66"/>
	<path class="st98" d="M340.68,664.73c-0.64,0.21-1.27,0.42-1.91,0.64c-0.21,0.64-0.42,1.27-0.64,1.91"/>
	<path class="st98" d="M339.14,663.23c-0.6,0.3-1.2,0.61-1.8,0.91c-0.12,0.66-0.23,1.32-0.35,1.98"/>
	<path class="st98" d="M337.39,661.97c-0.55,0.39-1.09,0.78-1.64,1.17c-0.02,0.67-0.03,1.34-0.05,2.01"/>
	<path class="st98" d="M335.47,660.98c-0.48,0.47-0.96,0.93-1.45,1.4c0.08,0.67,0.17,1.33,0.25,2"/>
	<path class="st98" d="M333.43,660.3c-0.41,0.53-0.81,1.07-1.22,1.6c0.18,0.65,0.37,1.29,0.55,1.94"/>
	<path class="st98" d="M331.31,659.92c-0.32,0.59-0.65,1.18-0.97,1.77c0.28,0.61,0.55,1.22,0.83,1.84"/>
	<path class="st98" d="M329.15,659.86c-0.23,0.63-0.46,1.26-0.7,1.89c0.37,0.56,0.73,1.13,1.09,1.69"/>
	<path class="st98" d="M327.01,660.13c-0.14,0.66-0.27,1.32-0.41,1.97c0.44,0.5,0.89,1.01,1.33,1.51"/>
	<path class="st98" d="M343.5,679c-0.5-0.45-1-0.9-1.5-1.35c-0.66,0.13-1.32,0.26-1.98,0.39"/>
	<path class="st98" d="M344.05,676.92c-0.56-0.37-1.12-0.74-1.68-1.11c-0.63,0.23-1.26,0.45-1.9,0.68"/>
	<path class="st98" d="M344.29,674.77c-0.61-0.28-1.22-0.57-1.83-0.85c-0.59,0.32-1.18,0.63-1.78,0.95"/>
	<path class="st98" d="M344.2,672.62c-0.64-0.19-1.29-0.38-1.93-0.57c-0.54,0.4-1.08,0.8-1.61,1.21"/>
	<path class="st98" d="M343.79,670.5c-0.67-0.09-1.33-0.18-2-0.27c-0.47,0.48-0.94,0.96-1.42,1.43"/>
	<path class="st98" d="M343.07,668.47c-0.67,0.01-1.34,0.02-2.01,0.03c-0.4,0.54-0.79,1.09-1.19,1.63"/>
	<path class="st98" d="M342.06,666.57c-0.66,0.11-1.33,0.22-1.99,0.33c-0.31,0.6-0.62,1.19-0.93,1.79"/>
	<path class="st98" d="M340.77,664.84c-0.64,0.21-1.28,0.41-1.92,0.62c-0.22,0.64-0.44,1.27-0.66,1.91"/>
	<path class="st98" d="M341.98,678.72c1.55-4.7,0.31-9.88-3.19-13.38c-3.37-3.37-8.31-4.64-12.86-3.34"/>
	<path class="st98" d="M359.18,660.88c-4.59,1.87-9.85,0.86-13.38-2.55c-3.38-3.27-4.62-8.22-3.19-12.74"/>
	<path class="st94" d="M825.5,505.45c-0.06-0.06-0.12-0.13-0.18-0.2c-6.19-6.76-11.22-12.78-15.03-17.55
		c-2.01-2.51-3.52-4.51-5.38-7.07l-4.14,3.25c0.01,0.01,0.01,0.01,0.01,0.01c5.29,5.34,12.76,13.48,20.76,24.5
		c0.05,0.07,0.11,0.15,0.16,0.22C822.96,507.56,824.23,506.51,825.5,505.45z"/>
	<path class="st96" d="M750.07,408.48c-2.73-2.36-6.8-2.35-9.51,0c-2.73,2.38-3.29,6.47-1.27,9.51
		c19.67,22.35,40.02,44.19,61.08,65.51c0.06,0.06,0.33,0.33,0.39,0.39l4.14-3.25C802.55,477.41,752.13,410.72,750.07,408.48z"/>
	<path class="st95" d="M829.1,508.34l-5.66,4.63c-0.33,0.27-0.82,0.22-1.1-0.11l-1.82-2.23c-0.27-0.33-0.22-0.82,0.11-1.1l5.66-4.63
		c0.33-0.27,0.82-0.22,1.1,0.11l1.82,2.23C829.48,507.58,829.43,508.07,829.1,508.34z"/>
	<path class="st94" d="M743.97,503.45c0.06-0.06,0.12-0.13,0.18-0.2c6.19-6.76,11.22-12.78,15.03-17.55
		c2.01-2.51,3.52-4.51,5.38-7.07l4.14,3.25c-0.01,0.01-0.01,0.01-0.01,0.01c-5.29,5.34-12.76,13.48-20.76,24.5
		c-0.05,0.07-0.11,0.15-0.16,0.22C746.51,505.56,745.24,504.51,743.97,503.45z"/>
	<path class="st96" d="M819.4,406.48c2.73-2.36,6.8-2.35,9.51,0c2.73,2.38,3.29,6.47,1.27,9.51
		c-19.67,22.35-40.02,44.19-61.08,65.51c-0.06,0.06-0.33,0.33-0.39,0.39l-4.14-3.25C766.92,475.41,817.34,408.72,819.4,406.48z"/>
	<path class="st95" d="M740.37,506.34l5.66,4.63c0.33,0.27,0.82,0.22,1.1-0.11l1.82-2.23c0.27-0.33,0.22-0.82-0.11-1.1l-5.66-4.63
		c-0.33-0.27-0.82-0.22-1.1,0.11l-1.82,2.23C739.99,505.58,740.04,506.07,740.37,506.34z"/>
	<path class="st97" d="M772.15,446.05c2.99-2.85,6.9-4.36,10.86-4.51c0.72-0.03,1.45-0.01,2.16,0.06c3.6,0.32,7.11,1.8,9.92,4.45
		c3.61,3.41,5.33,8.08,5.18,12.7c0.01,0.04,0,0.09-0.01,0.13c-0.14,3.63-1.45,7.22-3.9,10.1c-6.05,7.1-17.27,7.87-24.21,1.27
		C765.23,463.68,765.4,452.46,772.15,446.05z"/>
	<path class="st98" d="M786.17,456.24c0.21-0.64,0.42-1.27,0.64-1.91c0.64-0.21,1.27-0.42,1.91-0.64"/>
	<path class="st98" d="M784.66,454.7c0.3-0.6,0.61-1.2,0.91-1.8c0.66-0.12,1.32-0.23,1.98-0.35"/>
	<path class="st98" d="M783.4,452.95c0.39-0.55,0.78-1.09,1.17-1.64c0.67-0.02,1.34-0.03,2.01-0.05"/>
	<path class="st98" d="M782.42,451.03c0.47-0.48,0.93-0.96,1.4-1.45c0.67,0.08,1.33,0.17,2,0.25"/>
	<path class="st98" d="M781.73,448.99c0.53-0.41,1.07-0.81,1.6-1.22c0.65,0.18,1.29,0.37,1.94,0.55"/>
	<path class="st98" d="M781.36,446.87c0.59-0.32,1.18-0.65,1.77-0.97c0.61,0.28,1.22,0.55,1.84,0.83"/>
	<path class="st98" d="M781.3,444.71c0.63-0.23,1.26-0.46,1.89-0.7c0.56,0.37,1.13,0.73,1.69,1.09"/>
	<path class="st98" d="M781.56,442.58c0.66-0.14,1.32-0.27,1.97-0.41c0.5,0.44,1.01,0.89,1.51,1.33"/>
	<path class="st98" d="M800.44,459.07c-0.45-0.5-0.9-1-1.35-1.5c0.13-0.66,0.26-1.32,0.39-1.98"/>
	<path class="st98" d="M798.35,459.62c-0.37-0.56-0.74-1.12-1.11-1.68c0.23-0.63,0.45-1.26,0.68-1.9"/>
	<path class="st98" d="M796.21,459.85c-0.28-0.61-0.57-1.22-0.85-1.83c0.32-0.59,0.64-1.18,0.95-1.78"/>
	<path class="st98" d="M794.06,459.76c-0.19-0.64-0.38-1.29-0.57-1.93c0.4-0.54,0.8-1.08,1.21-1.61"/>
	<path class="st98" d="M791.94,459.35c-0.09-0.67-0.18-1.33-0.27-2c0.48-0.47,0.96-0.94,1.43-1.42"/>
	<path class="st98" d="M789.91,458.63c0.01-0.67,0.02-1.34,0.03-2.01c0.54-0.4,1.09-0.79,1.63-1.19"/>
	<path class="st98" d="M788,457.62c0.11-0.66,0.22-1.33,0.33-1.99c0.6-0.31,1.19-0.62,1.79-0.93"/>
	<path class="st98" d="M786.27,456.34c0.21-0.64,0.41-1.28,0.62-1.92c0.64-0.22,1.27-0.44,1.9-0.66"/>
	<path class="st98" d="M781.68,460.73c-0.64,0.21-1.27,0.42-1.91,0.64c-0.21,0.64-0.42,1.27-0.64,1.91"/>
	<path class="st98" d="M780.14,459.23c-0.6,0.3-1.2,0.61-1.8,0.91c-0.12,0.66-0.23,1.32-0.35,1.98"/>
	<path class="st98" d="M778.39,457.97c-0.55,0.39-1.09,0.78-1.64,1.17c-0.02,0.67-0.03,1.34-0.05,2.01"/>
	<path class="st98" d="M776.47,456.98c-0.48,0.47-0.96,0.93-1.45,1.4c0.08,0.67,0.17,1.33,0.25,2"/>
	<path class="st98" d="M774.43,456.3c-0.41,0.53-0.81,1.07-1.22,1.6c0.18,0.65,0.37,1.29,0.55,1.94"/>
	<path class="st98" d="M772.31,455.92c-0.32,0.59-0.65,1.18-0.97,1.77c0.28,0.61,0.55,1.22,0.83,1.84"/>
	<path class="st98" d="M770.15,455.86c-0.23,0.63-0.46,1.26-0.7,1.89c0.37,0.56,0.73,1.13,1.09,1.69"/>
	<path class="st98" d="M768.01,456.13c-0.14,0.66-0.27,1.32-0.41,1.97c0.44,0.5,0.89,1.01,1.33,1.51"/>
	<path class="st98" d="M784.5,475c-0.5-0.45-1-0.9-1.5-1.35c-0.66,0.13-1.32,0.26-1.98,0.39"/>
	<path class="st98" d="M785.05,472.92c-0.56-0.37-1.12-0.74-1.68-1.11c-0.63,0.23-1.26,0.45-1.9,0.68"/>
	<path class="st98" d="M785.29,470.77c-0.61-0.28-1.22-0.57-1.83-0.85c-0.59,0.32-1.18,0.63-1.78,0.95"/>
	<path class="st98" d="M785.2,468.62c-0.64-0.19-1.29-0.38-1.93-0.57c-0.54,0.4-1.08,0.8-1.61,1.21"/>
	<path class="st98" d="M784.79,466.5c-0.67-0.09-1.33-0.18-2-0.27c-0.47,0.48-0.94,0.96-1.42,1.43"/>
	<path class="st98" d="M784.07,464.47c-0.67,0.01-1.34,0.02-2.01,0.03c-0.4,0.54-0.79,1.09-1.19,1.63"/>
	<path class="st98" d="M783.06,462.57c-0.66,0.11-1.33,0.22-1.99,0.33c-0.31,0.6-0.62,1.19-0.93,1.79"/>
	<path class="st98" d="M781.77,460.84c-0.64,0.21-1.28,0.41-1.92,0.62c-0.22,0.64-0.44,1.27-0.66,1.9"/>
	<path class="st98" d="M782.98,474.72c1.55-4.7,0.31-9.88-3.19-13.38c-3.37-3.37-8.31-4.64-12.86-3.34"/>
	<path class="st98" d="M800.18,456.88c-4.59,1.87-9.85,0.86-13.38-2.55c-3.38-3.27-4.62-8.22-3.19-12.74"/>
	<path class="st94" d="M1255.5,712.45c-0.06-0.06-0.12-0.13-0.18-0.2c-6.19-6.76-11.22-12.78-15.03-17.55
		c-2.01-2.51-3.52-4.51-5.38-7.07l-4.14,3.25c0.01,0.01,0.01,0.01,0.01,0.01c5.29,5.34,12.76,13.48,20.76,24.5
		c0.05,0.07,0.11,0.15,0.16,0.22C1252.96,714.56,1254.23,713.51,1255.5,712.45z"/>
	<path class="st96" d="M1180.07,615.48c-2.73-2.35-6.8-2.35-9.51,0c-2.73,2.38-3.29,6.47-1.27,9.51
		c19.67,22.35,40.02,44.19,61.08,65.51c0.06,0.06,0.33,0.33,0.39,0.39l4.14-3.25C1232.55,684.41,1182.13,617.72,1180.07,615.48z"/>
	<path class="st95" d="M1259.1,715.34l-5.66,4.63c-0.33,0.27-0.82,0.22-1.1-0.11l-1.82-2.23c-0.27-0.33-0.22-0.82,0.11-1.1
		l5.66-4.63c0.33-0.27,0.82-0.22,1.1,0.11l1.82,2.23C1259.48,714.58,1259.43,715.07,1259.1,715.34z"/>
	<path class="st94" d="M1173.97,710.45c0.06-0.06,0.12-0.13,0.18-0.2c6.19-6.76,11.22-12.78,15.03-17.55
		c2.01-2.51,3.52-4.51,5.38-7.07l4.14,3.25c-0.01,0.01-0.01,0.01-0.01,0.01c-5.29,5.34-12.76,13.48-20.76,24.5
		c-0.05,0.07-0.11,0.15-0.16,0.22C1176.51,712.56,1175.24,711.51,1173.97,710.45z"/>
	<path class="st96" d="M1249.4,613.48c2.73-2.35,6.8-2.35,9.51,0c2.73,2.38,3.29,6.47,1.27,9.51
		c-19.67,22.35-40.02,44.19-61.08,65.51c-0.06,0.06-0.33,0.33-0.39,0.39l-4.14-3.25C1196.92,682.41,1247.34,615.72,1249.4,613.48z"
		/>
	<path class="st95" d="M1170.37,713.34l5.66,4.63c0.33,0.27,0.82,0.22,1.1-0.11l1.82-2.23c0.27-0.33,0.22-0.82-0.11-1.1l-5.66-4.63
		c-0.33-0.27-0.82-0.22-1.1,0.11l-1.82,2.23C1169.99,712.58,1170.04,713.07,1170.37,713.34z"/>
	<path class="st97" d="M1202.15,653.05c2.99-2.85,6.9-4.36,10.86-4.51c0.72-0.03,1.45-0.01,2.16,0.06c3.6,0.32,7.11,1.8,9.92,4.45
		c3.61,3.41,5.33,8.08,5.18,12.7c0.01,0.04,0,0.09-0.01,0.13c-0.14,3.63-1.45,7.22-3.9,10.1c-6.05,7.1-17.27,7.87-24.21,1.27
		C1195.23,670.68,1195.4,659.46,1202.15,653.05z"/>
	<path class="st98" d="M1216.17,663.24c0.21-0.64,0.42-1.27,0.64-1.91c0.64-0.21,1.27-0.42,1.91-0.64"/>
	<path class="st98" d="M1214.66,661.7c0.3-0.6,0.61-1.2,0.91-1.8c0.66-0.12,1.32-0.23,1.98-0.35"/>
	<path class="st98" d="M1213.4,659.95c0.39-0.55,0.78-1.09,1.17-1.64c0.67-0.02,1.34-0.03,2.01-0.05"/>
	<path class="st98" d="M1212.42,658.03c0.47-0.48,0.93-0.96,1.4-1.45c0.67,0.08,1.33,0.17,2,0.25"/>
	<path class="st98" d="M1211.73,655.99c0.53-0.41,1.07-0.81,1.6-1.22c0.65,0.18,1.29,0.37,1.94,0.55"/>
	<path class="st98" d="M1211.36,653.87c0.59-0.32,1.18-0.65,1.77-0.97c0.61,0.28,1.22,0.55,1.84,0.83"/>
	<path class="st98" d="M1211.3,651.71c0.63-0.23,1.26-0.46,1.89-0.7c0.56,0.37,1.13,0.73,1.69,1.09"/>
	<path class="st98" d="M1211.56,649.58c0.66-0.14,1.32-0.27,1.97-0.41c0.5,0.44,1.01,0.89,1.51,1.33"/>
	<path class="st98" d="M1230.44,666.07c-0.45-0.5-0.9-1-1.35-1.5c0.13-0.66,0.26-1.32,0.39-1.98"/>
	<path class="st98" d="M1228.35,666.62c-0.37-0.56-0.74-1.12-1.11-1.68c0.23-0.63,0.45-1.26,0.68-1.9"/>
	<path class="st98" d="M1226.21,666.85c-0.28-0.61-0.57-1.22-0.85-1.83c0.32-0.59,0.64-1.18,0.95-1.78"/>
	<path class="st98" d="M1224.06,666.76c-0.19-0.64-0.38-1.29-0.57-1.93c0.4-0.54,0.8-1.08,1.21-1.61"/>
	<path class="st98" d="M1221.94,666.35c-0.09-0.67-0.18-1.33-0.27-2c0.48-0.47,0.96-0.94,1.43-1.42"/>
	<path class="st98" d="M1219.91,665.63c0.01-0.67,0.02-1.34,0.03-2.01c0.54-0.4,1.09-0.79,1.63-1.19"/>
	<path class="st98" d="M1218,664.62c0.11-0.66,0.22-1.33,0.33-1.99c0.6-0.31,1.19-0.62,1.79-0.93"/>
	<path class="st98" d="M1216.27,663.34c0.21-0.64,0.41-1.28,0.62-1.92c0.64-0.22,1.27-0.44,1.91-0.66"/>
	<path class="st98" d="M1211.68,667.73c-0.64,0.21-1.27,0.42-1.91,0.64c-0.21,0.64-0.42,1.27-0.64,1.91"/>
	<path class="st98" d="M1210.14,666.23c-0.6,0.3-1.2,0.61-1.8,0.91c-0.12,0.66-0.23,1.32-0.35,1.98"/>
	<path class="st98" d="M1208.39,664.97c-0.55,0.39-1.09,0.78-1.64,1.17c-0.02,0.67-0.03,1.34-0.05,2.01"/>
	<path class="st98" d="M1206.47,663.98c-0.48,0.47-0.96,0.93-1.45,1.4c0.08,0.67,0.17,1.33,0.25,2"/>
	<path class="st98" d="M1204.43,663.3c-0.41,0.53-0.81,1.07-1.22,1.6c0.18,0.65,0.37,1.29,0.55,1.94"/>
	<path class="st98" d="M1202.31,662.92c-0.32,0.59-0.65,1.18-0.97,1.77c0.28,0.61,0.55,1.22,0.83,1.84"/>
	<path class="st98" d="M1200.15,662.86c-0.23,0.63-0.46,1.26-0.7,1.89c0.37,0.56,0.73,1.13,1.09,1.69"/>
	<path class="st98" d="M1198.01,663.13c-0.14,0.66-0.27,1.32-0.41,1.97c0.44,0.5,0.89,1.01,1.33,1.51"/>
	<path class="st98" d="M1214.5,682c-0.5-0.45-1-0.9-1.5-1.35c-0.66,0.13-1.32,0.26-1.98,0.39"/>
	<path class="st98" d="M1215.05,679.92c-0.56-0.37-1.12-0.74-1.68-1.11c-0.63,0.23-1.26,0.45-1.9,0.68"/>
	<path class="st98" d="M1215.29,677.77c-0.61-0.28-1.22-0.57-1.83-0.85c-0.59,0.32-1.18,0.63-1.78,0.95"/>
	<path class="st98" d="M1215.2,675.62c-0.64-0.19-1.29-0.38-1.93-0.57c-0.54,0.4-1.08,0.8-1.61,1.21"/>
	<path class="st98" d="M1214.79,673.5c-0.67-0.09-1.33-0.18-2-0.27c-0.47,0.48-0.94,0.96-1.42,1.43"/>
	<path class="st98" d="M1214.07,671.47c-0.67,0.01-1.34,0.02-2.01,0.03c-0.4,0.54-0.79,1.09-1.19,1.63"/>
	<path class="st98" d="M1213.06,669.57c-0.66,0.11-1.33,0.22-1.99,0.33c-0.31,0.6-0.62,1.19-0.93,1.79"/>
	<path class="st98" d="M1211.77,667.84c-0.64,0.21-1.28,0.41-1.92,0.62c-0.22,0.64-0.44,1.27-0.66,1.91"/>
	<path class="st98" d="M1212.98,681.72c1.55-4.7,0.31-9.88-3.19-13.38c-3.37-3.37-8.31-4.64-12.86-3.34"/>
	<path class="st98" d="M1230.18,663.88c-4.59,1.87-9.85,0.86-13.38-2.55c-3.38-3.27-4.62-8.22-3.19-12.74"/>
	<path class="st99" d="M85.12,225.62c4.69-4.47,10.82-6.84,17.02-7.07c1.13-0.05,2.27-0.01,3.39,0.09
		c5.64,0.51,11.15,2.82,15.55,6.98c5.66,5.34,8.36,12.67,8.12,19.9c0.01,0.07,0,0.14-0.01,0.21c-0.22,5.69-2.27,11.32-6.11,15.84
		c-9.48,11.14-27.07,12.33-37.95,2C74.26,253.25,74.53,235.67,85.12,225.62z"/>
	<path class="st100" d="M107.09,241.6c0.33-1,0.67-2,1-3c1-0.33,2-0.67,3-1"/>
	<path class="st100" d="M104.73,239.18c0.48-0.94,0.96-1.88,1.43-2.81c1.04-0.18,2.07-0.36,3.11-0.54"/>
	<path class="st100" d="M102.75,236.44c0.61-0.86,1.22-1.71,1.84-2.57c1.05-0.02,2.1-0.05,3.16-0.07"/>
	<path class="st100" d="M101.21,233.43c0.73-0.76,1.47-1.51,2.2-2.27c1.04,0.13,2.09,0.27,3.13,0.4"/>
	<path class="st100" d="M100.13,230.23c0.84-0.64,1.67-1.28,2.51-1.92c1.01,0.29,2.03,0.57,3.04,0.86"/>
	<path class="st100" d="M99.54,226.9c0.92-0.51,1.85-1.01,2.77-1.52c0.96,0.43,1.92,0.87,2.88,1.3"/>
	<path class="st100" d="M99.45,223.52c0.99-0.36,1.98-0.73,2.96-1.09c0.88,0.57,1.77,1.14,2.65,1.72"/>
	<path class="st100" d="M99.87,220.17c1.03-0.21,2.06-0.43,3.09-0.64c0.79,0.7,1.58,1.39,2.37,2.09"/>
	<path class="st100" d="M129.45,246.02c-0.7-0.78-1.41-1.56-2.11-2.35c0.2-1.03,0.41-2.07,0.61-3.1"/>
	<path class="st100" d="M126.18,246.88c-0.58-0.88-1.16-1.76-1.74-2.63c0.35-0.99,0.71-1.98,1.06-2.97"/>
	<path class="st100" d="M122.83,247.25c-0.44-0.95-0.89-1.91-1.33-2.86c0.5-0.93,1-1.86,1.49-2.78"/>
	<path class="st100" d="M119.45,247.11c-0.3-1.01-0.59-2.02-0.89-3.03c0.63-0.84,1.26-1.69,1.89-2.53"/>
	<path class="st100" d="M116.13,246.47c-0.14-1.04-0.29-2.09-0.43-3.13c0.75-0.74,1.5-1.48,2.25-2.22"/>
	<path class="st100" d="M112.95,245.34c0.01-1.05,0.03-2.11,0.04-3.16c0.85-0.62,1.7-1.24,2.55-1.86"/>
	<path class="st100" d="M109.96,243.76c0.17-1.04,0.34-2.08,0.51-3.12c0.93-0.49,1.87-0.97,2.8-1.46"/>
	<path class="st100" d="M107.25,241.74c0.32-1,0.65-2,0.97-3.01c1-0.34,1.99-0.69,2.99-1.03"/>
	<path class="st100" d="M100.05,248.64c-1,0.33-2,0.67-3,1c-0.33,1-0.67,2-1,3"/>
	<path class="st100" d="M97.63,246.28c-0.94,0.48-1.88,0.96-2.81,1.43c-0.18,1.04-0.36,2.07-0.54,3.11"/>
	<path class="st100" d="M94.89,244.3c-0.86,0.61-1.71,1.22-2.57,1.84c-0.02,1.05-0.05,2.1-0.07,3.16"/>
	<path class="st100" d="M91.88,242.76c-0.76,0.73-1.51,1.47-2.27,2.2c0.13,1.04,0.27,2.09,0.4,3.13"/>
	<path class="st100" d="M88.68,241.68c-0.64,0.84-1.28,1.67-1.92,2.51c0.29,1.01,0.57,2.03,0.86,3.04"/>
	<path class="st100" d="M85.35,241.09c-0.51,0.92-1.01,1.85-1.52,2.77c0.43,0.96,0.87,1.92,1.3,2.88"/>
	<path class="st100" d="M81.98,241c-0.36,0.99-0.73,1.98-1.09,2.96c0.57,0.88,1.14,1.77,1.72,2.65"/>
	<path class="st100" d="M78.62,241.41c-0.21,1.03-0.43,2.06-0.64,3.09c0.7,0.79,1.39,1.58,2.09,2.37"/>
	<path class="st100" d="M104.48,271c-0.78-0.7-1.56-1.41-2.35-2.11c-1.03,0.2-2.07,0.41-3.1,0.61"/>
	<path class="st100" d="M105.34,267.73c-0.88-0.58-1.76-1.16-2.63-1.74c-0.99,0.35-1.98,0.71-2.97,1.06"/>
	<path class="st100" d="M105.7,264.37c-0.95-0.44-1.91-0.89-2.86-1.33c-0.93,0.5-1.86,1-2.78,1.49"/>
	<path class="st100" d="M105.56,261c-1.01-0.3-2.02-0.59-3.03-0.89c-0.84,0.63-1.69,1.26-2.53,1.89"/>
	<path class="st100" d="M104.92,257.68c-1.04-0.14-2.09-0.29-3.13-0.43c-0.74,0.75-1.48,1.5-2.22,2.25"/>
	<path class="st100" d="M103.8,254.49c-1.05,0.01-2.11,0.03-3.16,0.04c-0.62,0.85-1.24,1.7-1.86,2.55"/>
	<path class="st100" d="M102.21,251.51c-1.04,0.17-2.08,0.34-3.12,0.51c-0.49,0.93-0.97,1.87-1.46,2.8"/>
	<path class="st100" d="M100.19,248.8c-1,0.32-2,0.65-3.01,0.97c-0.34,1-0.69,1.99-1.03,2.99"/>
	<path class="st100" d="M102.09,270.56c2.42-7.36,0.49-15.49-4.99-20.97c-5.28-5.28-13.02-7.27-20.17-5.24"/>
	<path class="st100" d="M129.06,242.6c-7.19,2.92-15.44,1.35-20.97-3.99c-5.3-5.12-7.24-12.88-4.99-19.97"/>
	<path class="st101" d="M326.1,79.81c3.54-3.37,8.15-5.15,12.82-5.33c0.85-0.04,1.71-0.01,2.55,0.07c4.25,0.38,8.4,2.12,11.71,5.26
		c4.27,4.03,6.3,9.55,6.12,15c0.01,0.05,0,0.11-0.01,0.16c-0.17,4.29-1.71,8.52-4.6,11.93c-7.14,8.39-20.4,9.29-28.59,1.5
		C317.92,100.63,318.12,87.38,326.1,79.81z"/>
	<path class="st102" d="M342.65,91.85c0.25-0.75,0.5-1.5,0.75-2.26c0.75-0.25,1.5-0.5,2.26-0.75"/>
	<path class="st102" d="M340.87,90.03c0.36-0.71,0.72-1.41,1.08-2.12c0.78-0.14,1.56-0.27,2.34-0.41"/>
	<path class="st102" d="M339.39,87.96c0.46-0.65,0.92-1.29,1.38-1.94c0.79-0.02,1.59-0.04,2.38-0.05"/>
	<path class="st102" d="M338.22,85.7c0.55-0.57,1.1-1.14,1.66-1.71c0.79,0.1,1.57,0.2,2.36,0.3"/>
	<path class="st102" d="M337.41,83.28c0.63-0.48,1.26-0.96,1.89-1.44c0.76,0.22,1.53,0.43,2.29,0.65"/>
	<path class="st102" d="M336.97,80.78c0.7-0.38,1.39-0.76,2.09-1.15c0.72,0.33,1.44,0.65,2.17,0.98"/>
	<path class="st102" d="M336.9,78.23c0.74-0.27,1.49-0.55,2.23-0.82c0.67,0.43,1.33,0.86,2,1.29"/>
	<path class="st102" d="M337.21,75.71c0.78-0.16,1.55-0.32,2.33-0.48c0.59,0.53,1.19,1.05,1.78,1.58"/>
	<path class="st102" d="M359.5,95.18c-0.53-0.59-1.06-1.18-1.59-1.77c0.15-0.78,0.31-1.56,0.46-2.33"/>
	<path class="st102" d="M357.04,95.83c-0.44-0.66-0.87-1.32-1.31-1.98c0.27-0.75,0.53-1.49,0.8-2.24"/>
	<path class="st102" d="M354.51,96.11c-0.33-0.72-0.67-1.44-1-2.16c0.38-0.7,0.75-1.4,1.13-2.1"/>
	<path class="st102" d="M351.96,96c-0.22-0.76-0.45-1.52-0.67-2.28c0.48-0.64,0.95-1.27,1.42-1.91"/>
	<path class="st102" d="M349.46,95.52c-0.11-0.79-0.21-1.57-0.32-2.36c0.56-0.56,1.13-1.11,1.69-1.67"/>
	<path class="st102" d="M347.06,94.67c0.01-0.79,0.02-1.59,0.03-2.38c0.64-0.47,1.28-0.93,1.92-1.4"/>
	<path class="st102" d="M344.82,93.47c0.13-0.78,0.26-1.57,0.39-2.35c0.7-0.37,1.41-0.73,2.11-1.1"/>
	<path class="st102" d="M342.77,91.96c0.24-0.75,0.49-1.51,0.73-2.26c0.75-0.26,1.5-0.52,2.25-0.77"/>
	<path class="st102" d="M337.35,97.15c-0.75,0.25-1.5,0.5-2.26,0.75c-0.25,0.75-0.5,1.5-0.75,2.26"/>
	<path class="st102" d="M335.53,95.37c-0.71,0.36-1.41,0.72-2.12,1.08c-0.14,0.78-0.27,1.56-0.41,2.34"/>
	<path class="st102" d="M333.46,93.89c-0.65,0.46-1.29,0.92-1.94,1.38c-0.02,0.79-0.04,1.59-0.05,2.38"/>
	<path class="st102" d="M331.2,92.72c-0.57,0.55-1.14,1.1-1.71,1.66c0.1,0.79,0.2,1.57,0.3,2.36"/>
	<path class="st102" d="M328.78,91.91c-0.48,0.63-0.96,1.26-1.44,1.89c0.22,0.76,0.43,1.53,0.65,2.29"/>
	<path class="st102" d="M326.28,91.47c-0.38,0.7-0.76,1.39-1.15,2.09c0.33,0.72,0.65,1.44,0.98,2.17"/>
	<path class="st102" d="M323.73,91.4c-0.27,0.74-0.55,1.49-0.82,2.23c0.43,0.67,0.86,1.33,1.29,2"/>
	<path class="st102" d="M321.21,91.71c-0.16,0.78-0.32,1.55-0.48,2.33c0.53,0.59,1.05,1.19,1.58,1.78"/>
	<path class="st102" d="M340.68,114c-0.59-0.53-1.18-1.06-1.77-1.59c-0.78,0.15-1.56,0.31-2.33,0.46"/>
	<path class="st102" d="M341.33,111.54c-0.66-0.44-1.32-0.87-1.98-1.31c-0.75,0.27-1.49,0.53-2.24,0.8"/>
	<path class="st102" d="M341.61,109.01c-0.72-0.33-1.44-0.67-2.16-1c-0.7,0.38-1.4,0.75-2.1,1.13"/>
	<path class="st102" d="M341.5,106.46c-0.76-0.22-1.52-0.45-2.28-0.67c-0.64,0.48-1.27,0.95-1.91,1.42"/>
	<path class="st102" d="M341.02,103.96c-0.79-0.11-1.57-0.21-2.36-0.32c-0.56,0.56-1.11,1.13-1.67,1.69"/>
	<path class="st102" d="M340.17,101.57c-0.79,0.01-1.59,0.02-2.38,0.03c-0.47,0.64-0.93,1.28-1.4,1.92"/>
	<path class="st102" d="M338.97,99.32c-0.78,0.13-1.57,0.26-2.35,0.39c-0.37,0.7-0.73,1.41-1.1,2.11"/>
	<path class="st102" d="M337.46,97.27c-0.75,0.24-1.51,0.49-2.26,0.73c-0.26,0.75-0.52,1.5-0.77,2.25"/>
	<path class="st102" d="M338.89,113.67c1.83-5.55,0.37-11.67-3.76-15.8c-3.98-3.98-9.81-5.48-15.19-3.95"/>
	<path class="st102" d="M359.2,92.6c-5.42,2.2-11.64,1.02-15.8-3.01c-3.99-3.86-5.45-9.71-3.76-15.05"/>
	<path class="st24" d="M1044.68,501.2c-0.46,0.47-13.86-11.76-41.82-38.31c-0.49,24.37-1.07,34.9-1.72,34.91s-1.42-10.52-2.34-34.88
		c-27.54,27-40.74,39.44-41.21,38.98s11.76-13.86,38.31-41.82c-45.06-0.47-66.6-1.05-66.6-1.72c0-0.67,21.53-1.44,66.57-2.34
		c-27-27.54-39.44-40.74-38.98-41.21c0.46-0.47,13.86,11.76,41.82,38.31c0.49-24.37,1.07-34.9,1.72-34.91s1.42,10.52,2.34,34.88
		c27.54-27,40.74-39.44,41.21-38.98c0.47,0.46-11.76,13.86-38.31,41.82c49.21,0,72.93,0.34,72.94,1.01
		c0.01,0.67-23.7,1.68-72.91,3.05C1032.71,487.54,1045.15,500.73,1044.68,501.2z"/>
	<path class="st101" d="M988.1,443.81c3.54-3.37,8.15-5.15,12.82-5.33c0.85-0.04,1.71-0.01,2.55,0.07c4.25,0.38,8.4,2.12,11.71,5.26
		c4.27,4.03,6.3,9.55,6.12,15c0.01,0.05,0,0.11-0.01,0.16c-0.17,4.29-1.71,8.52-4.6,11.93c-7.14,8.39-20.4,9.29-28.59,1.5
		C979.92,464.63,980.12,451.38,988.1,443.81z"/>
	<path class="st102" d="M1004.65,455.85c0.25-0.75,0.5-1.5,0.75-2.26c0.75-0.25,1.5-0.5,2.26-0.75"/>
	<path class="st102" d="M1002.87,454.03c0.36-0.71,0.72-1.41,1.08-2.12c0.78-0.14,1.56-0.27,2.34-0.41"/>
	<path class="st102" d="M1001.39,451.96c0.46-0.65,0.92-1.29,1.38-1.94c0.79-0.02,1.59-0.04,2.38-0.05"/>
	<path class="st102" d="M1000.22,449.7c0.55-0.57,1.1-1.14,1.66-1.71c0.79,0.1,1.57,0.2,2.36,0.3"/>
	<path class="st102" d="M999.41,447.28c0.63-0.48,1.26-0.96,1.89-1.44c0.76,0.22,1.53,0.43,2.29,0.65"/>
	<path class="st102" d="M998.97,444.78c0.7-0.38,1.39-0.76,2.09-1.15c0.72,0.33,1.44,0.65,2.17,0.98"/>
	<path class="st102" d="M998.9,442.23c0.74-0.27,1.49-0.55,2.23-0.82c0.67,0.43,1.33,0.86,2,1.29"/>
	<path class="st102" d="M999.21,439.71c0.78-0.16,1.55-0.32,2.33-0.48c0.59,0.53,1.19,1.05,1.78,1.58"/>
	<path class="st102" d="M1021.5,459.18c-0.53-0.59-1.06-1.18-1.59-1.77c0.15-0.78,0.31-1.56,0.46-2.33"/>
	<path class="st102" d="M1019.04,459.83c-0.44-0.66-0.87-1.32-1.31-1.98c0.27-0.75,0.53-1.49,0.8-2.24"/>
	<path class="st102" d="M1016.51,460.11c-0.33-0.72-0.67-1.44-1-2.16c0.38-0.7,0.75-1.4,1.13-2.1"/>
	<path class="st102" d="M1013.96,460c-0.22-0.76-0.45-1.52-0.67-2.28c0.47-0.64,0.95-1.27,1.42-1.91"/>
	<path class="st102" d="M1011.46,459.52c-0.11-0.79-0.21-1.57-0.32-2.36c0.56-0.56,1.13-1.11,1.69-1.67"/>
	<path class="st102" d="M1009.06,458.67c0.01-0.79,0.02-1.59,0.03-2.38c0.64-0.47,1.28-0.93,1.92-1.4"/>
	<path class="st102" d="M1006.82,457.47c0.13-0.78,0.26-1.57,0.39-2.35c0.7-0.37,1.41-0.73,2.11-1.1"/>
	<path class="st102" d="M1004.77,455.96c0.24-0.75,0.49-1.51,0.73-2.26c0.75-0.26,1.5-0.52,2.25-0.77"/>
	<path class="st102" d="M999.35,461.15c-0.75,0.25-1.5,0.5-2.26,0.75c-0.25,0.75-0.5,1.5-0.75,2.26"/>
	<path class="st102" d="M997.53,459.37c-0.71,0.36-1.41,0.72-2.12,1.08c-0.14,0.78-0.27,1.56-0.41,2.34"/>
	<path class="st102" d="M995.46,457.89c-0.65,0.46-1.29,0.92-1.94,1.38c-0.02,0.79-0.04,1.59-0.05,2.38"/>
	<path class="st102" d="M993.2,456.72c-0.57,0.55-1.14,1.1-1.71,1.66c0.1,0.79,0.2,1.57,0.3,2.36"/>
	<path class="st102" d="M990.78,455.91c-0.48,0.63-0.96,1.26-1.44,1.89c0.22,0.76,0.43,1.53,0.65,2.29"/>
	<path class="st102" d="M988.28,455.47c-0.38,0.7-0.76,1.39-1.15,2.09c0.33,0.72,0.65,1.45,0.98,2.17"/>
	<path class="st102" d="M985.73,455.4c-0.27,0.74-0.55,1.49-0.82,2.23c0.43,0.67,0.86,1.33,1.29,2"/>
	<path class="st102" d="M983.21,455.71c-0.16,0.78-0.32,1.55-0.48,2.33c0.53,0.59,1.05,1.19,1.58,1.78"/>
	<path class="st102" d="M1002.68,478c-0.59-0.53-1.18-1.06-1.77-1.59c-0.78,0.15-1.56,0.31-2.33,0.46"/>
	<path class="st102" d="M1003.33,475.54c-0.66-0.44-1.32-0.87-1.98-1.31c-0.75,0.27-1.49,0.53-2.24,0.8"/>
	<path class="st102" d="M1003.61,473.01c-0.72-0.33-1.44-0.67-2.16-1c-0.7,0.38-1.4,0.75-2.1,1.13"/>
	<path class="st102" d="M1003.5,470.46c-0.76-0.22-1.52-0.45-2.28-0.67c-0.64,0.48-1.27,0.95-1.91,1.42"/>
	<path class="st102" d="M1003.02,467.96c-0.79-0.11-1.57-0.21-2.36-0.32c-0.56,0.56-1.11,1.13-1.67,1.69"/>
	<path class="st102" d="M1002.17,465.57c-0.79,0.01-1.59,0.02-2.38,0.03c-0.47,0.64-0.93,1.28-1.4,1.92"/>
	<path class="st102" d="M1000.97,463.32c-0.78,0.13-1.57,0.26-2.35,0.39c-0.37,0.7-0.73,1.41-1.1,2.11"/>
	<path class="st102" d="M999.46,461.27c-0.75,0.24-1.51,0.49-2.26,0.73c-0.26,0.75-0.52,1.5-0.77,2.25"/>
	<path class="st102" d="M1000.89,477.67c1.83-5.55,0.37-11.67-3.76-15.8c-3.98-3.98-9.81-5.48-15.19-3.95"/>
	<path class="st102" d="M1021.2,456.6c-5.42,2.2-11.64,1.02-15.8-3.01c-3.99-3.86-5.45-9.71-3.76-15.05"/>
	<path class="st103" d="M175.16,629.27c-0.46-0.94-1.52-3.05-3.58-3.58c-3.36-0.88-6.78,3.12-7.16,3.58
		c1.19-4.39-1.77-8.52-5.37-8.95c-2.98-0.36-6.22,1.83-7.16,5.37c0.49-3.44-1.93-6.67-5.37-7.16c-3.44-0.49-6.67,1.93-7.16,5.37
		c-1.51-3.41-4.37-5.52-7.16-5.37c-2.96,0.16-4.82,2.79-5.37,3.58c-0.55,0.78-0.93,1.56-1.21,2.37l0,0c-1,2.8-0.66,5.91-0.58,10.17
		c0.25,12.23-2.02,19.47-3.58,23.28c-1.08,2.63-2.53,5.31-5.37,7.16c-0.79,0.51-3.83,2.49-7.16,1.79c-0.9-0.19-3.67-0.97-7.16-7.16
		c-4.21-7.48-6.27-17.19-7.16-21.49c-0.56-2.7-1.12-5.87-3.58-7.16l0,0c-1.61-0.85-3.79-0.86-5.37,0
		c-4.26,2.32-3.78,10.79-3.58,14.32c0.93,16.16,2.89,50.5,29.54,61.77c14.85,6.28,35.11,4.44,45.66-6.27
		c3.7-3.75,5.64-8.02,9.28-16.04c4.9-10.8,7.33-20.35,8.62-26.93C175.16,657.92,180.42,640.04,175.16,629.27z"/>
	<path class="st104" d="M110.7,634.64c6.01-0.81,11.04-0.16,14.33,0.54c0-0.18,0-0.36,0-0.54c-0.09-4.26-0.42-7.36,0.58-10.17
		l-0.58-0.58c-3.6-0.77-10.09-1.67-17.9,0c-7.67,1.64-13.14,5.02-16.11,7.16c2.46,1.29,3.02,4.47,3.58,7.16
		c0.11,0.54,0.24,1.17,0.39,1.87v0C98.11,638.25,103.5,635.61,110.7,634.64z"/>
	<path class="st104" d="M110.7,634.64c-2.32,0.31-4.44,0.81-6.37,1.39c0.71,2.85,1.43,5.7,2.14,8.55c1.34-0.36,2.75-0.7,4.23-0.99
		c1.23-0.24,2.42-0.43,3.58-0.59c0-2.89,0-5.78,0-8.68C113.13,634.38,111.95,634.47,110.7,634.64z"/>
	<path class="st104" d="M94.98,640.09L94.98,640.09c0.46,2.11,1.12,4.89,2.01,7.87c2.57-1.15,5.76-2.37,9.48-3.38
		c-0.71-2.85-1.43-5.7-2.14-8.55C100.28,637.24,97.1,638.85,94.98,640.09z"/>
	<path class="st104" d="M114.28,634.33c0,2.89,0,5.78,0,8.68c4.02-0.56,7.6-0.68,10.53-0.6c0.16-2.19,0.25-4.58,0.21-7.22
		C122.42,634.63,118.71,634.12,114.28,634.33z"/>
	<path class="st104" d="M110.7,643.59c-5.59,1.11-10.21,2.8-13.71,4.37c0.88,2.97,2,6.14,3.41,9.13c2.69-1.05,6.16-2.12,10.3-2.75
		c4.79-0.73,8.95-0.64,12.11-0.33c0.84-2.86,1.64-6.67,2.01-11.6C121.03,642.3,116.19,642.51,110.7,643.59z"/>
	<path class="st104" d="M100.4,657.09c0.42,0.89,0.87,1.77,1.35,2.62c3.49,6.2,6.26,6.97,7.16,7.16c0-4.07,0-8.14,0-12.2
		C105.57,655.31,102.69,656.2,100.4,657.09z"/>
	<path class="st104" d="M110.7,654.34c-0.62,0.1-1.2,0.22-1.79,0.33c0,4.07,0,8.14,0,12.2c2.06,0.43,4-0.15,5.37-0.79
		c0-4.05,0-8.1,0-12.15C113.14,654.02,111.94,654.15,110.7,654.34z"/>
	<path class="st104" d="M114.28,653.93c0,4.05,0,8.1,0,12.15c0.85-0.39,1.49-0.8,1.79-1c2.85-1.85,4.29-4.54,5.37-7.16
		c0.43-1.03,0.9-2.33,1.37-3.91C120.47,653.78,117.57,653.67,114.28,653.93z"/>
	<path class="st103" d="M139.35,623.9c-0.18,4.14-0.68,8.99-1.79,14.32c-0.99,4.77-2.27,8.96-3.58,12.53"/>
	<path class="st103" d="M151.88,625.69c-0.28,4.3-0.82,9.12-1.79,14.32c-0.99,5.34-2.26,10.13-3.58,14.32"/>
	<path class="st103" d="M164.42,629.27c-0.28,4.3-0.82,9.12-1.79,14.32c-0.99,5.34-2.26,10.13-3.58,14.32"/>
	<line class="st103" x1="98.17" y1="670.45" x2="103.54" y2="677.61"/>
	<line class="st103" x1="107.12" y1="681.2" x2="112.49" y2="686.57"/>
	<line class="st103" x1="117.87" y1="690.15" x2="126.82" y2="697.31"/>
	<path class="st103" d="M134.72,628.73c2.49,3.94,4.98,7.88,7.47,11.82"/>
	<path class="st103" d="M143.6,629.9c-3.43,3.16-6.86,6.32-10.28,9.48"/>
	<path class="st103" d="M147.26,630.52c2.49,3.94,4.98,7.88,7.47,11.82"/>
	<path class="st103" d="M156.13,631.69c-3.43,3.16-6.86,6.32-10.28,9.48"/>
	<path class="st103" d="M159.79,632.31c2.49,3.94,4.98,7.88,7.47,11.82"/>
	<path class="st103" d="M168.66,633.48c-3.43,3.16-6.86,6.32-10.28,9.48"/>
	<line class="st103" x1="157.26" y1="661.5" x2="153.68" y2="670.45"/>
	<path class="st103" d="M151.88,675.82c-1.19,2.98-2.39,5.97-3.58,8.95"/>
	<line class="st103" x1="144.72" y1="691.94" x2="142.93" y2="695.52"/>
	
		<ellipse transform="matrix(0.9853 -0.171 0.171 0.9853 -118.5787 28.8246)" class="st106" cx="108.02" cy="702.68" rx="1.79" ry="4.48"/>
	
		<ellipse transform="matrix(0.9853 -0.171 0.171 0.9853 -119.0593 30.4083)" class="st106" cx="116.97" cy="706.26" rx="1.79" ry="4.48"/>
	
		<ellipse transform="matrix(0.9853 -0.171 0.171 0.9853 -119.2336 31.9657)" class="st106" cx="125.92" cy="708.05" rx="1.79" ry="4.48"/>
	
		<ellipse transform="matrix(0.9853 -0.171 0.171 0.9853 -119.1017 33.4967)" class="st106" cx="134.87" cy="708.05" rx="1.79" ry="4.48"/>
	
		<ellipse transform="matrix(0.9853 -0.171 0.171 0.9853 -118.6636 35.0014)" class="st106" cx="143.83" cy="706.26" rx="1.79" ry="4.48"/>
	<path class="st103" d="M611.16,245.27c-0.46-0.94-1.52-3.05-3.58-3.58c-3.36-0.88-6.78,3.12-7.16,3.58
		c1.19-4.39-1.77-8.52-5.37-8.95c-2.98-0.36-6.22,1.83-7.16,5.37c0.49-3.44-1.93-6.67-5.37-7.16c-3.44-0.49-6.67,1.93-7.16,5.37
		c-1.51-3.41-4.37-5.52-7.16-5.37c-2.96,0.16-4.82,2.79-5.37,3.58c-0.55,0.78-0.93,1.56-1.21,2.37l0,0c-1,2.8-0.66,5.91-0.58,10.17
		c0.25,12.23-2.02,19.47-3.58,23.28c-1.08,2.63-2.53,5.31-5.37,7.16c-0.79,0.51-3.83,2.49-7.16,1.79c-0.9-0.19-3.67-0.97-7.16-7.16
		c-4.21-7.48-6.27-17.19-7.16-21.49c-0.56-2.7-1.12-5.87-3.58-7.16l0,0c-1.61-0.85-3.79-0.86-5.37,0
		c-4.26,2.32-3.78,10.79-3.58,14.32c0.93,16.16,2.89,50.5,29.54,61.77c14.85,6.28,35.11,4.44,45.66-6.27
		c3.7-3.75,5.64-8.02,9.28-16.04c4.9-10.8,7.33-20.35,8.62-26.93C611.16,273.92,616.42,256.04,611.16,245.27z"/>
	<path class="st104" d="M546.7,250.64c6.01-0.81,11.04-0.16,14.33,0.54c0-0.18,0-0.36,0-0.54c-0.09-4.26-0.42-7.36,0.58-10.17
		l-0.58-0.58c-3.6-0.77-10.09-1.67-17.9,0c-7.67,1.64-13.14,5.02-16.11,7.16c2.46,1.29,3.02,4.47,3.58,7.16
		c0.11,0.54,0.24,1.17,0.39,1.87v0C534.11,254.25,539.5,251.61,546.7,250.64z"/>
	<path class="st104" d="M546.7,250.64c-2.32,0.31-4.44,0.81-6.37,1.39c0.71,2.85,1.43,5.7,2.14,8.55c1.34-0.36,2.75-0.7,4.23-0.99
		c1.23-0.24,2.42-0.43,3.58-0.59c0-2.89,0-5.78,0-8.68C549.13,250.38,547.95,250.47,546.7,250.64z"/>
	<path class="st104" d="M530.98,256.09L530.98,256.09c0.46,2.11,1.12,4.89,2.01,7.87c2.57-1.15,5.76-2.37,9.48-3.38
		c-0.71-2.85-1.43-5.7-2.14-8.55C536.28,253.24,533.1,254.85,530.98,256.09z"/>
	<path class="st104" d="M550.28,250.33c0,2.89,0,5.78,0,8.68c4.02-0.56,7.6-0.68,10.53-0.6c0.16-2.19,0.25-4.58,0.21-7.22
		C558.42,250.63,554.71,250.12,550.28,250.33z"/>
	<path class="st104" d="M546.7,259.59c-5.59,1.11-10.21,2.8-13.71,4.37c0.88,2.97,2,6.14,3.41,9.13c2.69-1.05,6.16-2.12,10.3-2.75
		c4.79-0.73,8.95-0.64,12.11-0.33c0.84-2.86,1.64-6.67,2.01-11.6C557.03,258.3,552.19,258.51,546.7,259.59z"/>
	<path class="st104" d="M536.4,273.09c0.42,0.89,0.87,1.77,1.35,2.62c3.49,6.2,6.26,6.97,7.16,7.16c0-4.07,0-8.14,0-12.2
		C541.57,271.31,538.69,272.2,536.4,273.09z"/>
	<path class="st104" d="M546.7,270.34c-0.62,0.1-1.2,0.22-1.79,0.33c0,4.07,0,8.14,0,12.2c2.06,0.43,4-0.15,5.37-0.79
		c0-4.05,0-8.1,0-12.15C549.14,270.02,547.94,270.15,546.7,270.34z"/>
	<path class="st104" d="M550.28,269.93c0,4.05,0,8.1,0,12.15c0.85-0.39,1.49-0.8,1.79-1c2.85-1.85,4.29-4.54,5.37-7.16
		c0.43-1.03,0.9-2.33,1.37-3.91C556.47,269.78,553.57,269.67,550.28,269.93z"/>
	<path class="st103" d="M575.35,239.9c-0.18,4.14-0.68,8.99-1.79,14.32c-0.99,4.77-2.27,8.96-3.58,12.53"/>
	<path class="st103" d="M587.88,241.69c-0.28,4.3-0.82,9.12-1.79,14.32c-0.99,5.34-2.26,10.13-3.58,14.32"/>
	<path class="st103" d="M600.42,245.27c-0.28,4.3-0.82,9.12-1.79,14.32c-0.99,5.34-2.26,10.13-3.58,14.32"/>
	<line class="st103" x1="534.17" y1="286.45" x2="539.54" y2="293.61"/>
	<line class="st103" x1="543.12" y1="297.2" x2="548.49" y2="302.57"/>
	<line class="st103" x1="553.87" y1="306.15" x2="562.82" y2="313.31"/>
	<path class="st103" d="M570.72,244.73c2.49,3.94,4.98,7.88,7.47,11.82"/>
	<path class="st103" d="M579.6,245.9c-3.43,3.16-6.86,6.32-10.28,9.48"/>
	<path class="st103" d="M583.26,246.52c2.49,3.94,4.98,7.88,7.47,11.82"/>
	<path class="st103" d="M592.13,247.69c-3.43,3.16-6.86,6.32-10.28,9.48"/>
	<path class="st103" d="M595.79,248.31c2.49,3.94,4.98,7.88,7.47,11.82"/>
	<path class="st103" d="M604.66,249.48c-3.43,3.16-6.86,6.32-10.28,9.48"/>
	<line class="st103" x1="593.26" y1="277.5" x2="589.67" y2="286.45"/>
	<path class="st103" d="M587.88,291.82c-1.19,2.98-2.39,5.97-3.58,8.95"/>
	<line class="st103" x1="580.72" y1="307.94" x2="578.93" y2="311.52"/>
	
		<ellipse transform="matrix(0.9853 -0.171 0.171 0.9853 -46.4853 97.7307)" class="st106" cx="544.02" cy="318.68" rx="1.79" ry="4.48"/>
	
		<ellipse transform="matrix(0.9853 -0.171 0.171 0.9853 -46.9658 99.3145)" class="st106" cx="552.97" cy="322.26" rx="1.79" ry="4.48"/>
	
		<ellipse transform="matrix(0.9853 -0.171 0.171 0.9853 -47.1401 100.8719)" class="st106" cx="561.92" cy="324.05" rx="1.79" ry="4.48"/>
	
		<ellipse transform="matrix(0.9853 -0.171 0.171 0.9853 -47.0083 102.4029)" class="st106" cx="570.87" cy="324.05" rx="1.79" ry="4.48"/>
	
		<ellipse transform="matrix(0.9853 -0.171 0.171 0.9853 -46.5702 103.9076)" class="st106" cx="579.83" cy="322.26" rx="1.79" ry="4.48"/>
	<path class="st103" d="M1263.16,233.27c-0.46-0.94-1.52-3.05-3.58-3.58c-3.36-0.88-6.78,3.12-7.16,3.58
		c1.19-4.39-1.77-8.52-5.37-8.95c-2.98-0.36-6.22,1.83-7.16,5.37c0.49-3.44-1.93-6.67-5.37-7.16c-3.44-0.49-6.67,1.93-7.16,5.37
		c-1.51-3.41-4.37-5.52-7.16-5.37c-2.96,0.16-4.82,2.79-5.37,3.58c-0.55,0.78-0.93,1.56-1.21,2.37l0,0c-1,2.8-0.66,5.91-0.58,10.17
		c0.25,12.23-2.02,19.47-3.58,23.28c-1.08,2.63-2.53,5.31-5.37,7.16c-0.79,0.51-3.83,2.49-7.16,1.79c-0.9-0.19-3.67-0.97-7.16-7.16
		c-4.21-7.48-6.27-17.19-7.16-21.49c-0.56-2.7-1.12-5.87-3.58-7.16l0,0c-1.61-0.85-3.79-0.86-5.37,0
		c-4.26,2.32-3.78,10.79-3.58,14.32c0.93,16.16,2.89,50.5,29.54,61.77c14.85,6.28,35.11,4.44,45.66-6.27
		c3.7-3.75,5.64-8.02,9.28-16.04c4.9-10.8,7.33-20.35,8.62-26.93C1263.16,261.92,1268.42,244.04,1263.16,233.27z"/>
	<path class="st104" d="M1198.7,238.64c6.01-0.81,11.04-0.16,14.33,0.54c0-0.18,0-0.36,0-0.54c-0.09-4.26-0.42-7.36,0.58-10.17
		l-0.58-0.58c-3.6-0.77-10.09-1.67-17.9,0c-7.67,1.64-13.14,5.02-16.11,7.16c2.46,1.29,3.02,4.47,3.58,7.16
		c0.11,0.54,0.24,1.17,0.39,1.87v0C1186.11,242.25,1191.5,239.61,1198.7,238.64z"/>
	<path class="st104" d="M1198.7,238.64c-2.32,0.31-4.44,0.81-6.37,1.39c0.71,2.85,1.43,5.7,2.14,8.55c1.34-0.36,2.75-0.7,4.23-0.99
		c1.23-0.24,2.42-0.43,3.58-0.59c0-2.89,0-5.78,0-8.68C1201.13,238.38,1199.95,238.47,1198.7,238.64z"/>
	<path class="st104" d="M1182.98,244.09L1182.98,244.09c0.46,2.11,1.12,4.89,2.01,7.87c2.57-1.15,5.76-2.37,9.48-3.38
		c-0.71-2.85-1.43-5.7-2.14-8.55C1188.28,241.24,1185.1,242.85,1182.98,244.09z"/>
	<path class="st104" d="M1202.28,238.33c0,2.89,0,5.78,0,8.68c4.02-0.56,7.6-0.68,10.53-0.6c0.16-2.19,0.25-4.58,0.21-7.22
		C1210.42,238.63,1206.71,238.12,1202.28,238.33z"/>
	<path class="st104" d="M1198.7,247.59c-5.59,1.11-10.21,2.8-13.71,4.37c0.88,2.97,2,6.14,3.41,9.13c2.69-1.05,6.16-2.12,10.3-2.75
		c4.79-0.73,8.95-0.64,12.11-0.33c0.84-2.86,1.64-6.67,2.01-11.6C1209.03,246.3,1204.19,246.51,1198.7,247.59z"/>
	<path class="st104" d="M1188.4,261.09c0.42,0.89,0.87,1.77,1.35,2.62c3.49,6.2,6.26,6.97,7.16,7.16c0-4.07,0-8.14,0-12.2
		C1193.57,259.31,1190.69,260.2,1188.4,261.09z"/>
	<path class="st104" d="M1198.7,258.34c-0.62,0.1-1.2,0.22-1.79,0.33c0,4.07,0,8.14,0,12.2c2.06,0.43,4-0.15,5.37-0.79
		c0-4.05,0-8.1,0-12.15C1201.14,258.02,1199.94,258.15,1198.7,258.34z"/>
	<path class="st104" d="M1202.28,257.93c0,4.05,0,8.1,0,12.15c0.85-0.39,1.49-0.8,1.79-1c2.85-1.85,4.29-4.54,5.37-7.16
		c0.43-1.03,0.9-2.33,1.37-3.91C1208.47,257.78,1205.57,257.67,1202.28,257.93z"/>
	<path class="st103" d="M1227.35,227.9c-0.18,4.14-0.68,8.99-1.79,14.32c-0.99,4.77-2.27,8.96-3.58,12.53"/>
	<path class="st103" d="M1239.88,229.69c-0.28,4.3-0.82,9.12-1.79,14.32c-0.99,5.34-2.26,10.13-3.58,14.32"/>
	<path class="st103" d="M1252.42,233.27c-0.28,4.3-0.82,9.12-1.79,14.32c-0.99,5.34-2.26,10.13-3.58,14.32"/>
	<line class="st103" x1="1186.17" y1="274.45" x2="1191.54" y2="281.61"/>
	<line class="st103" x1="1195.12" y1="285.2" x2="1200.49" y2="290.57"/>
	<line class="st103" x1="1205.87" y1="294.15" x2="1214.82" y2="301.31"/>
	<path class="st103" d="M1222.72,232.73c2.49,3.94,4.98,7.88,7.47,11.82"/>
	<path class="st103" d="M1231.6,233.9c-3.43,3.16-6.86,6.32-10.28,9.48"/>
	<path class="st103" d="M1235.26,234.52c2.49,3.94,4.98,7.88,7.47,11.82"/>
	<path class="st103" d="M1244.13,235.69c-3.43,3.16-6.86,6.32-10.28,9.48"/>
	<path class="st103" d="M1247.79,236.31c2.49,3.94,4.98,7.88,7.47,11.82"/>
	<path class="st103" d="M1256.66,237.48c-3.43,3.16-6.86,6.32-10.28,9.48"/>
	<line class="st103" x1="1245.26" y1="265.5" x2="1241.68" y2="274.45"/>
	<path class="st103" d="M1239.88,279.82c-1.19,2.98-2.39,5.97-3.58,8.95"/>
	<line class="st103" x1="1232.72" y1="295.94" x2="1230.93" y2="299.52"/>
	
		<ellipse transform="matrix(0.9853 -0.171 0.171 0.9853 -34.828 209.0567)" class="st106" cx="1196.02" cy="306.68" rx="1.79" ry="4.48"/>
	
		<ellipse transform="matrix(0.9853 -0.171 0.171 0.9853 -35.3085 210.6405)" class="st106" cx="1204.97" cy="310.26" rx="1.79" ry="4.48"/>
	
		<ellipse transform="matrix(0.9853 -0.171 0.171 0.9853 -35.4828 212.1979)" class="st106" cx="1213.92" cy="312.05" rx="1.79" ry="4.48"/>
	
		<ellipse transform="matrix(0.9853 -0.171 0.171 0.9853 -35.3509 213.7289)" class="st106" cx="1222.87" cy="312.05" rx="1.79" ry="4.48"/>
	
		<ellipse transform="matrix(0.9853 -0.171 0.171 0.9853 -34.9128 215.2336)" class="st106" cx="1231.83" cy="310.26" rx="1.79" ry="4.48"/>
	<path class="st103" d="M829.16,65.27c-0.46-0.94-1.52-3.05-3.58-3.58c-3.36-0.88-6.78,3.12-7.16,3.58
		c1.19-4.39-1.77-8.52-5.37-8.95c-2.98-0.36-6.22,1.83-7.16,5.37c0.49-3.44-1.93-6.67-5.37-7.16c-3.44-0.49-6.67,1.93-7.16,5.37
		c-1.51-3.41-4.37-5.52-7.16-5.37c-2.96,0.16-4.82,2.79-5.37,3.58c-0.55,0.78-0.93,1.56-1.21,2.37l0,0c-1,2.8-0.66,5.91-0.58,10.17
		c0.25,12.23-2.02,19.47-3.58,23.28c-1.08,2.63-2.53,5.31-5.37,7.16c-0.79,0.51-3.83,2.49-7.16,1.79c-0.9-0.19-3.67-0.97-7.16-7.16
		c-4.21-7.48-6.27-17.19-7.16-21.49c-0.56-2.7-1.12-5.87-3.58-7.16l0,0c-1.61-0.85-3.79-0.86-5.37,0
		c-4.26,2.32-3.78,10.79-3.58,14.32c0.93,16.16,2.89,50.5,29.54,61.77c14.85,6.28,35.11,4.44,45.66-6.27
		c3.7-3.75,5.64-8.02,9.28-16.04c4.9-10.8,7.33-20.35,8.62-26.93C829.16,93.92,834.42,76.04,829.16,65.27z"/>
	<path class="st104" d="M764.7,70.64c6.01-0.81,11.04-0.16,14.33,0.54c0-0.18,0-0.36,0-0.54c-0.09-4.26-0.42-7.36,0.58-10.17
		l-0.58-0.58c-3.6-0.77-10.09-1.67-17.9,0c-7.67,1.64-13.14,5.02-16.11,7.16c2.46,1.29,3.02,4.47,3.58,7.16
		c0.11,0.54,0.24,1.17,0.39,1.87v0C752.11,74.25,757.5,71.61,764.7,70.64z"/>
	<path class="st104" d="M764.7,70.64c-2.32,0.31-4.44,0.81-6.37,1.39c0.71,2.85,1.43,5.7,2.14,8.55c1.34-0.36,2.75-0.7,4.23-0.99
		c1.23-0.24,2.42-0.43,3.58-0.59c0-2.89,0-5.78,0-8.68C767.13,70.38,765.95,70.47,764.7,70.64z"/>
	<path class="st104" d="M748.98,76.09L748.98,76.09c0.46,2.11,1.12,4.89,2.01,7.87c2.57-1.15,5.76-2.37,9.48-3.38
		c-0.71-2.85-1.43-5.7-2.14-8.55C754.28,73.24,751.1,74.85,748.98,76.09z"/>
	<path class="st104" d="M768.28,70.33c0,2.89,0,5.78,0,8.68c4.02-0.56,7.6-0.68,10.53-0.6c0.16-2.19,0.25-4.58,0.21-7.22
		C776.42,70.63,772.71,70.12,768.28,70.33z"/>
	<path class="st104" d="M764.7,79.59c-5.59,1.11-10.21,2.8-13.71,4.37c0.88,2.97,2,6.14,3.41,9.13c2.69-1.05,6.16-2.12,10.3-2.75
		c4.79-0.73,8.95-0.64,12.11-0.33c0.84-2.86,1.64-6.67,2.01-11.6C775.03,78.3,770.19,78.51,764.7,79.59z"/>
	<path class="st104" d="M754.4,93.09c0.42,0.89,0.87,1.77,1.35,2.62c3.49,6.2,6.26,6.97,7.16,7.16c0-4.07,0-8.14,0-12.2
		C759.57,91.31,756.69,92.2,754.4,93.09z"/>
	<path class="st104" d="M764.7,90.34c-0.62,0.1-1.2,0.22-1.79,0.33c0,4.07,0,8.14,0,12.2c2.06,0.43,4-0.15,5.37-0.79
		c0-4.05,0-8.1,0-12.15C767.14,90.02,765.94,90.15,764.7,90.34z"/>
	<path class="st104" d="M768.28,89.93c0,4.05,0,8.1,0,12.15c0.85-0.39,1.49-0.8,1.79-1c2.85-1.85,4.29-4.54,5.37-7.16
		c0.43-1.03,0.9-2.33,1.37-3.91C774.47,89.78,771.57,89.67,768.28,89.93z"/>
	<path class="st103" d="M793.35,59.9c-0.18,4.14-0.68,8.99-1.79,14.32c-0.99,4.77-2.27,8.96-3.58,12.53"/>
	<path class="st103" d="M805.88,61.69c-0.28,4.3-0.82,9.12-1.79,14.32c-0.99,5.34-2.26,10.13-3.58,14.32"/>
	<path class="st103" d="M818.42,65.27c-0.28,4.3-0.82,9.12-1.79,14.32c-0.99,5.34-2.26,10.13-3.58,14.32"/>
	<line class="st103" x1="752.17" y1="106.45" x2="757.54" y2="113.61"/>
	<line class="st103" x1="761.12" y1="117.19" x2="766.49" y2="122.57"/>
	<line class="st103" x1="771.87" y1="126.15" x2="780.82" y2="133.31"/>
	<path class="st103" d="M788.72,64.73c2.49,3.94,4.98,7.88,7.47,11.82"/>
	<path class="st103" d="M797.6,65.9c-3.43,3.16-6.86,6.32-10.28,9.48"/>
	<path class="st103" d="M801.26,66.52c2.49,3.94,4.98,7.88,7.47,11.82"/>
	<path class="st103" d="M810.13,67.69c-3.43,3.16-6.86,6.32-10.28,9.48"/>
	<path class="st103" d="M813.79,68.31c2.49,3.94,4.98,7.88,7.47,11.82"/>
	<path class="st103" d="M822.66,69.48c-3.43,3.16-6.86,6.32-10.28,9.48"/>
	<line class="st103" x1="811.26" y1="97.5" x2="807.67" y2="106.45"/>
	<path class="st103" d="M805.88,111.82c-1.19,2.98-2.39,5.97-3.58,8.95"/>
	<line class="st103" x1="798.72" y1="127.94" x2="796.93" y2="131.52"/>
	
		<ellipse transform="matrix(0.9853 -0.171 0.171 0.9853 -12.4908 132.3606)" class="st106" cx="762.02" cy="138.68" rx="1.79" ry="4.48"/>
	
		<ellipse transform="matrix(0.9853 -0.171 0.171 0.9853 -12.9713 133.9444)" class="st106" cx="770.97" cy="142.26" rx="1.79" ry="4.48"/>
	
		<ellipse transform="matrix(0.9853 -0.171 0.171 0.9853 -13.1456 135.5018)" class="st106" cx="779.92" cy="144.05" rx="1.79" ry="4.48"/>
	
		<ellipse transform="matrix(0.9853 -0.171 0.171 0.9853 -13.0137 137.0328)" class="st106" cx="788.87" cy="144.05" rx="1.79" ry="4.48"/>
	
		<ellipse transform="matrix(0.9853 -0.171 0.171 0.9853 -12.5757 138.5374)" class="st106" cx="797.83" cy="142.26" rx="1.79" ry="4.48"/>
	<path class="st103" d="M388.16,426.27c-0.46-0.94-1.52-3.05-3.58-3.58c-3.36-0.88-6.78,3.12-7.16,3.58
		c1.19-4.39-1.77-8.52-5.37-8.95c-2.98-0.36-6.22,1.83-7.16,5.37c0.49-3.44-1.93-6.67-5.37-7.16s-6.67,1.93-7.16,5.37
		c-1.51-3.41-4.37-5.52-7.16-5.37c-2.96,0.16-4.82,2.79-5.37,3.58c-0.55,0.78-0.93,1.56-1.21,2.37l0,0c-1,2.8-0.66,5.91-0.58,10.17
		c0.25,12.23-2.02,19.47-3.58,23.28c-1.08,2.63-2.53,5.31-5.37,7.16c-0.79,0.51-3.83,2.49-7.16,1.79c-0.9-0.19-3.67-0.97-7.16-7.16
		c-4.21-7.48-6.27-17.19-7.16-21.49c-0.56-2.7-1.12-5.87-3.58-7.16l0,0c-1.61-0.85-3.79-0.86-5.37,0
		c-4.26,2.32-3.78,10.79-3.58,14.32c0.93,16.16,2.89,50.5,29.54,61.77c14.85,6.28,35.11,4.44,45.66-6.27
		c3.7-3.75,5.64-8.02,9.28-16.04c4.9-10.8,7.33-20.35,8.62-26.93C388.16,454.92,393.42,437.04,388.16,426.27z"/>
	<path class="st104" d="M323.7,431.64c6.01-0.81,11.04-0.16,14.33,0.54c0-0.18,0-0.36,0-0.54c-0.09-4.26-0.42-7.36,0.58-10.17
		l-0.58-0.58c-3.6-0.77-10.09-1.67-17.9,0c-7.67,1.64-13.14,5.02-16.11,7.16c2.46,1.29,3.02,4.47,3.58,7.16
		c0.11,0.54,0.24,1.17,0.39,1.87v0C311.11,435.25,316.5,432.61,323.7,431.64z"/>
	<path class="st104" d="M323.7,431.64c-2.32,0.31-4.44,0.81-6.37,1.39c0.71,2.85,1.43,5.7,2.14,8.55c1.34-0.36,2.75-0.7,4.23-0.99
		c1.23-0.24,2.42-0.43,3.58-0.59c0-2.89,0-5.78,0-8.68C326.13,431.38,324.95,431.47,323.7,431.64z"/>
	<path class="st104" d="M307.98,437.09L307.98,437.09c0.46,2.11,1.12,4.89,2.01,7.87c2.57-1.15,5.76-2.37,9.48-3.38
		c-0.71-2.85-1.43-5.7-2.14-8.55C313.28,434.24,310.1,435.85,307.98,437.09z"/>
	<path class="st104" d="M327.28,431.33c0,2.89,0,5.78,0,8.68c4.02-0.56,7.6-0.68,10.53-0.6c0.16-2.19,0.25-4.58,0.21-7.22
		C335.42,431.63,331.71,431.12,327.28,431.33z"/>
	<path class="st104" d="M323.7,440.59c-5.59,1.11-10.21,2.8-13.71,4.37c0.88,2.97,2,6.14,3.41,9.13c2.69-1.05,6.16-2.12,10.3-2.75
		c4.79-0.73,8.95-0.64,12.11-0.33c0.84-2.86,1.64-6.67,2.01-11.6C334.03,439.3,329.19,439.51,323.7,440.59z"/>
	<path class="st104" d="M313.4,454.09c0.42,0.89,0.87,1.77,1.35,2.62c3.49,6.2,6.26,6.97,7.16,7.16c0-4.07,0-8.14,0-12.2
		C318.57,452.31,315.69,453.2,313.4,454.09z"/>
	<path class="st104" d="M323.7,451.34c-0.62,0.1-1.2,0.22-1.79,0.33c0,4.07,0,8.14,0,12.2c2.06,0.43,4-0.15,5.37-0.79
		c0-4.05,0-8.1,0-12.15C326.14,451.02,324.94,451.15,323.7,451.34z"/>
	<path class="st104" d="M327.28,450.93c0,4.05,0,8.1,0,12.15c0.85-0.39,1.49-0.8,1.79-1c2.85-1.85,4.29-4.54,5.37-7.16
		c0.43-1.03,0.9-2.33,1.37-3.91C333.47,450.78,330.57,450.67,327.28,450.93z"/>
	<path class="st103" d="M352.35,420.9c-0.18,4.14-0.68,8.99-1.79,14.32c-0.99,4.77-2.27,8.96-3.58,12.53"/>
	<path class="st103" d="M364.88,422.69c-0.28,4.3-0.82,9.12-1.79,14.32c-0.99,5.34-2.26,10.13-3.58,14.32"/>
	<path class="st103" d="M377.42,426.27c-0.28,4.3-0.82,9.12-1.79,14.32c-0.99,5.34-2.26,10.13-3.58,14.32"/>
	<line class="st103" x1="311.17" y1="467.45" x2="316.54" y2="474.61"/>
	<line class="st103" x1="320.12" y1="478.2" x2="325.49" y2="483.57"/>
	<line class="st103" x1="330.87" y1="487.15" x2="339.82" y2="494.31"/>
	<path class="st103" d="M347.72,425.73c2.49,3.94,4.98,7.88,7.47,11.82"/>
	<path class="st103" d="M356.6,426.9c-3.43,3.16-6.86,6.32-10.28,9.48"/>
	<path class="st103" d="M360.26,427.52c2.49,3.94,4.98,7.88,7.47,11.82"/>
	<path class="st103" d="M369.13,428.69c-3.43,3.16-6.86,6.32-10.28,9.48"/>
	<path class="st103" d="M372.79,429.31c2.49,3.94,4.98,7.88,7.47,11.82"/>
	<path class="st103" d="M381.66,430.48c-3.43,3.16-6.86,6.32-10.28,9.48"/>
	<line class="st103" x1="370.26" y1="458.5" x2="366.68" y2="467.45"/>
	<path class="st103" d="M364.88,472.82c-1.19,2.98-2.39,5.97-3.58,8.95"/>
	<line class="st103" x1="357.72" y1="488.94" x2="355.93" y2="492.52"/>
	
		<ellipse transform="matrix(0.9853 -0.171 0.171 0.9853 -80.7245 62.2605)" class="st106" cx="321.02" cy="499.68" rx="1.79" ry="4.48"/>
	
		<ellipse transform="matrix(0.9853 -0.171 0.171 0.9853 -81.205 63.8443)" class="st106" cx="329.97" cy="503.26" rx="1.79" ry="4.48"/>
	
		<ellipse transform="matrix(0.9853 -0.171 0.171 0.9853 -81.3793 65.4017)" class="st106" cx="338.92" cy="505.05" rx="1.79" ry="4.48"/>
	
		<ellipse transform="matrix(0.9853 -0.171 0.171 0.9853 -81.2475 66.9327)" class="st106" cx="347.87" cy="505.05" rx="1.79" ry="4.48"/>
	
		<ellipse transform="matrix(0.9853 -0.171 0.171 0.9853 -80.8094 68.4373)" class="st106" cx="356.83" cy="503.26" rx="1.79" ry="4.48"/>
	<path class="st107" d="M156.12,462.47c-1.79,3.86,4.26,7.2,5.45,14.53c1.44,8.86-4.96,18.99-12.71,23.61
		c-11.16,6.66-27.71,3.46-38.14-9.08c-7.87,0-15.74,0-23.61,0c-1.81-2.67-12.24-18.57-7.27-38.14
		c5.08-19.98,23.26-32.15,39.96-34.51c3.16-0.45,24.12-3.41,36.33,10.9c4.97,5.82,6.63,12.34,7.27,16.35
		c1.45-0.44,9.29-2.66,16.35,1.82c2.7,1.72,4.42,3.86,5.45,5.45c-2.88,0.75-8.02,2.06-14.53,3.63
		C160.08,459.57,157.22,460.09,156.12,462.47z"/>
	<circle class="st108" cx="137.96" cy="480.63" r="7.27"/>
	<path class="st107" d="M1029.12,663.47c-1.79,3.86,4.26,7.2,5.45,14.53c1.44,8.86-4.95,18.99-12.71,23.61
		c-11.16,6.66-27.71,3.46-38.14-9.08c-7.87,0-15.74,0-23.61,0c-1.81-2.67-12.24-18.57-7.27-38.14
		c5.08-19.98,23.26-32.15,39.96-34.51c3.16-0.45,24.12-3.41,36.33,10.9c4.97,5.82,6.63,12.34,7.27,16.35
		c1.45-0.44,9.29-2.66,16.35,1.82c2.7,1.72,4.42,3.86,5.45,5.45c-2.88,0.75-8.02,2.06-14.53,3.63
		C1033.08,660.57,1030.22,661.09,1029.12,663.47z"/>
	<circle class="st108" cx="1010.96" cy="681.63" r="7.27"/>
	<path class="st112" d="M119.5,271c5.33,5.41,12.04,13.32,18,24c5.98,10.71,9.2,20.61,11,28"/>
	<path class="st112" d="M140.5,250c6.68,3.62,18.04,10.91,28,24c10.5,13.8,14.41,27.46,16,35"/>
	<path class="st112" d="M132,261.5c6.72,4.65,17.47,13.34,26.5,27.5c9.44,14.79,12.71,28.82,14,37"/>
	<path class="st99" d="M1173.12,66.62c4.69-4.47,10.82-6.84,17.02-7.07c1.13-0.05,2.27-0.01,3.39,0.09
		c5.64,0.51,11.15,2.82,15.55,6.98c5.66,5.34,8.36,12.67,8.12,19.9c0.01,0.07,0,0.14-0.01,0.21c-0.22,5.69-2.27,11.32-6.11,15.84
		c-9.48,11.14-27.07,12.33-37.95,2C1162.26,94.25,1162.53,76.67,1173.12,66.62z"/>
	<path class="st100" d="M1195.09,82.6c0.33-1,0.67-2,1-3c1-0.33,2-0.67,3-1"/>
	<path class="st100" d="M1192.73,80.18c0.48-0.94,0.96-1.88,1.43-2.81c1.04-0.18,2.07-0.36,3.11-0.54"/>
	<path class="st100" d="M1190.75,77.44c0.61-0.86,1.22-1.71,1.84-2.57c1.05-0.02,2.1-0.05,3.16-0.07"/>
	<path class="st100" d="M1189.21,74.43c0.73-0.76,1.47-1.51,2.2-2.27c1.04,0.13,2.09,0.27,3.13,0.4"/>
	<path class="st100" d="M1188.13,71.23c0.84-0.64,1.67-1.28,2.51-1.92c1.01,0.29,2.03,0.57,3.04,0.86"/>
	<path class="st100" d="M1187.54,67.9c0.92-0.51,1.85-1.01,2.77-1.52c0.96,0.43,1.92,0.87,2.88,1.3"/>
	<path class="st100" d="M1187.45,64.52c0.99-0.36,1.98-0.73,2.96-1.09c0.88,0.57,1.77,1.14,2.65,1.72"/>
	<path class="st100" d="M1187.87,61.17c1.03-0.21,2.06-0.43,3.09-0.64c0.79,0.7,1.58,1.39,2.37,2.09"/>
	<path class="st100" d="M1217.45,87.02c-0.7-0.78-1.41-1.56-2.11-2.35c0.2-1.03,0.41-2.07,0.61-3.1"/>
	<path class="st100" d="M1214.18,87.88c-0.58-0.88-1.16-1.76-1.74-2.63c0.35-0.99,0.71-1.98,1.06-2.97"/>
	<path class="st100" d="M1210.83,88.25c-0.44-0.95-0.89-1.91-1.33-2.86c0.5-0.93,1-1.86,1.49-2.78"/>
	<path class="st100" d="M1207.45,88.11c-0.3-1.01-0.59-2.02-0.89-3.03c0.63-0.84,1.26-1.69,1.89-2.53"/>
	<path class="st100" d="M1204.13,87.47c-0.14-1.04-0.29-2.09-0.43-3.13c0.75-0.74,1.5-1.48,2.25-2.22"/>
	<path class="st100" d="M1200.95,86.34c0.01-1.05,0.03-2.11,0.04-3.16c0.85-0.62,1.7-1.24,2.55-1.86"/>
	<path class="st100" d="M1197.96,84.76c0.17-1.04,0.34-2.08,0.51-3.12c0.93-0.49,1.87-0.97,2.8-1.46"/>
	<path class="st100" d="M1195.25,82.74c0.32-1,0.65-2,0.97-3.01c1-0.34,1.99-0.69,2.99-1.03"/>
	<path class="st100" d="M1188.05,89.64c-1,0.33-2,0.67-3,1c-0.33,1-0.67,2-1,3"/>
	<path class="st100" d="M1185.63,87.28c-0.94,0.48-1.88,0.96-2.81,1.43c-0.18,1.04-0.36,2.07-0.54,3.11"/>
	<path class="st100" d="M1182.89,85.3c-0.86,0.61-1.71,1.22-2.57,1.84c-0.02,1.05-0.05,2.1-0.07,3.16"/>
	<path class="st100" d="M1179.88,83.76c-0.76,0.73-1.51,1.47-2.27,2.2c0.13,1.04,0.27,2.09,0.4,3.13"/>
	<path class="st100" d="M1176.68,82.68c-0.64,0.84-1.28,1.67-1.92,2.51c0.29,1.01,0.57,2.03,0.86,3.04"/>
	<path class="st100" d="M1173.35,82.09c-0.51,0.92-1.01,1.85-1.52,2.77c0.43,0.96,0.87,1.92,1.3,2.88"/>
	<path class="st100" d="M1169.98,82c-0.36,0.99-0.73,1.98-1.09,2.96c0.57,0.88,1.14,1.77,1.72,2.65"/>
	<path class="st100" d="M1166.62,82.41c-0.21,1.03-0.43,2.06-0.64,3.09c0.7,0.79,1.39,1.58,2.09,2.37"/>
	<path class="st100" d="M1192.48,112c-0.78-0.7-1.56-1.41-2.35-2.11c-1.03,0.2-2.07,0.41-3.1,0.61"/>
	<path class="st100" d="M1193.34,108.73c-0.88-0.58-1.76-1.16-2.63-1.74c-0.99,0.35-1.98,0.71-2.97,1.06"/>
	<path class="st100" d="M1193.7,105.37c-0.95-0.44-1.91-0.89-2.86-1.33c-0.93,0.5-1.86,1-2.78,1.49"/>
	<path class="st100" d="M1193.56,102c-1.01-0.3-2.02-0.59-3.03-0.89c-0.84,0.63-1.69,1.26-2.53,1.89"/>
	<path class="st100" d="M1192.92,98.68c-1.04-0.14-2.09-0.29-3.13-0.43c-0.74,0.75-1.48,1.5-2.22,2.25"/>
	<path class="st100" d="M1191.8,95.49c-1.05,0.01-2.11,0.03-3.16,0.04c-0.62,0.85-1.24,1.7-1.86,2.55"/>
	<path class="st100" d="M1190.21,92.51c-1.04,0.17-2.08,0.34-3.12,0.51c-0.49,0.93-0.97,1.87-1.46,2.8"/>
	<path class="st100" d="M1188.19,89.8c-1,0.32-2,0.65-3.01,0.97c-0.34,1-0.69,1.99-1.03,2.99"/>
	<path class="st100" d="M1190.09,111.56c2.42-7.36,0.49-15.49-4.99-20.97c-5.28-5.28-13.02-7.27-20.17-5.24"/>
	<path class="st100" d="M1217.06,83.6c-7.19,2.92-15.44,1.35-20.97-3.99c-5.3-5.12-7.24-12.88-4.99-19.97"/>
	<path class="st112" d="M1207.5,112c5.33,5.41,12.04,13.32,18,24c5.98,10.71,9.2,20.61,11,28"/>
	<path class="st112" d="M1228.5,91c6.68,3.62,18.04,10.91,28,24c10.5,13.8,14.41,27.46,16,35"/>
	<path class="st112" d="M1220,102.5c6.72,4.65,17.47,13.34,26.5,27.5c9.44,14.79,12.71,28.82,14,37"/>
	<path class="st99" d="M517.12,62.62c4.69-4.47,10.82-6.84,17.02-7.07c1.13-0.05,2.27-0.01,3.39,0.09
		c5.64,0.51,11.15,2.82,15.55,6.98c5.66,5.34,8.36,12.67,8.12,19.9c0.01,0.07,0,0.14-0.01,0.21c-0.22,5.69-2.27,11.32-6.11,15.84
		c-9.48,11.14-27.07,12.33-37.95,2C506.26,90.25,506.53,72.67,517.12,62.62z"/>
	<path class="st100" d="M539.09,78.6c0.33-1,0.67-2,1-3c1-0.33,2-0.67,3-1"/>
	<path class="st100" d="M536.73,76.18c0.48-0.94,0.96-1.88,1.43-2.81c1.04-0.18,2.07-0.36,3.11-0.54"/>
	<path class="st100" d="M534.75,73.44c0.61-0.86,1.22-1.71,1.84-2.57c1.05-0.02,2.1-0.05,3.16-0.07"/>
	<path class="st100" d="M533.21,70.43c0.73-0.76,1.47-1.51,2.2-2.27c1.04,0.13,2.09,0.27,3.13,0.4"/>
	<path class="st100" d="M532.13,67.23c0.84-0.64,1.67-1.28,2.51-1.92c1.01,0.29,2.03,0.57,3.04,0.86"/>
	<path class="st100" d="M531.54,63.9c0.92-0.51,1.85-1.01,2.77-1.52c0.96,0.43,1.92,0.87,2.88,1.3"/>
	<path class="st100" d="M531.45,60.52c0.99-0.36,1.98-0.73,2.96-1.09c0.88,0.57,1.77,1.14,2.65,1.72"/>
	<path class="st100" d="M531.87,57.17c1.03-0.21,2.06-0.43,3.09-0.64c0.79,0.7,1.58,1.39,2.37,2.09"/>
	<path class="st100" d="M561.45,83.02c-0.7-0.78-1.41-1.56-2.11-2.35c0.2-1.03,0.41-2.07,0.61-3.1"/>
	<path class="st100" d="M558.18,83.88c-0.58-0.88-1.16-1.76-1.74-2.63c0.35-0.99,0.71-1.98,1.06-2.97"/>
	<path class="st100" d="M554.83,84.25c-0.44-0.95-0.89-1.91-1.33-2.86c0.5-0.93,1-1.86,1.49-2.78"/>
	<path class="st100" d="M551.45,84.11c-0.3-1.01-0.59-2.02-0.89-3.03c0.63-0.84,1.26-1.69,1.89-2.53"/>
	<path class="st100" d="M548.13,83.47c-0.14-1.04-0.29-2.09-0.43-3.13c0.75-0.74,1.5-1.48,2.25-2.22"/>
	<path class="st100" d="M544.95,82.34c0.01-1.05,0.03-2.11,0.04-3.16c0.85-0.62,1.7-1.24,2.55-1.86"/>
	<path class="st100" d="M541.96,80.76c0.17-1.04,0.34-2.08,0.51-3.12c0.93-0.49,1.87-0.97,2.8-1.46"/>
	<path class="st100" d="M539.25,78.74c0.32-1,0.65-2,0.97-3.01c1-0.34,1.99-0.69,2.99-1.03"/>
	<path class="st100" d="M532.05,85.64c-1,0.33-2,0.67-3,1c-0.33,1-0.67,2-1,3"/>
	<path class="st100" d="M529.63,83.28c-0.94,0.48-1.88,0.96-2.81,1.43c-0.18,1.04-0.36,2.07-0.54,3.11"/>
	<path class="st100" d="M526.89,81.3c-0.86,0.61-1.71,1.22-2.57,1.84c-0.02,1.05-0.05,2.1-0.07,3.16"/>
	<path class="st100" d="M523.88,79.76c-0.76,0.73-1.51,1.47-2.27,2.2c0.13,1.04,0.27,2.09,0.4,3.13"/>
	<path class="st100" d="M520.68,78.68c-0.64,0.84-1.28,1.67-1.92,2.51c0.29,1.01,0.57,2.03,0.86,3.04"/>
	<path class="st100" d="M517.35,78.09c-0.51,0.92-1.01,1.85-1.52,2.77c0.43,0.96,0.87,1.92,1.3,2.88"/>
	<path class="st100" d="M513.98,78c-0.36,0.99-0.73,1.98-1.09,2.96c0.57,0.88,1.14,1.77,1.72,2.65"/>
	<path class="st100" d="M510.62,78.41c-0.21,1.03-0.43,2.06-0.64,3.09c0.7,0.79,1.39,1.58,2.09,2.37"/>
	<path class="st100" d="M536.48,108c-0.78-0.7-1.56-1.41-2.35-2.11c-1.03,0.2-2.07,0.41-3.1,0.61"/>
	<path class="st100" d="M537.34,104.73c-0.88-0.58-1.76-1.16-2.63-1.74c-0.99,0.35-1.98,0.71-2.97,1.06"/>
	<path class="st100" d="M537.7,101.37c-0.95-0.44-1.91-0.89-2.86-1.33c-0.93,0.5-1.86,1-2.78,1.49"/>
	<path class="st100" d="M537.56,98c-1.01-0.3-2.02-0.59-3.03-0.89c-0.84,0.63-1.69,1.26-2.53,1.89"/>
	<path class="st100" d="M536.92,94.68c-1.04-0.14-2.09-0.29-3.13-0.43c-0.74,0.75-1.48,1.5-2.22,2.25"/>
	<path class="st100" d="M535.8,91.49c-1.05,0.01-2.11,0.03-3.16,0.04c-0.62,0.85-1.24,1.7-1.86,2.55"/>
	<path class="st100" d="M534.21,88.51c-1.04,0.17-2.08,0.34-3.12,0.51c-0.49,0.93-0.97,1.87-1.46,2.8"/>
	<path class="st100" d="M532.19,85.8c-1,0.32-2,0.65-3.01,0.97c-0.34,1-0.69,1.99-1.03,2.99"/>
	<path class="st100" d="M534.09,107.56c2.42-7.36,0.49-15.49-4.99-20.97c-5.28-5.28-13.02-7.27-20.17-5.24"/>
	<path class="st100" d="M561.06,79.6c-7.19,2.92-15.44,1.35-20.97-3.99c-5.3-5.12-7.24-12.88-4.99-19.97"/>
	<path class="st112" d="M551.5,108c5.33,5.41,12.04,13.32,18,24c5.98,10.71,9.2,20.61,11,28"/>
	<path class="st112" d="M572.5,87c6.68,3.62,18.04,10.91,28,24c10.5,13.8,14.41,27.46,16,35"/>
	<path class="st112" d="M564,98.5c6.72,4.65,17.47,13.34,26.5,27.5c9.44,14.79,12.71,28.82,14,37"/>
	<path class="st116" d="M579.86,710.47c0.01,0.06,0.01,0.12,0.01,0.18c0,6.16-4.53,11.14-10.12,11.14s-10.13-4.98-10.13-11.14
		c0-0.06,0-0.12,0.02-0.18c-0.14-0.94-0.14-1.93-0.02-2.93c-16.86-17.33-33.75-34.67-50.62-52c10.98-23.45,33.68-38.74,58.72-39.51
		c26.45-0.81,51.16,14.7,62.78,39.51c-16.87,17.33-33.76,34.67-50.63,52C580,708.54,580,709.53,579.86,710.47z"/>
	<circle class="st117" cx="569.75" cy="628.64" r="4.05"/>
	<circle class="st117" cx="610.25" cy="667.11" r="4.05"/>
	<circle class="st117" cx="531.28" cy="667.11" r="4.05"/>
	<path class="st117" d="M576.84,667.11c0,2.81-1.66,5.26-4.05,6.38c-0.91,0.47-1.94,0.71-3.04,0.71s-2.13-0.24-3.04-0.71
		c-2.39-1.11-4.05-3.56-4.05-6.38c0-3.91,3.18-7.09,7.09-7.09S576.84,663.21,576.84,667.11z"/>
	<path class="st118" d="M572.79,673.49v26.53c-0.95-0.32-1.98-0.51-3.04-0.51s-2.09,0.18-3.04,0.51v-26.53
		c0.91,0.47,1.94,0.71,3.04,0.71S571.88,673.96,572.79,673.49z"/>
	<path class="st117" d="M602.15,673.19c-9.21,9.21-18.43,18.43-27.64,27.64c-0.55-0.32-1.11-0.61-1.72-0.81
		c-0.95-0.32-1.98-0.51-3.04-0.51s-2.09,0.18-3.04,0.51c-0.61,0.2-1.17,0.49-1.72,0.81c-9.21-9.21-18.43-18.43-27.64-27.64
		c2.45-1.01,4.05-3.42,4.05-6.08c0-2.65-1.6-5.06-4.05-6.07c9.46-8.77,18.89-17.56,28.35-26.33c0,2.23,1.82,4.05,4.05,4.05
		s4.05-1.82,4.05-4.05c9.46,8.77,18.89,17.56,28.35,26.33c-2.45,1.01-4.05,3.42-4.05,6.07C598.1,669.77,599.7,672.18,602.15,673.19z
		"/>
	<path class="st117" d="M572.79,710.65c-1.01,1.01-2.02,2.02-3.04,3.04c-1.01-1.01-2.03-2.02-3.04-3.04c0-1.35,0-2.7,0-4.05h6.08
		V710.65z"/>
	<rect x="566.71" y="666.1" class="st119" width="6.07" height="2.03"/>
	<path class="st116" d="M792.86,315.47c0.01,0.06,0.01,0.12,0.01,0.18c0,6.16-4.53,11.14-10.12,11.14s-10.13-4.98-10.13-11.14
		c0-0.06,0-0.12,0.02-0.18c-0.14-0.94-0.14-1.93-0.02-2.93c-16.86-17.33-33.75-34.67-50.62-52c10.98-23.45,33.68-38.74,58.72-39.51
		c26.45-0.81,51.16,14.7,62.78,39.51c-16.87,17.33-33.76,34.67-50.63,52C793,313.54,793,314.53,792.86,315.47z"/>
	<circle class="st117" cx="782.75" cy="233.64" r="4.05"/>
	<circle class="st117" cx="823.25" cy="272.11" r="4.05"/>
	<circle class="st117" cx="744.28" cy="272.11" r="4.05"/>
	<path class="st117" d="M789.84,272.11c0,2.81-1.66,5.26-4.05,6.38c-0.91,0.47-1.94,0.71-3.04,0.71s-2.13-0.24-3.04-0.71
		c-2.39-1.11-4.05-3.56-4.05-6.38c0-3.91,3.18-7.09,7.09-7.09S789.84,268.21,789.84,272.11z"/>
	<path class="st118" d="M785.79,278.49v26.53c-0.95-0.32-1.98-0.51-3.04-0.51s-2.09,0.18-3.04,0.51v-26.53
		c0.91,0.47,1.94,0.71,3.04,0.71S784.88,278.96,785.79,278.49z"/>
	<path class="st117" d="M815.15,278.19c-9.21,9.21-18.43,18.43-27.64,27.64c-0.55-0.32-1.11-0.61-1.72-0.81
		c-0.95-0.32-1.98-0.51-3.04-0.51s-2.09,0.18-3.04,0.51c-0.61,0.2-1.17,0.49-1.72,0.81c-9.21-9.21-18.43-18.43-27.64-27.64
		c2.45-1.01,4.05-3.42,4.05-6.07s-1.6-5.06-4.05-6.08c9.46-8.77,18.89-17.56,28.35-26.32c0,2.23,1.82,4.05,4.05,4.05
		s4.05-1.82,4.05-4.05c9.46,8.77,18.89,17.56,28.35,26.32c-2.45,1.01-4.05,3.42-4.05,6.08S812.7,277.18,815.15,278.19z"/>
	<path class="st117" d="M785.79,315.65c-1.01,1.01-2.02,2.03-3.04,3.04c-1.01-1.01-2.03-2.02-3.04-3.04c0-1.35,0-2.7,0-4.05h6.07
		V315.65z"/>
	<rect x="779.71" y="271.1" class="st119" width="6.07" height="2.03"/>
	<path class="st116" d="M1013.86,151.47c0.01,0.06,0.01,0.12,0.01,0.18c0,6.16-4.53,11.14-10.12,11.14s-10.13-4.98-10.13-11.14
		c0-0.06,0-0.12,0.02-0.18c-0.14-0.94-0.14-1.93-0.02-2.93c-16.86-17.33-33.75-34.67-50.62-52c10.98-23.45,33.68-38.74,58.72-39.51
		c26.45-0.81,51.16,14.7,62.78,39.51c-16.87,17.33-33.76,34.67-50.63,52C1014,149.54,1014,150.53,1013.86,151.47z"/>
	<circle class="st117" cx="1003.75" cy="69.64" r="4.05"/>
	<circle class="st117" cx="1044.25" cy="108.11" r="4.05"/>
	<circle class="st117" cx="965.28" cy="108.11" r="4.05"/>
	<path class="st117" d="M1010.84,108.11c0,2.81-1.66,5.26-4.05,6.38c-0.91,0.47-1.94,0.71-3.04,0.71s-2.13-0.24-3.04-0.71
		c-2.39-1.11-4.05-3.56-4.05-6.38c0-3.91,3.18-7.09,7.09-7.09S1010.84,104.21,1010.84,108.11z"/>
	<path class="st118" d="M1006.79,114.49v26.53c-0.95-0.32-1.98-0.51-3.04-0.51s-2.09,0.18-3.04,0.51v-26.53
		c0.91,0.47,1.94,0.71,3.04,0.71S1005.88,114.96,1006.79,114.49z"/>
	<path class="st117" d="M1036.15,114.19c-9.21,9.21-18.43,18.43-27.64,27.64c-0.55-0.32-1.11-0.61-1.72-0.81
		c-0.95-0.32-1.98-0.51-3.04-0.51s-2.09,0.18-3.04,0.51c-0.61,0.2-1.17,0.49-1.72,0.81c-9.21-9.21-18.43-18.43-27.64-27.64
		c2.45-1.01,4.05-3.42,4.05-6.07c0-2.65-1.6-5.06-4.05-6.08c9.46-8.77,18.89-17.56,28.35-26.32c0,2.23,1.82,4.05,4.05,4.05
		s4.05-1.82,4.05-4.05c9.46,8.77,18.89,17.56,28.35,26.32c-2.45,1.01-4.05,3.42-4.05,6.08
		C1032.1,110.77,1033.7,113.18,1036.15,114.19z"/>
	<path class="st117" d="M1006.79,151.65c-1.01,1.01-2.02,2.02-3.04,3.04c-1.01-1.01-2.03-2.03-3.04-3.04c0-1.35,0-2.7,0-4.05h6.07
		V151.65z"/>
	<rect x="1000.71" y="107.1" class="st119" width="6.07" height="2.03"/>
	<path class="st96" d="M832.31,634.49c-9.91,14.5-23.18,31.15-40.7,47.71c-9.89,9.33-19.61,17.22-28.73,23.85
		c-6.94,2.65-14.7,0.67-19.15-4.77c-0.98-1.17-1.75-2.48-2.32-3.86c-1.68-3.98-1.75-8.61-0.07-12.83
		c11.35-9.37,23.51-20.44,35.91-33.4c11.04-11.55,20.57-22.83,28.73-33.4c4.81-3.22,10.85-3.77,16.02-1.69
		c1.1,0.45,2.13,1,3.14,1.69C830.51,621.47,833.32,627.98,832.31,634.49z"/>
	<path class="st97" d="M847.29,646.9c-10.2,14.98-23.85,32.17-41.88,49.27c-10.17,9.63-20.17,17.79-29.56,24.63
		c-7.14,2.73-15.13,0.69-19.71-4.93c-1.01-1.21-1.8-2.56-2.39-3.99c-1.72-4.11-1.8-8.89-0.07-13.25
		c11.68-9.68,24.19-21.11,36.95-34.49c11.36-11.92,21.16-23.57,29.56-34.49c4.95-3.33,11.16-3.89,16.48-1.75
		c1.13,0.47,2.19,1.03,3.23,1.75C845.44,633.45,848.33,640.17,847.29,646.9z"/>
	<path class="st96" d="M844.83,617.34c-2.61,3.47-5.32,7-8.15,10.57c-5.32-2.14-11.53-1.58-16.48,1.75
		c-8.4,10.91-18.2,22.56-29.56,34.49c-12.76,13.38-25.27,24.81-36.95,34.49c-1.72,4.36-1.65,9.14,0.07,13.25
		c-1.7,1.35-3.35,2.68-5,3.99c-6.28,3.99-13.99,2.36-17.24-2.46c-2.32-3.42-2.24-8.23,0-12.32c16.63-13.87,34.02-29.44,51.73-46.8
		c16.31-15.99,31.04-31.68,44.34-46.8c3.74-5.03,10.64-5.81,14.78-2.46C845.72,607.73,846.87,612.85,844.83,617.34z"/>
	<path class="st123" d="M746.3,696.16c5.53-2.91,8.97-6.19,11.08-8.62c3.62-4.16,3.46-5.99,7.39-9.85c4.3-4.23,5.69-3.22,9.85-7.39
		c4.1-4.1,3.23-5.54,7.39-9.85c4.13-4.28,5.26-3.13,9.85-7.39c5.25-4.86,4.51-7.04,9.85-12.32c4.21-4.16,5.81-3.94,9.85-7.39
		c3.33-2.85,7.7-7.67,11.09-16.01"/>
	<path class="st96" d="M1257.31,429.49c-9.91,14.5-23.18,31.15-40.7,47.71c-9.89,9.33-19.61,17.22-28.73,23.85
		c-6.94,2.65-14.7,0.67-19.15-4.77c-0.98-1.17-1.75-2.48-2.32-3.86c-1.68-3.98-1.75-8.61-0.07-12.83
		c11.35-9.37,23.51-20.44,35.91-33.4c11.04-11.55,20.57-22.83,28.73-33.4c4.81-3.22,10.85-3.77,16.02-1.69
		c1.1,0.45,2.13,1,3.14,1.69C1255.51,416.47,1258.32,422.98,1257.31,429.49z"/>
	<path class="st96" d="M1272.29,441.9c-10.2,14.98-23.85,32.17-41.88,49.27c-10.17,9.63-20.17,17.79-29.56,24.63
		c-7.14,2.73-15.13,0.69-19.71-4.93c-1.01-1.21-1.8-2.56-2.39-3.99c-1.72-4.11-1.8-8.89-0.07-13.25
		c11.68-9.68,24.19-21.11,36.95-34.49c11.36-11.92,21.16-23.57,29.56-34.49c4.95-3.33,11.16-3.89,16.48-1.75
		c1.13,0.47,2.19,1.03,3.23,1.75C1270.44,428.45,1273.33,435.17,1272.29,441.9z"/>
	<path class="st96" d="M1269.83,412.34c-2.61,3.47-5.32,7-8.15,10.57c-5.32-2.14-11.53-1.58-16.48,1.75
		c-8.4,10.91-18.2,22.56-29.56,34.49c-12.76,13.38-25.27,24.81-36.95,34.49c-1.72,4.36-1.65,9.14,0.07,13.25
		c-1.7,1.35-3.35,2.68-5,3.99c-6.28,3.99-13.99,2.36-17.24-2.46c-2.32-3.42-2.24-8.23,0-12.32c16.63-13.87,34.02-29.44,51.73-46.8
		c16.31-15.99,31.04-31.68,44.34-46.8c3.74-5.03,10.64-5.81,14.78-2.46C1270.72,402.73,1271.87,407.85,1269.83,412.34z"/>
	<path class="st123" d="M1171.3,491.16c5.53-2.91,8.97-6.19,11.09-8.62c3.62-4.16,3.46-5.99,7.39-9.85c4.3-4.23,5.69-3.22,9.85-7.39
		c4.1-4.1,3.23-5.54,7.39-9.85c4.13-4.28,5.26-3.13,9.85-7.39c5.25-4.86,4.51-7.04,9.85-12.32c4.21-4.16,5.81-3.94,9.85-7.39
		c3.33-2.85,7.7-7.67,11.08-16.01"/>
</g>
<g id="Layer_2">
</g>
</svg>
