<svg viewBox="0 0 162 51.301" xmlns="http://www.w3.org/2000/svg"><path d="m0 14.438h7.871l5.348 18.534 5.382-18.534h7.904v23.125h-4.944v-19.304l-5.685 19.305h-5.853l-5.617-19.305v19.305h-4.406zm39.594 0h5.18v19.003h8.879v4.122h-14.059zm18.132 0h15.102l3.095 3.083v5.597l-2.556 2.581 2.59 2.581v6.2l-3.095 3.084h-15.136zm11.907 9.451 1.11-1.139v-3.62l-1.043-1.039h-6.794v5.798zm.101 9.988 1.042-1.039v-4.156l-1.177-1.173h-6.693v6.368zm-39.157-19.439h4.944v4.055h-4.944zm0 8.128v14.998h4.944v-14.998z" fill="#fff"/><path d="m160.296 50.316h-.362v.985h-.245v-.985h-.361v-.214h.968zm1.639.985h-.245v-.954h-.006l-.347.954h-.236l-.336-.954h-.006v.954h-.245v-1.199h.424l.279.783h.006l.291-.783h.421zm-6.193-51.301h-68.289c-3.451 0-6.258 2.797-6.258 6.235v37.92c0 3.436 2.807 6.232 6.258 6.232h68.289c3.451 0 6.258-2.796 6.258-6.232v-37.92c0-3.438-2.807-6.235-6.258-6.235z" fill="#fff"/><path d="m87.453 2.414a3.826 3.826 0 0 0 -3.835 3.821v37.92a3.827 3.827 0 0 0 3.835 3.818h8.836c1.17-1.713 3.685-3.869 4.086-3.887.293-.014 1.79.346 1.79.346.135-.547-.135-.831.144-1.279 1.637-2.087 4.258-3.263 4.258-3.263-.187-.994.774-1.309 1.009-1.245.234.067 1.208.335 1.521.287.85-.128 1.382.157 1.382.157l6.685-7.202-.391-.384c-.375-.377-.744-.76-1.128-1.11-1.586 1.126-3.276-.878-4.619-1.791-.48-.328-.534-.827-.612-1.345-.657-.147-1.115-.401-1.115-.401a4.546 4.546 0 0 1 .025-.69c-.627-.681-.993-1.139-1.402-1.975a12.487 12.487 0 0 1 -.949-2.624c-.99-4.855.776-7.977 3.394-9.63l-1.399-.985-3.512 2.664 1.328-4.247-3.651-2.676h4.421l1.267-4.134 1.382 4.134h4.438l-3.528 2.602.668 1.919c2.669-1.079 5.797-.914 7.832.283 0 0 3.479 1.473 4.998 5.718.425-.081.698-.053 1.043.104.368.187.966 2.471 1.24 3.755l15.04-18.144c.113-.12.31-.324.572-.516h-55.053zm8.634 18.569-.513 4.357-2.151-3.896-4.42.8 3.014-3.208-2.115-3.778 3.923 1.853 3.025-3.219-.476 4.409 4.056 1.872zm34.724-7.492-3.606-2.539-3.512 2.664 1.329-4.247-3.652-2.676h4.422l1.266-4.134 1.38 4.134h4.437l-3.527 2.602z" fill="#e31837"/><path d="m155.742 47.973a3.826 3.826 0 0 0 3.834-3.818v-37.92a3.825 3.825 0 0 0 -3.834-3.821h-9.38c.107.076.215.157.327.253 1.962 1.708.501 3.375.205 3.65l-19.238 18.307c-1.357.677-2.429 2.014-3.441 3.65l-1.066-.418-.898.914-.641-.807c.633-.61.921-.952 1.453-1.257l1.304-.532-1.175-.49-.17.512-1.379.395-.258.51-.416-.735.458-1.08-.463-.161-.958.666-.9.005-.832-2.241c.448-.492.96-.892.948-.751l1.36.911 2.396-1.227-.651-.432.957-.911.291-1.494-1.91.42 1.828-1.781c-.054-.448-.183-.841-.52-1.147-.212-.196.413.863-.684.994-3.806.452-7.54 2.04-11.188 8.111-.547-.063-.808-.202-1.011-.381a8.947 8.947 0 0 1 .422-1.717c1.398-3.921 5.03-6.366 7.843-7.356l.213-.564c-1.261-.001-3.584.69-4.467 1.149-1.133-.537-.509-2.236-2.293-3.117-.623-.307-3.778-.471-5.032 3.414-.145 1.148-.098 2.444.198 3.896.3 1.221.658 2.022.949 2.624.408.836.775 1.294 1.402 1.975-.02.184-.039.454-.025.69 0 0 .458.254 1.115.401.078.518.131 1.017.612 1.345 1.343.912 3.033 2.916 4.619 1.791.384.35.753.733 1.128 1.11l.596.588c.363.338.598.483 1.027.725l.702.311-4.211 4.155-1.816 1.786-.635.624c.137.138.31.318.349.395.066.133.106 1.236.147 1.385.039.153.037.32-.006.396-.042.073-2.104-1.011-6.746 2.774-.789.657-1.103.786-1.113.789-.355.175-1.903.136-2.754.714-.704.509-1.112 1.242-1.423 1.826h2.365c.417-.571.96-1.009 1.484-1.348.544-.353 1.817-.334 2.377-.621.932-.476 1.949-1.83 3.806-2.471 1.113-.383 3.306-.271 3.692-1.309.405-1.099 2.11-1.254 3.406-2.185 1.192.223 2.341.438 3.37.642 2.935.582 4.656 1.085 3.864 1.568-5.712 3.484-9.286 4.755-12.11 5.725h25.55c-.768-.61-1.423-1.154-1.823-1.539-.129-.185 2.939-3.852 9.247-6.381 0-.131 0-.263.004-.385-1.12-.011-3.641.296-5.841 1.693.414-1.226.435-3.069.422-3.864l-.34-.084c-1.324 3.924-7.548 8.124-7.548 8.124l-1.265-.366c.179-1.144-.103-2.695-1.222-3.303-2.697-1.468-5.45-2.128-8.38-2.509-.904-.117-2.795-.404-3.992-.929.658-.424 2.934-1.363 3.931-4.209.471-1.107 1.456-5.556 6.715-7.983l.385-1.023c.519-.196 1.667-.48 2.966-.478 9.608.015 14.088 7.468 15.179 9.187.757 1.274 4.093 8.449 6.957 14.05h1.652zm-5.827-26.528-2.153 3.896-.513-4.357-4.342-.81 4.056-1.872-.479-4.409 3.029 3.219 3.92-1.853-2.116 3.778 3.016 3.208z" fill="#002b5c"/></svg>